<?xml version="1.0" encoding="UTF-8" standalone="no"?>
<svg
   version="1.0"
   width="512.000000pt"
   height="512.000000pt"
   viewBox="0 0 512.000000 512.000000"
   preserveAspectRatio="xMidYMid meet"
   id="svg10"
   sodipodi:docname="logo.svg"
   inkscape:version="1.3.2 (091e20ef0f, 2023-11-25, custom)"
   xmlns:inkscape="http://www.inkscape.org/namespaces/inkscape"
   xmlns:sodipodi="http://sodipodi.sourceforge.net/DTD/sodipodi-0.dtd"
   xmlns="http://www.w3.org/2000/svg"
   xmlns:svg="http://www.w3.org/2000/svg">
  <defs
     id="defs14" />
  <sodipodi:namedview
     id="namedview12"
     pagecolor="#505050"
     bordercolor="#eeeeee"
     borderopacity="1"
     inkscape:showpageshadow="0"
     inkscape:pageopacity="0"
     inkscape:pagecheckerboard="0"
     inkscape:deskcolor="#505050"
     inkscape:document-units="pt"
     showgrid="false"
     inkscape:zoom="0.34570313"
     inkscape:cx="164.88135"
     inkscape:cy="342.77966"
     inkscape:window-width="1670"
     inkscape:window-height="961"
     inkscape:window-x="0"
     inkscape:window-y="0"
     inkscape:window-maximized="1"
     inkscape:current-layer="svg10" />
  <g
     transform="translate(0.000000,512.000000) scale(0.100000,-0.100000)"
     fill="#000000"
     stroke="none"
     id="g8"
     style="fill:#433f65;fill-opacity:1">
    <path
       d="M0 2560 l0 -2560 720 0 720 0 0 2560 0 2560 -720 0 -720 0 0 -2560z"
       id="path2"
       style="fill:#433f65;fill-opacity:1" />
    <path
       d="M1840 4400 l0 -720 920 0 920 0 0 -1840 0 -1840 720 0 720 0 0 2560 0 2560 -1640 0 -1640 0 0 -720z"
       id="path4"
       style="fill:#433f65;fill-opacity:1" />
    <path
       d="M1840 1640 l0 -1640 720 0 720 0 0 1640 0 1640 -720 0 -720 0 0 -1640z"
       id="path6"
       style="fill:#433f65;fill-opacity:1" />
  </g>
</svg>
