<?xml version="1.0" encoding="UTF-8" standalone="no"?><svg xmlns="http://www.w3.org/2000/svg" xmlns:xlink="http://www.w3.org/1999/xlink" width="1680" height="648.413" viewBox="0 0 1680 648.413"><defs><linearGradient id="a" x2="1" y2="0.98" gradientUnits="objectBoundingBox"><stop offset="0" stop-color="#6d2954"/><stop offset="0.474" stop-color="#501e45"/><stop offset="1" stop-color="#0f0523"/></linearGradient><clipPath id="b"><rect width="1680" height="642" transform="translate(0 9499)" fill="#0c082f"/></clipPath><linearGradient id="c" x1="0.5" y1="1" x2="0.5" gradientUnits="objectBoundingBox"><stop offset="0" stop-color="#fff700"/><stop offset="1" stop-color="#fff700" stop-opacity="0"/></linearGradient><linearGradient id="d" x1="0.5" y1="1" x2="0.5" gradientUnits="objectBoundingBox"><stop offset="0" stop-color="#ee485f"/><stop offset="1" stop-color="#ee485f" stop-opacity="0"/></linearGradient><linearGradient id="g" x1="0.5" y1="1" x2="0.5" gradientUnits="objectBoundingBox"><stop offset="0" stop-color="#ffbba9"/><stop offset="1" stop-color="#ffbba9" stop-opacity="0"/></linearGradient><filter id="m" x="1244.842" y="313.534" width="185.868" height="185.868" filterUnits="userSpaceOnUse"><feOffset input="SourceAlpha"/><feGaussianBlur stdDeviation="2.5" result="n"/><feFlood flood-color="#fff" flood-opacity="0.4"/><feComposite operator="in" in2="n"/><feComposite in="SourceGraphic"/></filter></defs><rect width="1680" height="642" transform="translate(0 6.413)" fill="url(#a)"/><g transform="translate(0 -9499)" opacity="0.3" clip-path="url(#b)"><g transform="translate(-2593.276 8283.74)"><circle cx="331.532" cy="331.532" r="331.532" transform="translate(2151.385 788.439)" fill="none" stroke="#ee485f" stroke-miterlimit="10" stroke-width="1"/><circle cx="234.768" cy="234.768" r="234.768" transform="translate(892.336 885.202)" fill="none" stroke="#ee485f" stroke-miterlimit="10" stroke-width="1"/><circle cx="306.303" cy="306.303" r="306.303" transform="translate(3947.167 813.668)" fill="none" stroke="#ee485f" stroke-miterlimit="10" stroke-width="1"/><path d="M3949.167,1842.086a194.484,194.484,0,0,1-194.614-194.614c0-107.482,87.131-194.614,194.614-194.614s194.614,87.132,194.614,194.614a196.776,196.776,0,0,1-1.39,23.38" fill="none" stroke="#ee485f" stroke-miterlimit="10" stroke-width="1"/><circle cx="333.53" cy="333.53" r="333.53" transform="translate(225.276 786.44)" fill="none" stroke="#ee485f" stroke-miterlimit="10" stroke-width="1" stroke-dasharray="50 10 90"/><circle cx="208.279" cy="208.279" r="208.279" transform="translate(1670.674 1493.006)" fill="none" stroke="#ee485f" stroke-miterlimit="10" stroke-width="1" stroke-dasharray="100 30 60 20 10"/><path d="M1815.962,1625.989a97.313,97.313,0,1,1-7.882,140.77" fill="none" stroke="#ee485f" stroke-miterlimit="10" stroke-width="1"/><circle cx="37.313" cy="37.313" r="37.313" transform="translate(2839.878 178.454)" fill="none" stroke="#ee485f" stroke-miterlimit="10" stroke-width="1"/><circle cx="80.117" cy="80.117" r="80.117" transform="translate(2597.802 258.515)" fill="none" stroke="#ee485f" stroke-miterlimit="10" stroke-width="1"/><circle cx="232.583" cy="232.583" r="232.583" transform="translate(2447.583 107.049)" fill="none" stroke="#ee485f" stroke-miterlimit="10" stroke-width="1" stroke-dasharray="30 3 100 19"/><circle cx="729.05" cy="729.05" r="729.05" transform="translate(1753.867 390.92)" fill="none" stroke="#ee485f" stroke-miterlimit="10" stroke-width="1" stroke-dasharray="100 30 60 20 10"/><circle cx="805.909" cy="805.909" r="805.909" transform="translate(1677.008 314.061)" fill="none" stroke="#ee485f" stroke-miterlimit="10" stroke-width="1" stroke-dasharray="70 10 360"/><circle cx="1307.711" cy="1307.711" r="1307.711" transform="translate(1175.206 -187.74)" fill="none" stroke="#ee485f" stroke-miterlimit="10" stroke-width="1" stroke-dasharray="30 40 170 10"/><line x2="2661.903" y2="1536.85" transform="translate(825.869 163.273)" fill="none" stroke="#ee485f" stroke-miterlimit="10" stroke-width="1"/><line x2="3748.443" y2="660.952" transform="translate(878.472 837.063)" fill="none" stroke="#ee485f" stroke-miterlimit="10" stroke-width="1"/><line y1="594.369" x2="3370.832" transform="translate(992.295 788.439)" fill="none" stroke="#ee485f" stroke-miterlimit="10" stroke-width="1"/><line y1="1383.46" x2="1422.207" transform="translate(1781.006 418.748)" fill="none" stroke="#ee485f" stroke-miterlimit="10" stroke-width="1"/></g></g><g transform="translate(1484.605 490.675) rotate(135)"><path d="M5.279,65.988c2.915,0,5.278-1.738,5.279-3.882V3.882C10.557,1.738,8.194,0,5.279,0S0,1.738,0,3.882V62.106C0,64.25,2.363,65.988,5.279,65.988Z" transform="translate(36.858 39.737)" fill="url(#c)"/><path d="M5.279,89.734a5.279,5.279,0,0,0,5.279-5.278V5.279A5.278,5.278,0,1,0,0,5.279V84.456A5.278,5.278,0,0,0,5.279,89.734Z" transform="translate(0 46.377)" fill="url(#d)"/><path d="M5.279,89.734a5.279,5.279,0,0,0,5.279-5.278V5.279A5.278,5.278,0,1,0,0,5.279V84.456A5.278,5.278,0,0,0,5.279,89.734Z" transform="translate(77.958 46.377)" fill="url(#d)"/><path d="M5.279,136.111c2.915,0,5.279-3.585,5.279-8.007V8.007C10.557,3.585,8.194,0,5.279,0S0,3.585,0,8.007V128.1C0,132.527,2.363,136.111,5.279,136.111Z" transform="translate(36.858 -2.121)" fill="url(#d)"/><path d="M5.279,72.394c2.915,0,5.278-1.907,5.279-4.258V4.258C10.557,1.907,8.194,0,5.279,0S0,1.907,0,4.258V68.136C0,70.488,2.363,72.394,5.279,72.394Z" transform="translate(0 63.717)" fill="url(#g)"/><path d="M5.279,72.394c2.915,0,5.278-1.907,5.279-4.258V4.258C10.557,1.907,8.194,0,5.279,0S0,1.907,0,4.258V68.136C0,70.488,2.363,72.394,5.279,72.394Z" transform="translate(77.958 63.717)" fill="url(#g)"/><path d="M5.279,98.976a5.57,5.57,0,0,0,5.279-5.822V5.822A5.57,5.57,0,0,0,5.279,0,5.57,5.57,0,0,0,0,5.822V93.154A5.57,5.57,0,0,0,5.279,98.976Z" transform="translate(36.858 35.489)" fill="url(#g)"/><path d="M3.59,67.317a3.789,3.789,0,0,0,3.59-3.96V3.96A3.789,3.789,0,0,0,3.59,0,3.789,3.789,0,0,0,0,3.96v59.4A3.789,3.789,0,0,0,3.59,67.317Z" transform="translate(38.546 51.318)" fill="url(#g)"/><path d="M3.928,53.877c2.17,0,3.928-1.419,3.928-3.169V3.169C7.857,1.419,6.1,0,3.928,0S0,1.419,0,3.169V50.708C0,52.458,1.759,53.877,3.928,53.877Z" transform="translate(1.35 72.976)" fill="url(#g)"/><path d="M3.928,53.877c2.17,0,3.928-1.419,3.928-3.169V3.169C7.857,1.419,6.1,0,3.928,0S0,1.419,0,3.169V50.708C0,52.458,1.759,53.877,3.928,53.877Z" transform="translate(79.308 72.976)" fill="url(#g)"/><g transform="translate(88.514 86.681) rotate(90)"><path d="M53.779,10.553H4.932A5.289,5.289,0,0,1,4.932,0H53.779a5.289,5.289,0,0,1,0,10.553Z" transform="translate(0 0.074)" fill="#fff"/><path d="M4.926,0H53.709a5.289,5.289,0,0,1,0,10.553H4.926A5.289,5.289,0,0,1,4.926,0Z" transform="translate(0 77.961)" fill="#fff"/><g transform="matrix(-0.71, 0.71, -0.71, -0.71, 1310.05, -614.3)" filter="url(#m)"><path d="M108.925,88.465a44.232,44.232,0,0,1-43.9-38.943H4.932a5.289,5.289,0,0,1,0-10.553h60.1a44.232,44.232,0,1,1,43.9,49.5Zm0-77.622a33.39,33.39,0,1,0,33.39,33.39A33.39,33.39,0,0,0,108.925,10.844Z" transform="translate(1360.66 491.9) rotate(-135)" fill="#fff"/></g></g></g><g transform="translate(0 -10109)"><circle cx="4" cy="4" r="4" transform="translate(1418 10298)" fill="#fff"/><circle cx="2" cy="2" r="2" transform="translate(1449 10159)" fill="#fff"/><circle cx="2" cy="2" r="2" transform="translate(1548 10245)" fill="#fff" opacity="0.3"/><circle cx="5" cy="5" r="5" transform="translate(1595 10421)" fill="#fff" opacity="0.1"/><circle cx="15" cy="15" r="15" transform="translate(76 10197)" fill="#fff" opacity="0.1"/><circle cx="3" cy="3" r="3" transform="translate(1056 10153)" fill="#fff" opacity="0.1"/><circle cx="4" cy="4" r="4" transform="translate(109 10526)" fill="#fff" opacity="0.3"/></g></svg>