<?xml version="1.0" encoding="UTF-8" standalone="no"?><svg xmlns="http://www.w3.org/2000/svg" xmlns:xlink="http://www.w3.org/1999/xlink" width="1680" height="949.923" viewBox="0 0 1680 949.923"><defs><linearGradient id="a" x1="0.5" x2="0.5" y2="1" gradientUnits="objectBoundingBox"><stop offset="0" stop-color="#10062b"/><stop offset="1" stop-color="#471747"/></linearGradient><radialGradient id="b" cx="1" cy="0" r="0.711" gradientTransform="matrix(-0.401, 0.916, -0.496, -0.217, 1.316, -0.556)" gradientUnits="objectBoundingBox"><stop offset="0" stop-color="#6d2954"/><stop offset="1" stop-color="#0f0523"/></radialGradient><clipPath id="c"><rect width="1680" height="949.923" transform="translate(0.5 99.864)" fill="url(#a)"/></clipPath></defs><g transform="translate(-0.5 -99.864)"><g transform="translate(-346.833 -530.407)"><rect width="1680" height="949.923" transform="translate(347.333 630.271)" fill="url(#b)"/></g><g clip-path="url(#c)"><g transform="translate(-842.559 568.383) rotate(-20)" opacity="0.24" style="mix-blend-mode:exclusion;isolation:isolate"><g transform="translate(225.276 -187.74)"><g transform="translate(1366.034 692.325)"><path d="M235.129-.5a237.369,237.369,0,0,1,47.487,4.787,234.341,234.341,0,0,1,84.256,35.455A236.316,236.316,0,0,1,452.24,143.411a234.448,234.448,0,0,1,13.73,44.231,237.922,237.922,0,0,1,0,94.974,234.341,234.341,0,0,1-35.455,84.256A236.315,236.315,0,0,1,326.846,452.24a234.448,234.448,0,0,1-44.231,13.73,237.922,237.922,0,0,1-94.974,0,234.341,234.341,0,0,1-84.256-35.455A236.315,236.315,0,0,1,18.017,326.846a234.448,234.448,0,0,1-13.73-44.231,237.922,237.922,0,0,1,0-94.974,234.341,234.341,0,0,1,35.455-84.256A236.315,236.315,0,0,1,143.411,18.017a234.448,234.448,0,0,1,44.231-13.73A237.369,237.369,0,0,1,235.129-.5Zm0,470.258a236.363,236.363,0,0,0,47.286-4.767,233.342,233.342,0,0,0,83.9-35.3,235.315,235.315,0,0,0,85.008-103.23,233.439,233.439,0,0,0,13.671-44.042,236.922,236.922,0,0,0,0-94.573,233.342,233.342,0,0,0-35.3-83.9,235.315,235.315,0,0,0-103.23-85.008A233.439,233.439,0,0,0,282.415,5.267a236.922,236.922,0,0,0-94.573,0,233.342,233.342,0,0,0-83.9,35.3A235.315,235.315,0,0,0,18.938,143.8,233.439,233.439,0,0,0,5.267,187.842a236.922,236.922,0,0,0,0,94.573,233.342,233.342,0,0,0,35.3,83.9A235.315,235.315,0,0,0,143.8,451.319a233.439,233.439,0,0,0,44.042,13.671A236.363,236.363,0,0,0,235.129,469.758Z" fill="#ee485f"/></g><path d="M166.5-.5a168.236,168.236,0,0,1,33.656,3.393,166.089,166.089,0,0,1,59.717,25.129A167.488,167.488,0,0,1,320.38,101.5a166.17,166.17,0,0,1,9.731,31.349,168.625,168.625,0,0,1,0,67.312,166.089,166.089,0,0,1-25.129,59.717,167.489,167.489,0,0,1-73.475,60.505,166.171,166.171,0,0,1-31.349,9.731,168.625,168.625,0,0,1-67.312,0,166.089,166.089,0,0,1-59.717-25.129,167.489,167.489,0,0,1-60.505-73.475,166.171,166.171,0,0,1-9.731-31.349,168.625,168.625,0,0,1,0-67.312A166.089,166.089,0,0,1,28.022,73.129,167.488,167.488,0,0,1,101.5,12.624a166.17,166.17,0,0,1,31.349-9.731A168.236,168.236,0,0,1,166.5-.5Zm0,333a167.233,167.233,0,0,0,33.456-3.373,165.089,165.089,0,0,0,59.357-24.978,166.488,166.488,0,0,0,60.144-73.036,165.167,165.167,0,0,0,9.672-31.16,167.625,167.625,0,0,0,0-66.911,165.089,165.089,0,0,0-24.978-59.357,166.488,166.488,0,0,0-73.036-60.144,165.167,165.167,0,0,0-31.16-9.672,167.625,167.625,0,0,0-66.911,0A165.089,165.089,0,0,0,73.689,28.85a166.488,166.488,0,0,0-60.144,73.036,165.167,165.167,0,0,0-9.672,31.16,167.625,167.625,0,0,0,0,66.911A165.089,165.089,0,0,0,28.85,259.315a166.488,166.488,0,0,0,73.036,60.144,165.167,165.167,0,0,0,31.16,9.672A167.233,167.233,0,0,0,166.5,332.5Z" transform="translate(473.092 760.952)" fill="#ee485f"/><path d="M217.236-.5a219.343,219.343,0,0,1,43.881,4.424,216.545,216.545,0,0,1,77.858,32.763,218.37,218.37,0,0,1,78.886,95.8,216.644,216.644,0,0,1,12.687,40.872,219.855,219.855,0,0,1,0,87.762,216.545,216.545,0,0,1-32.763,77.858,218.37,218.37,0,0,1-95.8,78.886,216.644,216.644,0,0,1-40.872,12.687,219.855,219.855,0,0,1-87.762,0A216.545,216.545,0,0,1,95.5,397.785a218.37,218.37,0,0,1-78.886-95.8A216.644,216.644,0,0,1,3.924,261.117a219.855,219.855,0,0,1,0-87.762A216.545,216.545,0,0,1,36.686,95.5a218.37,218.37,0,0,1,95.8-78.886A216.644,216.644,0,0,1,173.355,3.924,219.343,219.343,0,0,1,217.236-.5Zm0,434.472a218.338,218.338,0,0,0,43.68-4.4,215.544,215.544,0,0,0,77.5-32.611A217.371,217.371,0,0,0,416.94,301.6a215.64,215.64,0,0,0,12.629-40.683,218.853,218.853,0,0,0,0-87.361,215.543,215.543,0,0,0-32.611-77.5A217.371,217.371,0,0,0,301.6,17.532,215.64,215.64,0,0,0,260.916,4.9a218.853,218.853,0,0,0-87.361,0,215.543,215.543,0,0,0-77.5,32.611,217.371,217.371,0,0,0-78.525,95.358A215.641,215.641,0,0,0,4.9,173.555a218.853,218.853,0,0,0,0,87.361,215.544,215.544,0,0,0,32.611,77.5,217.371,217.371,0,0,0,95.358,78.525,215.641,215.641,0,0,0,40.683,12.629A218.338,218.338,0,0,0,217.236,433.972Z" transform="translate(2639.637 710.218)" fill="#ee485f"/><path d="M3892.577,1729.406a139.238,139.238,0,0,1-31.831-3.675,138.377,138.377,0,0,1-106.693-134.849,139.545,139.545,0,0,1,2.814-27.917,137.767,137.767,0,0,1,20.844-49.533,138.927,138.927,0,0,1,60.946-50.188,137.832,137.832,0,0,1,26-8.072,139.87,139.87,0,0,1,55.834,0,137.767,137.767,0,0,1,49.533,20.844,138.923,138.923,0,0,1,50.188,60.946,137.827,137.827,0,0,1,8.072,26,140.078,140.078,0,0,1,1.825,44.558l-.993-.119a139.089,139.089,0,0,0-1.812-44.238,136.767,136.767,0,0,0-20.693-49.174,137.926,137.926,0,0,0-60.507-49.826,136.824,136.824,0,0,0-25.814-8.013,138.867,138.867,0,0,0-55.433,0,136.764,136.764,0,0,0-49.174,20.693,137.926,137.926,0,0,0-49.826,60.507,136.839,136.839,0,0,0-8.013,25.814,138.6,138.6,0,0,0,2.818,66.728,137.566,137.566,0,0,0,100.31,94.865,138.235,138.235,0,0,0,31.6,3.648Z" transform="translate(-1251.521 -289.314)" fill="#ee485f"/><path d="M236.546-.5a238.633,238.633,0,0,1,49.742,5.228l-.209.978A237.633,237.633,0,0,0,236.546.5Zm59.5,7.528a236.075,236.075,0,0,1,80.941,38.531l-.593.805A235.073,235.073,0,0,0,295.791,8Zm-134.78,4.677.317.948c-3.139,1.051-6.3,2.184-9.392,3.367l-.357-.934C154.935,13.9,158.109,12.76,161.261,11.705Zm-53.982,26.11.546.838A237.344,237.344,0,0,0,43.547,100.61l-.817-.577a238.346,238.346,0,0,1,64.549-62.219ZM413.916,79.282c2.207,2.488,4.391,5.056,6.492,7.633l-.775.632c-2.091-2.567-4.266-5.124-6.464-7.6ZM37.127,108.341l.841.542a235.662,235.662,0,0,0-22.394,44.482l-.936-.352A236.658,236.658,0,0,1,37.127,108.341Zm425.748,57.522a236.569,236.569,0,0,1,9.744,49.054l-1,.09a235.564,235.564,0,0,0-9.7-48.846Zm10.437,59.053c.186,3.85.28,7.763.28,11.629a236.605,236.605,0,0,1-12.835,77.14l-.946-.325a235.608,235.608,0,0,0,12.78-76.815c0-3.851-.094-7.747-.279-11.581ZM.548,241.365c.066,3.315.2,6.67.408,9.972l-1,.062c-.2-3.315-.343-6.684-.409-10.013Zm8.7,59.076a235.245,235.245,0,0,0,40.011,79.8l-.793.609A236.245,236.245,0,0,1,8.287,300.711Zm429.458,58.027.856.517c-1.72,2.845-3.524,5.693-5.363,8.464l-.833-.553C435.2,364.137,437,361.3,438.708,358.468Zm-383.2,29.552a237.865,237.865,0,0,0,35.807,34.616l-.616.788a238.87,238.87,0,0,1-35.958-34.762Zm315.378,42.642.57.822a237,237,0,0,1-43.878,24l-.384-.923A235.994,235.994,0,0,0,370.883,430.663ZM317.9,458.2l.345.939a236.288,236.288,0,0,1-81.7,14.455c-2.258,0-4.545-.032-6.8-.1l.028-1c2.243.063,4.521.1,6.769.1A235.291,235.291,0,0,0,317.9,458.2Zm-147.125,5.109c3.18.921,6.424,1.786,9.642,2.57l-.237.971c-3.231-.788-6.489-1.657-9.683-2.581Z" transform="translate(0 690.908)" fill="#ee485f"/><path d="M147.716-.5v1a146.991,146.991,0,0,0-47.23,7.739l-.321-.947A147.989,147.989,0,0,1,147.716-.5Zm0,0a147.6,147.6,0,0,1,92.841,32.674l-.627.779A146.6,146.6,0,0,0,147.716.5ZM90.778,10.831l.384.923A147.182,147.182,0,0,0,73.34,20.642l-.506-.863A148.191,148.191,0,0,1,90.778,10.831ZM261.952,53.275a147.852,147.852,0,0,1,28.05,52.8l-.96.28a146.853,146.853,0,0,0-27.86-52.443ZM28.391,59.782l.8.594a147.429,147.429,0,0,0-15.2,25.686l-.908-.419A148.43,148.43,0,0,1,28.391,59.782ZM294.3,125.663c.491,3.289.875,6.642,1.144,9.965l-1,.08c-.266-3.3-.649-6.631-1.136-9.9ZM4.858,183.416c.8,3.21,1.72,6.434,2.737,9.582l-.952.307c-1.023-3.169-1.95-6.415-2.756-9.647Zm10.134,28.074a147.726,147.726,0,0,0,36.015,47.225l-.657.754a148.727,148.727,0,0,1-36.259-47.545ZM269.624,230.27l.827.561a149.258,149.258,0,0,1-19.3,23.036l-.7-.716A148.252,148.252,0,0,0,269.624,230.27ZM75.37,275.959a146.543,146.543,0,0,0,72.346,18.973A148.781,148.781,0,0,0,171.65,293l.161.987a149.544,149.544,0,0,1-62.375-3.042,147.44,147.44,0,0,1-34.559-14.112ZM200.459,285.2l.358.934a147.612,147.612,0,0,1-19.166,5.893l-.228-.974A146.609,146.609,0,0,0,200.459,285.2Z" transform="translate(1025.104 1192.018)" fill="#ee485f"/><path d="M1858.49,1741.348q-2.886,0-5.793-.238a69.261,69.261,0,0,1-44.982-21.683l.729-.685a68.433,68.433,0,0,0,83.471,12.84,68.717,68.717,0,0,0,27.205-28.016,68.427,68.427,0,0,0-.985-65.277,68.718,68.718,0,0,0-28.016-27.205,68.424,68.424,0,0,0-65.327,1.013,69.009,69.009,0,0,0-10.8,7.531l-.648-.762a69.623,69.623,0,0,1,23.262-13.08,69.426,69.426,0,0,1,65.22,11.765,69.718,69.718,0,0,1,22.6,32.541,69.427,69.427,0,0,1-11.776,65.183,69.718,69.718,0,0,1-32.541,22.6A68.862,68.862,0,0,1,1858.49,1741.348Z" transform="translate(-685.525 -332.916)" fill="#ee485f"/><path d="M26.463-.5a26.97,26.97,0,0,1,10.5,51.807A26.97,26.97,0,0,1,15.968,1.619,26.8,26.8,0,0,1,26.463-.5Zm0,52.926A25.97,25.97,0,0,0,36.569,2.54,25.97,25.97,0,0,0,16.357,50.386,25.8,25.8,0,0,0,26.463,52.426Z" transform="translate(1854.327 259.712)" fill="#ee485f"/><path d="M56.82-.5A57.055,57.055,0,0,1,88.869,9.29a57.486,57.486,0,0,1,20.767,25.219,57.245,57.245,0,0,1-5.285,54.36,57.486,57.486,0,0,1-25.219,20.767,57.245,57.245,0,0,1-54.36-5.285A57.486,57.486,0,0,1,4,79.132,57.245,57.245,0,0,1,9.29,24.772,57.486,57.486,0,0,1,34.508,4,56.962,56.962,0,0,1,56.82-.5Zm0,113.64a56.055,56.055,0,0,0,31.489-9.618,56.486,56.486,0,0,0,20.406-24.78,56.245,56.245,0,0,0-5.193-53.411A56.486,56.486,0,0,0,78.742,4.926a56.245,56.245,0,0,0-53.411,5.193A56.486,56.486,0,0,0,4.926,34.9a56.245,56.245,0,0,0,5.193,53.411A56.486,56.486,0,0,0,34.9,108.715,55.967,55.967,0,0,0,56.82,113.14Z" transform="translate(1682.642 316.493)" fill="#ee485f"/><path d="M164.952-.5v1A163.681,163.681,0,0,0,78.3,25.156l-.528-.849A164.681,164.681,0,0,1,164.952-.5Zm0,0a166.95,166.95,0,0,1,29.93,2.7l-.18.984A165.947,165.947,0,0,0,164.952.5Zm32.885,3.268a165.173,165.173,0,0,1,86.516,47.651l-.722.692a164.879,164.879,0,0,0-38.979-30.042A163.234,163.234,0,0,0,197.639,3.748ZM75.228,25.918l.543.84A165.576,165.576,0,0,0,52.26,45.181l-.685-.728A166.581,166.581,0,0,1,75.228,25.918ZM38.475,58.279l.764.645a163.726,163.726,0,0,0-38.016,90.5l-1-.093A164.726,164.726,0,0,1,38.475,58.279Zm258.257,6.616a165.951,165.951,0,0,1,15.946,25.47l-.892.451A164.954,164.954,0,0,0,295.936,65.5Zm17.28,28.167A164.565,164.565,0,0,1,326.147,127.5a167.1,167.1,0,0,1,2.251,63.293l-.988-.155a166.1,166.1,0,0,0-2.238-62.913A163.565,163.565,0,0,0,313.111,93.5ZM-.026,152.336l1,.075C.658,156.556.5,160.775.5,164.952a167.054,167.054,0,0,0,.9,17.329l-.995.1A168.052,168.052,0,0,1-.5,164.952C-.5,160.75-.341,156.506-.026,152.336Zm4.481,48.628a163.282,163.282,0,0,0,18.276,46.611A164.963,164.963,0,0,0,53.588,285.96l-.677.736a165.962,165.962,0,0,1-31.044-38.618,164.284,164.284,0,0,1-18.388-46.9ZM323.4,209.138l.963.268A164.754,164.754,0,0,1,313.693,237.5l-.9-.439A163.755,163.755,0,0,0,323.4,209.138Zm-11.944,30.6.89.455a166.191,166.191,0,0,1-69.129,70.569l-.474-.881a165.19,165.19,0,0,0,68.712-70.144ZM55.807,287.966A165.429,165.429,0,0,0,79.843,305.7l-.518.855a166.425,166.425,0,0,1-24.182-17.838Zm40.766,26.593a163.579,163.579,0,0,0,32.848,11,166.089,166.089,0,0,0,64.568,1.293l.175.984a167.089,167.089,0,0,1-64.959-1.3,164.582,164.582,0,0,1-33.049-11.065Zm129.008,3.309.369.93a164.682,164.682,0,0,1-28.829,8.482l-.193-.981A163.677,163.677,0,0,0,225.582,317.868Z" transform="translate(1576.104 209.07)" fill="#ee485f"/><path d="M517.057-.5v1c-13.011,0-26.156.49-39.07,1.455l-.075-1C490.851-.009,504.021-.5,517.057-.5Zm0,0c16.819,0,33.787.816,50.432,2.426,16.415,1.588,32.92,3.985,49.057,7.128l-.191.982c-16.106-3.136-32.58-5.53-48.963-7.114C550.779,1.315,533.844.5,517.057.5ZM448.042,4.061l.132.991c-16.57,2.208-33.206,5.257-49.445,9.063-16.042,3.76-32.085,8.348-47.683,13.638l-.321-.947c15.628-5.3,31.7-9.9,47.776-13.665C414.772,9.329,431.44,6.274,448.042,4.061Zm197.8,11.588a515.55,515.55,0,0,1,57.177,18.263l-.359.933a514.551,514.551,0,0,0-57.066-18.228ZM341.28,30.114l.339.94c-6.235,2.251-12.511,4.656-18.655,7.149l-.376-.927C328.744,34.78,335.033,32.37,341.28,30.114ZM721.555,41.47c3.05,1.313,6.131,2.675,9.155,4.048l-.413.911c-3.019-1.37-6.093-2.729-9.138-4.04ZM268.376,63.049l.481.877c-8.716,4.784-17.409,9.89-25.84,15.177l-.531-.847C250.933,72.958,259.643,67.842,268.376,63.049ZM817.293,95.435c8.11,5.786,16.161,11.888,23.929,18.136l-.627.779c-7.753-6.236-15.788-12.327-23.883-18.1ZM163.317,139.254l.684.73c-2.419,2.266-4.85,4.587-7.225,6.9l-.7-.717C158.458,143.85,160.893,141.524,163.317,139.254Zm722.427,14.575c4.663,4.732,9.3,9.62,13.773,14.527l-.739.674c-4.468-4.9-9.093-9.776-13.747-14.5ZM142,160.4l.725.689a521.3,521.3,0,0,0-38.72,45.717l-.8-.6A522.318,522.318,0,0,1,142,160.4Zm764.187,15.413c10.95,12.477,21.417,25.627,31.11,39.085,9.734,13.514,18.914,27.653,27.285,42.024l-.864.5c-8.355-14.344-17.518-28.455-27.232-41.943-9.675-13.432-20.122-26.557-31.05-39.01Zm-820.331,54.9.833.554C77.526,245.044,68.93,259.42,61.143,274c-7.844,14.682-15.051,29.912-21.421,45.268l-.924-.383c6.383-15.385,13.6-30.645,21.463-45.356C68.063,258.92,76.676,244.516,85.861,230.712ZM978.939,283.3a516.585,516.585,0,0,1,23.981,55.026l-.939.345a515.559,515.559,0,0,0-23.935-54.919ZM35.054,328.161l.931.365C33.564,334.7,31.232,341,29.053,347.266l-.944-.328C30.291,340.664,32.628,334.346,35.054,328.161Zm974.414,29.08c1.025,3.159,2.032,6.373,3,9.552l-.957.29c-.961-3.173-1.967-6.38-2.989-9.533ZM11.733,404.687l.976.216c-2.148,9.7-4.039,19.606-5.621,29.431l-.987-.159C7.685,424.331,9.58,414.41,11.733,404.687ZM1032.008,464.8c.992,9.9,1.71,19.974,2.133,29.945l-1,.042c-.422-9.951-1.138-20.007-2.129-29.887ZM.77,533.9c.106,3.313.246,6.67.415,9.977l-1,.051c-.169-3.313-.309-6.676-.416-10Zm1031.493,20.8,1,.072c-.478,6.633-1.091,13.342-1.822,19.94l-.994-.11C1031.173,568.023,1031.785,561.327,1032.262,554.706ZM2.588,563.813a517.971,517.971,0,0,0,8.8,59.258l-.979.2A518.964,518.964,0,0,1,1.592,563.9Zm1026.659,20.712.992.129c-2.167,16.61-5.176,33.287-8.944,49.568-3.722,16.083-8.275,32.169-13.532,47.811l-.948-.319c5.247-15.612,9.791-31.666,13.505-47.718C1024.081,617.747,1027.084,601.1,1029.247,584.525ZM18.362,652.214c4.349,16.084,9.546,32.142,15.447,47.726,5.843,15.43,12.514,30.763,19.828,45.572l-.9.443c-7.329-14.838-14.013-30.2-19.867-45.661-5.913-15.615-11.12-31.7-15.477-47.819Zm978.081,57.616.928.373a517.134,517.134,0,0,1-25.621,54.282l-.878-.479A516.132,516.132,0,0,0,996.443,709.829Zm-938.294,44.6c3.05,5.885,6.259,11.792,9.537,17.557l-.869.494c-3.284-5.777-6.5-11.7-9.555-17.592Zm902.819,26.931.859.512c-1.7,2.851-3.455,5.726-5.211,8.545l-.849-.529C957.52,787.074,959.27,784.2,960.968,781.359Zm-860.7,40.9c5.881,8.018,12.077,15.972,18.415,23.641l-.771.637c-6.35-7.684-12.558-15.654-18.45-23.687ZM895.1,869.071l.732.682c-6.793,7.292-13.889,14.482-21.091,21.37l-.691-.723C881.24,883.525,888.322,876.349,895.1,869.071ZM189.31,916.341c2.561,2.1,5.179,4.214,7.779,6.269l-.62.785c-2.606-2.059-5.228-4.172-7.794-6.281Zm639.132,12.9.6.8c-5.3,4.009-10.746,7.968-16.193,11.768l-.572-.82C817.716,937.2,823.154,933.247,828.442,929.246ZM213,934.691a519.091,519.091,0,0,0,50.366,32.44l-.492.871a520.108,520.108,0,0,1-50.464-32.5Zm591.03,11.937.556.831c-13.779,9.224-28.159,17.877-42.742,25.719-14.688,7.9-29.927,15.162-45.294,21.587l-.386-.923c15.337-6.412,30.547-13.661,45.206-21.545C775.927,964.47,790.28,955.834,804.032,946.628ZM289.878,981.1c14.829,7.273,30.179,13.9,45.625,19.7,15.6,5.858,31.673,11.01,47.771,15.315l-.258.966c-16.129-4.313-32.233-9.475-47.864-15.345C319.676,995.932,304.3,989.29,289.438,982Zm398.313,23.485.331.944a515.608,515.608,0,0,1-57.7,16.537l-.219-.976A514.634,514.634,0,0,0,688.192,1004.59Zm-295.239,14.018c6.435,1.587,12.99,3.069,19.485,4.4l-.2.979c-6.508-1.339-13.076-2.823-19.523-4.413Zm218.076,6.478.181.984c-3.266.6-6.584,1.177-9.862,1.714l-.162-.987C604.457,1026.261,607.769,1025.685,611.028,1025.086Zm-139.31,6.565c9.894.86,19.96,1.445,29.92,1.736l-.029,1c-9.978-.292-20.064-.878-29.977-1.74Z" transform="translate(1084.106 410.397)" fill="#ee485f"/><path d="M571.566-.5A580.175,580.175,0,0,1,641.46,3.727l-.121.993A579.176,579.176,0,0,0,571.566.5Zm-1.682,0,0,1a578.889,578.889,0,0,0-69.756,4.422l-.124-.992A579.868,579.868,0,0,1,569.884-.5Zm81.505,5.522c15.217,2.125,30.521,4.9,45.487,8.242,14.813,3.31,29.671,7.265,44.162,11.753,14.359,4.447,28.721,9.532,42.686,15.112,13.855,5.536,27.669,11.7,41.057,18.319,13.3,6.577,26.516,13.768,39.277,21.374,12.7,7.568,25.261,15.737,37.345,24.278,12.041,8.512,23.9,17.606,35.261,27.03,11.334,9.406,22.446,19.375,33.025,29.63l-.7.718c-10.561-10.237-21.653-20.189-32.968-29.579-11.336-9.408-23.179-18.486-35.2-26.983-12.062-8.527-24.6-16.681-37.279-24.236-12.738-7.593-25.93-14.772-39.208-21.337-13.364-6.608-27.154-12.76-40.985-18.287-13.94-5.57-28.276-10.645-42.61-15.085-14.465-4.48-29.3-8.428-44.084-11.732-14.94-3.339-30.217-6.107-45.407-8.228ZM179.468,155.008l.686.728c-2.413,2.273-4.841,4.6-7.214,6.912l-.7-.716C174.619,159.615,177.05,157.285,179.468,155.008Zm837.439,57.456c2.086,2.584,4.179,5.222,6.219,7.842l-.789.615c-2.037-2.615-4.126-5.249-6.208-7.828Zm-891.733,1.307.78.626c-9.148,11.4-17.965,23.293-26.205,35.35-8.271,12.1-16.168,24.674-23.473,37.365C68.933,299.87,62,313.07,55.683,326.345,49.319,339.709,43.41,353.487,38.118,367.3A568.427,568.427,0,0,0,1.091,545.35l-1-.045A569.419,569.419,0,0,1,37.184,366.939c5.3-13.834,11.221-27.637,17.6-41.024,6.333-13.3,13.273-26.521,20.629-39.3,7.317-12.713,15.228-25.306,23.514-37.43C107.177,237.1,116.009,225.191,125.174,213.771ZM1143.357,553.627c.183,5.944.276,11.98.276,17.939,0,17.356-.786,34.873-2.337,52.065l-1-.09c1.548-17.162,2.333-34.649,2.333-51.975,0-5.95-.093-11.975-.275-17.909ZM-.273,555.307l1,.028C.576,560.714.5,566.175.5,571.566c0,17.885.836,35.933,2.486,53.641l-1,.093C.338,607.561-.5,589.483-.5,571.566-.5,566.166-.424,560.7-.273,555.307Zm1139.589,78.177.994.107c-1.652,15.321-3.95,30.744-6.831,45.842-2.85,14.938-6.344,29.938-10.383,44.583-4,14.506-8.638,29.031-13.784,43.172-5.1,14.024-10.834,28.024-17.034,41.611-6.157,13.492-12.931,26.916-20.134,39.9-7.163,12.91-14.929,25.708-23.083,38.037-8.12,12.278-16.828,24.4-25.881,36.023-9.03,11.6-18.629,22.987-28.529,33.86l-.739-.673c9.883-10.853,19.465-22.226,28.48-33.8,9.037-11.6,17.73-23.7,25.836-35.961,8.14-12.307,15.892-25.082,23.043-37.97,7.19-12.96,13.952-26.361,20.1-39.829,6.189-13.563,11.911-27.539,17-41.538,5.136-14.116,9.766-28.616,13.76-43.1,4.032-14.619,7.519-29.593,10.364-44.5C1135.372,664.174,1137.666,648.778,1139.315,633.484ZM143.668,949.756c2.2,2.483,4.445,4.981,6.684,7.426l-.737.675c-2.243-2.449-4.5-4.952-6.7-7.439Zm800.125,54.911.652.758c-2.518,2.166-5.09,4.34-7.644,6.461l-.639-.769C938.712,1009,941.28,1006.828,943.793,1004.666Zm-743.182,1.091c11.133,9.521,22.772,18.724,34.6,27.355,11.861,8.658,24.2,16.957,36.683,24.666,12.539,7.745,25.534,15.089,38.622,21.828,13.169,6.781,26.765,13.12,40.411,18.841a567.5,567.5,0,0,0,176.558,42.51l-.076,1a568.505,568.505,0,0,1-176.869-42.584c-13.67-5.731-27.29-12.082-40.482-18.874-13.111-6.751-26.128-14.108-38.689-21.866-12.5-7.722-24.866-16.036-36.747-24.709-11.844-8.646-23.5-17.866-34.656-27.4Zm406.75,135.772.062,1c-11.861.733-23.925,1.105-35.856,1.105-11.372,0-22.872-.338-34.181-1l.059-1c11.289.665,22.769,1,34.122,1C583.478,1142.633,595.521,1142.262,607.361,1141.529Z" transform="translate(1029.596 355.887)" fill="#ee485f"/><path d="M927.454-.5v1c-2.673,0-5.383.012-8.055.034l-.008-1C922.065-.489,924.778-.5,927.454-.5Zm0,0c9.975,0,20.077.16,30.024.477l-.032,1C947.509.66,937.418.5,927.454.5ZM879.4.723l.051,1c-9.948.507-20.016,1.183-29.925,2.008l-.083-1C859.362,1.907,869.441,1.231,879.4.723ZM997.43,2.1c28.42,2.119,57.03,5.581,85.035,10.291,27.659,4.651,55.414,10.634,82.493,17.783l-.255.967c-27.05-7.141-54.774-13.117-82.4-17.764-27.975-4.7-56.554-8.163-84.944-10.28ZM839.481,3.616l.094,1c-28.326,2.664-56.822,6.675-84.7,11.924-27.537,5.185-55.147,11.7-82.064,19.378l-.274-.962c26.947-7.682,54.587-14.209,82.153-19.4C782.6,10.3,811.125,6.282,839.481,3.616Zm335.13,29.161c9.6,2.647,19.3,5.49,28.809,8.449l-.3.955c-9.5-2.955-19.184-5.8-28.777-8.439ZM634.3,46.756l.316.949c-9.44,3.141-18.96,6.481-28.294,9.928l-.347-.938C615.325,53.244,624.854,49.9,634.3,46.756Zm607.057,7.183c26.651,9.579,53.183,20.526,78.858,32.538,25.471,11.916,50.71,25.166,75.016,39.381l-.5.863c-24.28-14.2-49.492-27.435-74.935-39.338-25.648-12-52.151-22.934-78.773-32.5ZM596.619,60.21l.357.934c-26.422,10.085-52.7,21.535-78.106,34.03-25.212,12.4-50.168,26.129-74.174,40.8l-.521-.853c24.032-14.69,49.015-28.432,74.255-40.847C543.861,81.768,570.168,70.306,596.619,60.21Zm807.23,70.747c8.54,5.119,17.117,10.45,25.491,15.845l-.542.841c-8.365-5.389-16.932-10.715-25.463-15.828Zm-993.363,25.77.558.83c-8.255,5.548-16.535,11.309-24.61,17.123l-.584-.812C393.933,168.048,402.222,162.281,410.486,156.727Zm1052.022,12.468c23.062,16.3,45.656,33.876,67.154,52.23,21.457,18.319,42.329,37.85,62.036,58.048l-.716.7c-19.686-20.177-40.536-39.687-61.97-57.986-21.475-18.335-44.045-35.889-67.082-52.174ZM377.759,179.759l.593.805c-22.714,16.728-44.936,34.712-66.048,53.454-21.081,18.715-41.553,38.627-60.848,59.183l-.729-.684c19.315-20.578,39.809-40.512,60.913-59.247C332.775,214.508,355.02,196.5,377.759,179.759ZM1598.647,286.672c6.879,7.2,13.735,14.617,20.378,22.037l-.745.667c-6.636-7.412-13.484-14.818-20.356-22.014Zm-1374.676,35.6.758.653c-6.492,7.54-12.951,15.29-19.2,23.033l-.778-.628C211.006,337.582,217.472,329.824,223.971,322.276Zm1421.1,16.814c17.894,21.8,34.987,44.674,50.807,67.988,15.891,23.421,30.875,47.843,44.534,72.589l-.875.483c-13.645-24.719-28.612-49.115-44.486-72.511-15.8-23.289-32.878-46.139-50.752-67.915ZM198.515,353.156l.785.62c-17.447,22.115-34.073,45.286-49.417,68.872-15.42,23.7-29.913,48.392-43.075,73.376l-.885-.466c13.176-25.012,27.685-49.726,43.122-73.455C164.405,398.491,181.049,375.294,198.515,353.156ZM1745.2,488.451c4.72,8.774,9.36,17.745,13.791,26.663l-.9.445c-4.426-8.908-9.061-17.87-13.776-26.634ZM88.042,531.358l.9.427c-4.253,9-8.415,18.186-12.372,27.313l-.917-.4C79.618,549.564,83.785,540.365,88.042,531.358Zm1687.974,19.97c11.4,25.69,21.747,52.207,30.74,78.815,9.084,26.877,17.015,54.505,23.572,82.117l-.973.231c-6.55-27.582-14.472-55.181-23.546-82.028-8.984-26.579-19.315-53.067-30.706-78.729ZM71.729,567.9l.922.388C61.767,594.158,51.959,620.836,43.5,647.581c-8.548,27.024-15.931,54.781-21.941,82.5l-.977-.212c6.017-27.748,13.408-55.535,21.965-82.588C51.015,620.506,60.833,593.8,71.729,567.9ZM1832.588,722.014c2.195,9.71,4.26,19.594,6.139,29.376l-.982.189c-1.877-9.772-3.94-19.645-6.132-29.345ZM12.948,769.158l.985.169c-1.684,9.8-3.231,19.763-4.6,29.619l-.99-.137C9.714,788.942,11.262,778.966,12.948,769.158Zm1832.476,21.694c3.291,22.309,5.8,45.058,7.458,67.616,1.676,22.8,2.526,46.014,2.526,68.986,0,10.97-.194,22.078-.576,33.015l-1-.035c.382-10.925.576-22.022.576-32.981,0-22.948-.849-46.133-2.523-68.913-1.656-22.533-4.163-45.258-7.45-67.543ZM7.024,808.732l.992.127c-2.48,19.418-4.37,39.2-5.618,58.792-1.26,19.78-1.9,39.9-1.9,59.8,0,16.961.464,34.117,1.379,50.992l-1,.054C-.036,961.607-.5,944.433-.5,927.454c0-19.924.639-40.066,1.9-59.867C2.649,847.973,4.541,828.171,7.024,808.732ZM1853.43,970.414l1,.046c-.454,9.958-1.076,20.038-1.848,29.959l-1-.078C1852.355,990.43,1852.976,980.361,1853.43,970.414ZM4.9,1018.3c.964,9.911,2.1,19.937,3.385,29.8l-.992.129C6,1038.356,4.865,1028.32,3.9,1018.4Zm1842.735,21.816.993.12c-3.423,28.254-8.2,56.65-14.208,84.4-5.934,27.423-13.21,54.89-21.625,81.637l-.954-.3c8.406-26.718,15.674-54.155,21.6-81.548C1839.435,1096.706,1844.211,1068.341,1847.63,1040.117ZM9.622,1058c3.966,28.136,9.292,56.392,15.83,83.985,6.463,27.276,14.269,54.573,23.2,81.132l-.948.319c-8.942-26.589-16.757-53.915-23.227-81.221-6.545-27.623-11.877-55.91-15.847-84.075Zm1799.164,157.48.951.311c-3.093,9.468-6.384,19.017-9.784,28.381l-.94-.341C1802.409,1234.482,1805.7,1224.943,1808.786,1215.485ZM62.215,1260.724c3.578,9.283,7.359,18.636,11.238,27.8l-.921.39c-3.883-9.174-7.669-18.537-11.25-27.83Zm1722.342,20.38.924.382c-10.8,26.157-22.969,52.136-36.156,77.216-13.094,24.9-27.508,49.514-42.843,73.15l-.839-.544c15.318-23.61,29.717-48.194,42.8-73.071C1761.613,1333.183,1773.765,1307.232,1784.557,1281.1ZM77.4,1297.7c11.3,25.906,23.953,51.61,37.608,76.4,13.565,24.623,28.443,48.929,44.221,72.242l-.828.561c-15.794-23.338-30.688-47.671-44.268-72.32-13.67-24.814-26.338-50.545-37.649-76.479Zm1622.76,141.961.833.553c-5.509,8.294-11.231,16.615-17.008,24.731l-.815-.58C1688.939,1456.26,1694.655,1447.948,1700.158,1439.663Zm-1517.819,39.3c5.924,7.99,12.061,16,18.242,23.794l-.784.621c-6.187-7.806-12.331-15.82-18.261-23.819Zm1476.953,17.472.789.615c-17.346,22.279-35.934,44.03-55.248,64.649-19.3,20.6-39.777,40.562-60.867,59.322l-.665-.747c21.067-18.74,41.524-38.678,60.8-59.258C1623.4,1540.413,1641.965,1518.685,1659.293,1496.43ZM206.832,1510.552c17.753,21.913,36.735,43.274,56.418,63.49s40.518,39.751,61.946,58.082l-.65.76c-21.451-18.35-42.315-37.913-62.012-58.144s-38.706-41.622-56.479-63.558ZM1535.8,1626.872l.657.754c-7.513,6.54-15.235,13.047-22.952,19.34l-.632-.775C1520.58,1639.905,1528.294,1633.405,1535.8,1626.872ZM356.123,1657.454c7.832,6.138,15.871,12.232,23.893,18.113l-.591.807c-8.031-5.887-16.079-11.987-23.919-18.132Zm1125.231,13.332.6.8c-22.593,16.863-46.222,32.875-70.229,47.591-24.142,14.8-49.245,28.64-74.61,41.14l-.442-.9c25.338-12.487,50.413-26.313,74.53-41.1C1435.182,1703.625,1458.786,1687.63,1481.355,1670.786ZM388.11,1681.433c22.887,16.4,46.791,31.931,71.048,46.158,24.4,14.314,49.749,27.652,75.331,39.643l-.425.905c-25.61-12-50.983-25.357-75.413-39.686-24.283-14.243-48.213-29.789-71.125-46.208Zm939.575,82.356.433.9c-8.984,4.307-18.161,8.525-27.276,12.535l-.4-.915C1309.545,1772.3,1318.712,1768.091,1327.685,1763.789Zm-756.642,19.623c9.185,3.829,18.559,7.559,27.861,11.085l-.354.935c-9.312-3.531-18.7-7.264-27.892-11.1Zm692.468,8.2.363.932c-26.17,10.184-53.121,19.272-80.107,27.011-27.28,7.824-55.267,14.462-83.185,19.73l-.186-.983c27.887-5.263,55.845-11.893,83.095-19.708C1210.448,1810.864,1237.37,1801.786,1263.511,1791.613Zm-655.246,6.375c26.325,9.655,53.412,18.2,80.511,25.4,27.4,7.281,55.493,13.366,83.492,18.085l-.166.986c-28.03-4.724-56.151-10.816-83.583-18.1-27.128-7.208-54.245-15.764-80.6-25.43Zm482.3,42.116.175.985c-9.8,1.74-19.772,3.344-29.635,4.766l-.143-.99C1070.81,1843.444,1080.77,1841.842,1090.562,1840.1Zm-278.734,7.162c9.864,1.227,19.89,2.311,29.8,3.221l-.091,1c-9.922-.911-19.959-2-29.833-3.224Zm209.449,2.452.1.995c-15.43,1.551-31.127,2.732-46.654,3.511-15.646.785-31.549,1.183-47.268,1.183-25.3,0-50.856-1.031-75.949-3.063l.081-1c25.067,2.031,50.593,3.06,75.868,3.06C958.752,1854.408,990.319,1852.83,1021.276,1849.718Z" transform="translate(673.709)" fill="#ee485f"/></g><path d="M1887.624,1090.4-.25.433l.5-.866L1888.123,1089.531Z" transform="translate(651.228 61.205)" fill="#ee485f"/><path d="M2658.382,469.252-.087.492.087-.492l2658.469,468.76Z" transform="translate(688.535 539.07)" fill="#ee485f"/><path d="M.087,422.03l-.174-.985L2390.573-.492l.174.985Z" transform="translate(769.261 504.585)" fill="#ee485f"/><path d="M.349,981.535l-.7-.717L1008.308-.358l.7.717Z" transform="translate(1328.63 242.393)" fill="#ee485f"/></g></g></g></svg>