<?xml version="1.0" encoding="UTF-8" standalone="no"?><svg id="bf555af3-ce5e-4df7-8049-4182e21e4594" data-name="Calque 1" xmlns="http://www.w3.org/2000/svg" viewBox="0 0 64 64"><defs><style>.a4cc1eb1-a386-493b-bf65-c473807ae5d0,.a83d0650-9135-4330-b6a0-8ae48fa1e98c,.eaf0a7c5-e8da-4f70-ba5f-e5e8a3a79f74{fill:#4e21e7;}.a83d0650-9135-4330-b6a0-8ae48fa1e98c,.eaf0a7c5-e8da-4f70-ba5f-e5e8a3a79f74{isolation:isolate;}.a83d0650-9135-4330-b6a0-8ae48fa1e98c{opacity:0.1;}.eaf0a7c5-e8da-4f70-ba5f-e5e8a3a79f74{opacity:0.3;}</style></defs><g id="ae0f1df7-751c-4fc2-ab68-b2d23b3df8ce" data-name="Groupe 1478"><g id="a1fd0d81-79dd-4e93-b72c-708af29f6f06" data-name="Picto-2"><g id="ae1d5a40-8206-49f2-9ef8-7fce7d22b594" data-name="ico-blog-2"><rect id="a1f706c1-2c12-4c68-8555-3f7a03862551" data-name="Conteneur Picto-6" class="a83d0650-9135-4330-b6a0-8ae48fa1e98c" x="2" y="2" width="60" height="60" rx="5"/><path id="bdea4bec-f6d7-42ba-9291-67872ce39b0a" data-name="Tracé 525" class="a4cc1eb1-a386-493b-bf65-c473807ae5d0" d="M20.32,25.8h6.25a3,3,0,0,1,3,3v6.25a3,3,0,0,1-3,3H20.32a3,3,0,0,1-3-3V28.8A3,3,0,0,1,20.32,25.8Z"/><path id="a009361b-a5f6-484c-867f-3553dc5db0eb" data-name="Tracé 523" class="eaf0a7c5-e8da-4f70-ba5f-e5e8a3a79f74" d="M40.29,36.48H34.17a1.5,1.5,0,0,1,0-3h6.12a1.5,1.5,0,0,1,0,3Z"/><path id="bbb7ceee-3cb9-4178-9d98-0b640edb266d" data-name="Tracé 524" class="eaf0a7c5-e8da-4f70-ba5f-e5e8a3a79f74" d="M46.42,30.36H34.17a1.5,1.5,0,0,1,0-3H46.42a1.5,1.5,0,0,1,0,3Z"/></g></g></g></svg>