<?xml version="1.0" encoding="UTF-8" standalone="no"?><svg id="a92b5328-8795-475a-b496-8dee6b40a03a" data-name="Calque 1" xmlns="http://www.w3.org/2000/svg" viewBox="0 0 64 64"><defs><style>.a9218f7c-9541-4eb6-a61f-09bc2a357cba,.e4e8b024-efd2-45d8-b38a-b2070a4b2e58,.fb3a997b-e601-4252-83ae-603fb6c38957{fill:#4e21e7;}.a9218f7c-9541-4eb6-a61f-09bc2a357cba,.e4e8b024-efd2-45d8-b38a-b2070a4b2e58{isolation:isolate;}.e4e8b024-efd2-45d8-b38a-b2070a4b2e58{opacity:0.1;}.a9218f7c-9541-4eb6-a61f-09bc2a357cba{opacity:0.3;}</style></defs><rect id="aeded54f-bac5-47f2-a36e-dfab621dad43" data-name="Conteneur Picto-12" class="e4e8b024-efd2-45d8-b38a-b2070a4b2e58" x="2" y="2" width="60" height="60" rx="5"/><path class="fb3a997b-e601-4252-83ae-603fb6c38957" d="M41.49,45.5l-8.17-8.17-.43-3.73.2-.2,3.73.42L45,42c.7.7.47,2-.5,3h0C43.52,46,42.18,46.19,41.49,45.5Z"/><circle class="fb3a997b-e601-4252-83ae-603fb6c38957" cx="27.1" cy="30.31" r="1.3"/><circle class="fb3a997b-e601-4252-83ae-603fb6c38957" cx="31.72" cy="30.31" r="1.3"/><circle class="fb3a997b-e601-4252-83ae-603fb6c38957" cx="36.34" cy="30.31" r="1.3"/><path id="f0e523d1-58f3-4060-801a-88caecdb21b1" data-name="Tracé 507" class="a9218f7c-9541-4eb6-a61f-09bc2a357cba" d="M31.7,42.76H23.06a3.61,3.61,0,0,1-3.61-3.6V30.63A12.69,12.69,0,0,1,31.88,17.86h0A12.47,12.47,0,0,1,44.36,30.31,12.7,12.7,0,0,1,31.7,42.76Z"/></svg>