<?xml version="1.0" encoding="UTF-8" standalone="no"?><svg id="fc4d2d0e-f615-4237-ad88-8b8c5e8ac9c8" data-name="Calque 1" xmlns="http://www.w3.org/2000/svg" viewBox="0 0 64 64"><defs><style>.a6401d51-45ed-4210-9e49-ae2703ab2aaf,.bb5cbd68-872f-41ea-a556-0b9ca770db84,.bd3b21aa-2080-4ae8-9ab2-ece74c6e1067{fill:#4e21e7;}.a6401d51-45ed-4210-9e49-ae2703ab2aaf,.bb5cbd68-872f-41ea-a556-0b9ca770db84{isolation:isolate;}.bb5cbd68-872f-41ea-a556-0b9ca770db84{opacity:0.1;}.a6401d51-45ed-4210-9e49-ae2703ab2aaf{opacity:0.3;}</style></defs><rect id="ae6ff10a-69b4-4c30-b619-a57e63b80deb" data-name="Conteneur Picto-12" class="bb5cbd68-872f-41ea-a556-0b9ca770db84" x="2" y="2" width="60" height="60" rx="5"/><path class="a6401d51-45ed-4210-9e49-ae2703ab2aaf" d="M40.7,35.78H39.32a1.82,1.82,0,0,1-1.69-1.21c-.08-.21-.17-.42-.26-.63a1.81,1.81,0,0,1,.33-2.06l1-1a.71.71,0,0,0,0-1l-2-2a.71.71,0,0,0-1,0l-1,1a1.81,1.81,0,0,1-2.06.33L32,28.94a1.82,1.82,0,0,1-1.21-1.69V25.88a.73.73,0,0,0-.73-.73h-2.8a.73.73,0,0,0-.73.73v1.37a1.82,1.82,0,0,1-1.21,1.69l-.63.26a1.82,1.82,0,0,1-2.07-.33l-1-1a.71.71,0,0,0-1,0l-2,2a.72.72,0,0,0,0,1l1,1A1.82,1.82,0,0,1,20,33.94c-.09.21-.18.42-.26.63A1.82,1.82,0,0,1,18,35.78H16.62a.73.73,0,0,0-.72.73v2.8a.73.73,0,0,0,.72.73H18a1.82,1.82,0,0,1,1.69,1.21c.08.21.17.42.26.63A1.82,1.82,0,0,1,19.62,44l-1,1a.72.72,0,0,0,0,1l2,2a.72.72,0,0,0,1,0l1-1a1.84,1.84,0,0,1,2.07-.33l.63.26a1.82,1.82,0,0,1,1.21,1.7V50a.73.73,0,0,0,.73.72h2.8a.73.73,0,0,0,.73-.72V48.57A1.82,1.82,0,0,1,32,46.88l.63-.26A1.84,1.84,0,0,1,34.7,47l1,1a.72.72,0,0,0,1,0l2-2a.71.71,0,0,0,0-1l-1-1a1.82,1.82,0,0,1-.33-2.07c.09-.21.18-.42.26-.63A1.82,1.82,0,0,1,39.32,40h2.1V36.51A.73.73,0,0,0,40.7,35.78Zm-12,6.92a4.79,4.79,0,1,1,4.78-4.79A4.79,4.79,0,0,1,28.66,42.7Z"/><path class="bd3b21aa-2080-4ae8-9ab2-ece74c6e1067" d="M47.65,20h-.86a1.12,1.12,0,0,1-1-.76c-.05-.13-.11-.26-.17-.39a1.14,1.14,0,0,1,.21-1.29l.61-.6a.47.47,0,0,0,0-.64L45.15,15a.45.45,0,0,0-.64,0l-.6.61a1.14,1.14,0,0,1-1.29.21l-.39-.17a1.14,1.14,0,0,1-.76-1v-.86a.45.45,0,0,0-.45-.45H39.27a.45.45,0,0,0-.45.45v.86a1.13,1.13,0,0,1-.76,1l-.39.17a1.14,1.14,0,0,1-1.29-.21L35.77,15a.45.45,0,0,0-.64,0L33.9,16.28a.45.45,0,0,0,0,.64l.6.6a1.14,1.14,0,0,1,.21,1.29c-.06.13-.11.26-.16.39a1.14,1.14,0,0,1-1.06.76h-.86a.45.45,0,0,0-.45.45v1.75a.45.45,0,0,0,.45.45h.86a1.14,1.14,0,0,1,1.06.76c.05.13.1.26.16.39a1.14,1.14,0,0,1-.21,1.29l-.6.61a.45.45,0,0,0,0,.64l1.23,1.23a.45.45,0,0,0,.64,0l.61-.6a1.14,1.14,0,0,1,1.29-.21l.39.16a1.14,1.14,0,0,1,.76,1.06v.85a.46.46,0,0,0,.45.46H41a.46.46,0,0,0,.45-.46v-.85a1.14,1.14,0,0,1,.76-1.06l.39-.16a1.14,1.14,0,0,1,1.29.21l.6.6a.45.45,0,0,0,.64,0l1.24-1.23a.47.47,0,0,0,0-.64l-.61-.61a1.14,1.14,0,0,1-.21-1.29c.06-.13.12-.26.17-.39a1.13,1.13,0,0,1,1-.76H48.1v-2.2A.45.45,0,0,0,47.65,20Zm-7.51,4.31a3,3,0,1,1,3-3A3,3,0,0,1,40.14,24.27Z"/></svg>