<?xml version="1.0" encoding="UTF-8"?><svg id="Calque_1" xmlns="http://www.w3.org/2000/svg" viewBox="0 0 64 64"><defs><style>.cls-1,.cls-2,.cls-3{fill:#ee485f;}.cls-2{opacity:.3;}.cls-2,.cls-3{isolation:isolate;}.cls-3{opacity:.1;}</style></defs><g id="Features"><g><rect id="Conteneur_Picto-19" class="cls-3" x="2" y="2" width="60" height="60" rx="5" ry="5"/><g id="ico-migrate-2"><path id="Tracé_461" class="cls-1" d="M43.69,31.16c.46,.3,.6,.92,.3,1.38-.08,.12-.18,.22-.3,.3l-11.15,7.17c-.46,.3-1.08,.16-1.38-.3-.1-.16-.16-.35-.16-.54v-14.34c0-.55,.45-1,1-1,.19,0,.38,.06,.54,.16l11.15,7.17Z"/><path id="Tracé_460" class="cls-2" d="M32.57,31.14c.47,.28,.63,.9,.34,1.37-.08,.14-.2,.26-.34,.34l-12.06,7.23c-.47,.28-1.09,.13-1.37-.34-.09-.16-.14-.33-.14-.52v-14.47c0-.55,.45-1,1-1,.18,0,.36,.05,.51,.14l12.06,7.23Z"/></g></g></g></svg>