<?xml version="1.0" encoding="UTF-8" standalone="no"?><svg xmlns="http://www.w3.org/2000/svg" width="80" height="80" viewBox="0 0 80 80"><rect width="80" height="80" rx="5" fill="#334eff" opacity="0.1"/><path d="M4,0h8.333a4,4,0,0,1,4,4v8.333a4,4,0,0,1-4,4H4a4,4,0,0,1-4-4V4A4,4,0,0,1,4,0Z" transform="translate(20.432 31.727)" fill="#334eff"/><path d="M1116.691,357.425h-8.167a2,2,0,0,1,0-4h8.167a2,2,0,1,1,0,4Z" transform="translate(-1065.636 -311.45)" fill="#334eff" opacity="0.3"/><path d="M1124.856,351.3h-16.331a2,2,0,1,1,0-4h16.331a2,2,0,1,1,0,4Z" transform="translate(-1065.635 -313.491)" fill="#334eff" opacity="0.3"/></svg>