<?xml version="1.0" encoding="UTF-8" standalone="no"?>
<svg
   width="80"
   height="80"
   viewBox="0 0 80 80"
   version="1.1"
   id="svg373"
   sodipodi:docname="ico-guide.svg"
   inkscape:export-filename="ico-guide.svg"
   inkscape:export-xdpi="96"
   inkscape:export-ydpi="96"
   inkscape:version="1.2.2 (b0a8486541, 2022-12-01)"
   xmlns:inkscape="http://www.inkscape.org/namespaces/inkscape"
   xmlns:sodipodi="http://sodipodi.sourceforge.net/DTD/sodipodi-0.dtd"
   xmlns="http://www.w3.org/2000/svg"
   xmlns:svg="http://www.w3.org/2000/svg">
  <defs
     id="defs377" />
  <sodipodi:namedview
     id="namedview375"
     pagecolor="#ffffff"
     bordercolor="#000000"
     borderopacity="0.25"
     inkscape:showpageshadow="2"
     inkscape:pageopacity="0.0"
     inkscape:pagecheckerboard="0"
     inkscape:deskcolor="#d1d1d1"
     showgrid="false"
     inkscape:zoom="5.4346656"
     inkscape:cx="-7.5441625"
     inkscape:cy="31.55668"
     inkscape:window-width="1920"
     inkscape:window-height="1128"
     inkscape:window-x="0"
     inkscape:window-y="42"
     inkscape:window-maximized="1"
     inkscape:current-layer="svg373" />
  <rect
     width="80"
     height="80"
     rx="5"
     fill="#4e21e7"
     opacity="0.1"
     id="rect365"
     style="fill:#334eff;fill-opacity:1;opacity:0.1" />
  <path
     d="M 48.793569,61.882 H 28.51752 A 6.5237023,6.5237023 0 0 1 22.000335,55.364815 V 26.399185 A 6.5247886,6.5247886 0 0 1 28.51752,19.882 h 20.276049 a 6.5237023,6.5237023 0 0 1 6.517186,6.517185 v 28.96563 A 6.5237023,6.5237023 0 0 1 48.793569,61.882 Z"
     fill="#4e21e7"
     opacity="0.3"
     id="path367"
     style="fill:#334eff;fill-opacity:1;stroke-width:1.0862" />
  <path
     d="m 37.42848,32.2 h -6.85696 a 2.5715205,2.1 0 0 1 0,-4.2 h 6.85696 a 2.5715205,2.1 0 0 1 0,4.2 z"
     fill="#4e21e7"
     id="path369"
     style="fill:#334eff;fill-opacity:1;stroke-width:1.16192" />
  <path
     d="m 46,19.882 h 3.8 v 42 H 46 Z"
     fill="#4e21e7"
     id="path371"
     style="fill:#334eff;fill-opacity:1;stroke-width:1.01582" />
</svg>
