<?xml version="1.0" encoding="UTF-8" standalone="no"?><svg xmlns="http://www.w3.org/2000/svg" width="60" height="60" viewBox="0 0 60 60"><rect width="60" height="60" rx="5" fill="#ee485f" opacity="0.1"/><path d="M685.876,146.08c.009-.166.025-.331.025-.5a9,9,0,0,0-9-9v9.5Z" transform="translate(-646.9 -114.08)" fill="#ee485f"/><path d="M632.357,195.943h-14a1,1,0,0,1,0-2h14a1,1,0,0,1,0,2Z" transform="translate(-595.357 -179.943)" fill="#ee485f"/><path d="M625.857,224.443a13,13,0,1,1,13-13A13.014,13.014,0,0,1,625.857,224.443Zm0-24a11,11,0,1,0,11,11A11.013,11.013,0,0,0,625.857,200.443Z" transform="translate(-595.857 -179.443)" fill="#ee485f" opacity="0.3"/></svg>