<?xml version="1.0" encoding="UTF-8" standalone="no"?><svg xmlns="http://www.w3.org/2000/svg" width="60" height="60" viewBox="0 0 60 60"><rect width="60" height="60" rx="5" fill="#334eff" opacity="0.1"/><path d="M985.424,222.809a13,13,0,1,1,13-13A13.014,13.014,0,0,1,985.424,222.809Zm0-24a11,11,0,1,0,11,11A11.012,11.012,0,0,0,985.424,198.809Z" transform="translate(-955.424 -179.809)" fill="#334eff" opacity="0.3"/><path d="M242.624,114.585a9.5,9.5,0,1,0-9.5,9.5A9.5,9.5,0,0,0,242.624,114.585Zm-1.693-.826h-2.437a13.006,13.006,0,0,0-1.652-6.072A7.909,7.909,0,0,1,240.931,113.758Zm-2.479,1.652h2.437a7.834,7.834,0,0,1-4.048,6.113A13.18,13.18,0,0,0,238.452,115.41Zm-4.5-8.467c1.57.784,2.685,3.841,2.85,6.815h-2.85Zm0,8.467h2.85c-.165,2.974-1.281,6.031-2.85,6.816Zm-8.633,0h2.437a13.006,13.006,0,0,0,1.652,6.072A7.841,7.841,0,0,1,225.317,115.41Zm2.437-1.652h-2.437a7.841,7.841,0,0,1,4.089-6.072A13.509,13.509,0,0,0,227.754,113.758Zm4.543,8.468c-1.569-.785-2.684-3.842-2.85-6.816h2.85Zm0-8.468h-2.85c.165-2.974,1.281-6.031,2.85-6.815Z" transform="translate(-203.123 -84.584)" fill="#334eff" style="mix-blend-mode:multiply;isolation:isolate"/></svg>