<?xml version="1.0" encoding="UTF-8" standalone="no"?><svg id="b2e6b983-4505-4fe7-a8c2-c3ace0092d99" data-name="Calque 1" xmlns="http://www.w3.org/2000/svg" viewBox="0 0 64 64"><defs><style>.b0b0b509-a6c7-4606-a317-4ba1db9a4dca,.eb61dab9-daad-4388-8679-ce21f8d5d9f9,.f6b064ed-fe98-4a23-93a5-0c3460cea421{fill:#4e21e7;}.b0b0b509-a6c7-4606-a317-4ba1db9a4dca,.eb61dab9-daad-4388-8679-ce21f8d5d9f9{isolation:isolate;}.eb61dab9-daad-4388-8679-ce21f8d5d9f9{opacity:0.1;}.b0b0b509-a6c7-4606-a317-4ba1db9a4dca{opacity:0.3;}</style></defs><rect id="b1efd7fa-38eb-48e6-8145-bdfb6e66fe17" data-name="Conteneur Picto-12" class="eb61dab9-daad-4388-8679-ce21f8d5d9f9" x="2" y="2" width="60" height="60" rx="5"/><path class="f6b064ed-fe98-4a23-93a5-0c3460cea421" d="M28.57,45.5V39a2.28,2.28,0,0,1,2.28-2.27h2.34A2.28,2.28,0,0,1,35.47,39V45.5Z"/><path class="b0b0b509-a6c7-4606-a317-4ba1db9a4dca" d="M41.22,15.68H22.61a2.38,2.38,0,0,0-2.39,2.38V43.12a2.39,2.39,0,0,0,2.39,2.38H41.22a2.39,2.39,0,0,0,2.39-2.38V18.06A2.38,2.38,0,0,0,41.22,15.68ZM29.6,30.44a1.25,1.25,0,0,1-1.24,1.25H26.62a1.25,1.25,0,0,1-1.25-1.25V28.71a1.25,1.25,0,0,1,1.25-1.25h1.74a1.25,1.25,0,0,1,1.24,1.25Zm0-6.41a1.24,1.24,0,0,1-1.24,1.24H26.62A1.24,1.24,0,0,1,25.37,24V22.29A1.25,1.25,0,0,1,26.62,21h1.74a1.25,1.25,0,0,1,1.24,1.25Zm8.86,6.41a1.25,1.25,0,0,1-1.25,1.25H35.48a1.25,1.25,0,0,1-1.25-1.25V28.71a1.25,1.25,0,0,1,1.25-1.25h1.73a1.25,1.25,0,0,1,1.25,1.25Zm0-6.41a1.24,1.24,0,0,1-1.25,1.24H35.48A1.24,1.24,0,0,1,34.23,24V22.29A1.25,1.25,0,0,1,35.48,21h1.73a1.25,1.25,0,0,1,1.25,1.25Z"/></svg>