<?xml version="1.0" encoding="UTF-8" standalone="no"?><svg xmlns="http://www.w3.org/2000/svg" width="60" height="60" viewBox="0 0 60 60"><rect width="60" height="60" rx="5" fill="#334eff" opacity="0.1"/><path d="M1104.857,222.943a12,12,0,1,1,12-12A12.013,12.013,0,0,1,1104.857,222.943Zm0-22a10,10,0,1,0,10,10A10.012,10.012,0,0,0,1104.857,200.943Z" transform="translate(-1075.857 -179.943)" fill="#334eff" opacity="0.3"/><path d="M5,0A5,5,0,1,1,0,5,5,5,0,0,1,5,0Z" transform="translate(24.055 25.944)" fill="#334eff"/><path d="M2.5,0A2.5,2.5,0,1,1,0,2.5,2.5,2.5,0,0,1,2.5,0Z" transform="translate(26.545 17)" fill="#334eff"/><path d="M1104.9,196.943a2.5,2.5,0,1,0,2.5,2.5A2.5,2.5,0,0,0,1104.9,196.943Z" transform="translate(-1075.857 -179.943)" fill="#334eff"/><path d="M3,0A3,3,0,1,1,0,3,3,3,0,0,1,3,0Z" transform="translate(18.5 35.5)" fill="#334eff"/><path d="M3.5,0A3.5,3.5,0,1,1,0,3.5,3.5,3.5,0,0,1,3.5,0Z" transform="translate(36.5 27.954)" fill="#334eff"/></svg>