<?xml version="1.0" encoding="UTF-8"?><svg id="Calque_1" xmlns="http://www.w3.org/2000/svg" viewBox="0 0 64 64"><defs><style>.cls-1,.cls-2,.cls-3{fill:#ee485f;}.cls-2{opacity:.3;}.cls-2,.cls-3{isolation:isolate;}.cls-3{opacity:.1;}</style></defs><g id="Others"><g><rect id="Conteneur_Picto-19" class="cls-3" x="2" y="2" width="60" height="60" rx="5" ry="5"/><g><path class="cls-2" d="M32.27,26.72h-3.8c-.52,0-.95,.43-.95,.95v11.4c0,.52,.43,.95,.95,.95h3.8c.52,0,.95-.43,.95-.95v-11.4c0-.52-.43-.95-.95-.95Z"/><path class="cls-2" d="M24.67,32.42h-3.8c-.52,0-.95,.43-.95,.95v5.7c0,.52,.43,.95,.95,.95h3.8c.52,0,.95-.43,.95-.95v-5.7c0-.52-.43-.95-.95-.95Z"/><path class="cls-1" d="M39.87,21.02h-3.8c-.52,0-.95,.43-.95,.95v17.1c0,.52,.43,.95,.95,.95h3.8c.52,0,.95-.43,.95-.95V21.97c0-.52-.43-.95-.95-.95Z"/></g></g></g></svg>