<?xml version="1.0" encoding="UTF-8"?><svg id="Calque_1" xmlns="http://www.w3.org/2000/svg" viewBox="0 0 64 64"><defs><style>.cls-1,.cls-2,.cls-3{fill:#ee485f;}.cls-2{opacity:.3;}.cls-2,.cls-3{isolation:isolate;}.cls-3{opacity:.1;}</style></defs><g id="Others"><g><rect id="Conteneur_Picto-18" class="cls-3" x="2" y="2" width="60" height="60" rx="5" ry="5"/><g><path class="cls-2" d="M39.81,36.34c-.79,0-1.43-2.85-1.43-3.64v-3.33c0-3.28-2.39-6.11-5.56-6.54v-1.04c0-.46-.37-.83-.83-.83s-.83,.37-.83,.83v1.04c-3.13,.41-5.56,3.08-5.56,6.32v3.54c0,.79-.64,3.64-1.43,3.64h0c-.83,0-1.51,.68-1.51,1.51s.68,1.51,1.51,1.51h15.63c.83,0,1.51-.68,1.51-1.51s-.68-1.51-1.51-1.51Z"/><path class="cls-2" d="M28.75,40.16c.2,1.62,1.57,2.88,3.25,2.88s3.05-1.26,3.25-2.88h-6.5Z"/><g><path class="cls-1" d="M41.16,31.07s0,0-.01,0c-.46,0-.82-.36-.82-.82,0-.04,0-.09,0-.13,0-2.75-1.07-5.32-2.93-7.09-.33-.32-.35-.84-.03-1.17,.32-.33,.84-.34,1.17-.03,2.19,2.08,3.45,5.08,3.45,8.24,0,.05,0,.11,0,.16,0,.45-.38,.84-.83,.84Z"/><path class="cls-1" d="M22.84,31.09c-.45,0-.82-.36-.83-.81,0-.11,0-.16,0-.21,0-3.16,1.26-6.16,3.45-8.24,.33-.31,.86-.3,1.17,.03,.31,.33,.3,.86-.03,1.17-1.87,1.77-2.93,4.33-2.93,7.04v.17c.02,.46-.34,.84-.8,.85h-.02Z"/></g></g></g></g></svg>