<?xml version="1.0" encoding="UTF-8" standalone="no"?><svg xmlns="http://www.w3.org/2000/svg" width="80" height="80" viewBox="0 0 80 80"><rect width="80" height="80" rx="5" fill="#334eff" opacity="0.1"/><path d="M994.114,362.363H979.892a2,2,0,0,1,0-4h14.223a2,2,0,1,1,0,4Z" transform="translate(-946.339 -309.03)" fill="#334eff"/><path d="M975.006,362.363h-1.777a2,2,0,0,1,0-4h1.777a2,2,0,0,1,0,4Z" transform="translate(-948.562 -309.03)" fill="#334eff" opacity="0.3"/><path d="M1003,354.363h-23.11a2,2,0,0,1,0-4H1003a2,2,0,1,1,0,4Z" transform="translate(-946.339 -311.696)" fill="#334eff"/><path d="M975.006,354.363h-1.777a2,2,0,0,1,0-4h1.777a2,2,0,0,1,0,4Z" transform="translate(-948.562 -311.696)" fill="#334eff" opacity="0.3"/><path d="M1003,346.363h-23.11a2,2,0,0,1,0-4H1003a2,2,0,1,1,0,4Z" transform="translate(-946.339 -314.363)" fill="#334eff"/><path d="M975.006,346.363h-1.777a2,2,0,1,1,0-4h1.777a2,2,0,0,1,0,4Z" transform="translate(-948.562 -314.363)" fill="#334eff" opacity="0.3"/></svg>