<?xml version="1.0" encoding="UTF-8" standalone="no"?><svg id="b86b329f-859b-44c5-9725-635a4b53f00f" data-name="Calque 1" xmlns="http://www.w3.org/2000/svg" viewBox="0 0 64 64"><defs><style>.a27e7e98-b6e2-42f4-ad7b-4d48de440755,.b463a7da-8589-4016-8a18-1cf7aa3b1c01,.f56c052b-7c80-4e08-b17e-9ac369a06658{fill:#4e21e7;}.a27e7e98-b6e2-42f4-ad7b-4d48de440755,.f56c052b-7c80-4e08-b17e-9ac369a06658{isolation:isolate;}.a27e7e98-b6e2-42f4-ad7b-4d48de440755{opacity:0.1;}.f56c052b-7c80-4e08-b17e-9ac369a06658{opacity:0.3;}</style></defs><g id="f39a39db-d313-4f55-be3d-5751dae4e79b" data-name="ico-guide-2"><rect id="b0f90ab6-ab45-4b4b-a3e8-c1eebfb3dc28" data-name="Conteneur Picto-2" class="a27e7e98-b6e2-42f4-ad7b-4d48de440755" x="2" y="2" width="60" height="60" rx="5"/></g><circle class="b463a7da-8589-4016-8a18-1cf7aa3b1c01" cx="38.38" cy="25.62" r="5.88"/><path class="b463a7da-8589-4016-8a18-1cf7aa3b1c01" d="M43.77,34.45H33a5.4,5.4,0,0,0-5.39,5.4v2.94a1.47,1.47,0,0,0,1.47,1.47H47.69a1.47,1.47,0,0,0,1.47-1.47V39.85A5.39,5.39,0,0,0,43.77,34.45Z"/><path class="f56c052b-7c80-4e08-b17e-9ac369a06658" d="M22.68,30.49a3.92,3.92,0,1,1,3.93-3.92A3.93,3.93,0,0,1,22.68,30.49Zm0-4.9a1,1,0,1,0,1,1A1,1,0,0,0,22.68,25.59Z"/><path class="f56c052b-7c80-4e08-b17e-9ac369a06658" d="M16.31,40.3a1.47,1.47,0,0,1-1.47-1.47v-1a5.39,5.39,0,0,1,5.39-5.4h4.9a1.48,1.48,0,1,1,0,2.95h-4.9a2.45,2.45,0,0,0-2.45,2.45v1A1.47,1.47,0,0,1,16.31,40.3Z"/></svg>