<?xml version="1.0" encoding="UTF-8" standalone="no"?>
<!-- Generator: Adobe Illustrator 25.4.1, SVG Export Plug-In . SVG Version: 6.00 Build 0)  -->
<svg version="1.1" id="Calque_1" xmlns="http://www.w3.org/2000/svg" xmlns:xlink="http://www.w3.org/1999/xlink" x="0px" y="0px"
	 viewBox="0 0 64 64" style="enable-background:new 0 0 64 64;" xml:space="preserve">
<style type="text/css">
	.st0{opacity:0.1;fill:#4E21E7;enable-background:new    ;}
	.st1{opacity:0.3;fill:#4E21E7;enable-background:new    ;}
	.st2{fill:#4E21E7;}
	.st3{opacity:0.3;fill:url(#Tracé_459_00000143575211520917347400000002875135246920291467_);enable-background:new    ;}
	.st4{fill:url(#SVGID_1_);}
	.st5{opacity:0.8;clip-path:url(#SVGID_00000016048315024384079100000005428371192116664214_);}
	.st6{fill:url(#SVGID_00000139285085461634481700000000382656665574245301_);}
	.st7{fill:#FFFFFF;}
	.st8{fill:#88BF4E;}
	.st9{fill:#393B51;}
	.st10{fill:#6B73B9;}
	.st11{opacity:0.3;fill:#C0B4F5;enable-background:new    ;}
	.st12{opacity:0.3;enable-background:new    ;}
	.st13{opacity:0.3;fill:url(#Tracé_459_00000120552587012706032070000016377581408351229340_);enable-background:new    ;}
	.st14{fill:none;stroke:#4E21E7;stroke-width:3;stroke-linecap:round;stroke-linejoin:round;stroke-miterlimit:10;}
	
		.st15{opacity:0.3;fill:none;stroke:#4E21E7;stroke-width:3;stroke-linecap:round;stroke-linejoin:round;stroke-miterlimit:10;enable-background:new    ;}
</style>
<g id="ico-migrate-2_00000035501331004196555330000009633721823959552665_" transform="translate(65 112)">
	<path id="Conteneur_Picto-19_00000025439935322969678310000010698759579242889631_" class="st0" d="M-58-110h50c2.8,0,5,2.2,5,5v50
		c0,2.8-2.2,5-5,5h-50c-2.8,0-5-2.2-5-5v-50C-63-107.8-60.8-110-58-110z"/>
</g>
<g>
	<g id="ico-monitoring-2_00000067218109138933714810000000771695733073880473_" transform="translate(65 112)">
		<path id="Tracé_501_00000140709807279455382240000000648255006901257114_" class="st2" d="M-33-93.1c2.5,0,4.5,2,4.5,4.5
			s-2,4.5-4.5,4.5s-4.5-2-4.5-4.5l0,0C-37.5-91.1-35.5-93.1-33-93.1z"/>
		<path id="Tracé_501_00000169552309225886186270000002311570521248184458_" class="st2" d="M-43.7-73.9c1.9,0,3.5,1.6,3.5,3.5
			c0,1.9-1.6,3.5-3.5,3.5c-1.9,0-3.5-1.6-3.5-3.5l0,0C-47.2-72.4-45.6-73.9-43.7-73.9z"/>
		<path id="Tracé_501_00000133504389831543594650000016518506523891272610_" class="st2" d="M-22.3-73.9c1.9,0,3.5,1.6,3.5,3.5
			c0,1.9-1.6,3.5-3.5,3.5s-3.5-1.6-3.5-3.5l0,0C-25.8-72.4-24.2-73.9-22.3-73.9z"/>
		<path id="Tracé_501_00000164516210530063548280000018344219578770043064_" class="st2" d="M-33-73.9c1.9,0,3.5,1.6,3.5,3.5
			c0,1.9-1.6,3.5-3.5,3.5s-3.5-1.6-3.5-3.5l0,0C-36.5-72.4-34.9-73.9-33-73.9z"/>
	</g>
	<path class="st1" d="M42.7,31.6h-9.2v-5.3c0-0.8-0.7-1.5-1.5-1.5s-1.5,0.7-1.5,1.5v5.3h-9c-0.8,0-1.5,0.6-1.5,1.5l-0.2,6.8
		c0,0.8,0.6,1.5,1.5,1.5c0,0,0,0,0,0c0.8,0,1.5-0.6,1.5-1.5l0.2-5.4h7.5V40c0,0.8,0.7,1.5,1.5,1.5s1.5-0.7,1.5-1.5v-5.3h7.7V40
		c0,0.8,0.7,1.5,1.5,1.5s1.5-0.7,1.5-1.5v-6.8C44.2,32.3,43.5,31.6,42.7,31.6z"/>
</g>
</svg>
