<?xml version="1.0" encoding="UTF-8" standalone="no"?>
<!-- Generator: Adobe Illustrator 25.4.1, SVG Export Plug-In . SVG Version: 6.00 Build 0)  -->
<svg version="1.1" id="Calque_1" xmlns="http://www.w3.org/2000/svg" xmlns:xlink="http://www.w3.org/1999/xlink" x="0px" y="0px"
	 viewBox="0 0 64 64" style="enable-background:new 0 0 64 64;" xml:space="preserve">
<style type="text/css">
	.st0{opacity:0.1;fill:#4E21E7;enable-background:new    ;}
	.st1{opacity:0.3;fill:#4E21E7;enable-background:new    ;}
	.st2{fill:#4E21E7;}
	.st3{opacity:0.3;fill:url(#Tracé_459_00000061446023447441225160000006817852807665492927_);enable-background:new    ;}
	.st4{fill:url(#SVGID_1_);}
	.st5{opacity:0.8;clip-path:url(#SVGID_00000145025255944968551320000008128655642995010470_);}
	.st6{fill:url(#SVGID_00000070812688697589557710000016083329497355526016_);}
	.st7{fill:#FFFFFF;}
	.st8{fill:#88BF4E;}
	.st9{fill:#393B51;}
	.st10{fill:#6B73B9;}
	.st11{opacity:0.3;fill:#C0B4F5;enable-background:new    ;}
	.st12{opacity:0.3;enable-background:new    ;}
	.st13{opacity:0.3;fill:url(#Tracé_459_00000169517122536205020270000004087474083166848947_);enable-background:new    ;}
	.st14{fill:#4E21E7;enable-background:new    ;}
	.st15{fill:none;stroke:#4E21E7;stroke-width:3;stroke-linecap:round;stroke-linejoin:round;stroke-miterlimit:10;}
</style>
<g id="ico-rank-2_00000089555953232019701290000016532775242756650428_" transform="translate(65 112)">
	<path id="Conteneur_Picto-18_00000110472030256750206330000001219343757135991194_" class="st0" d="M-58-110h50c2.8,0,5,2.2,5,5v50
		c0,2.8-2.2,5-5,5h-50c-2.8,0-5-2.2-5-5v-50C-63-107.8-60.8-110-58-110z"/>
</g>
<g>
	<g>
		<path class="st14" d="M28.5,35.4c-0.2,0-0.3-0.1-0.5-0.2l-2.7-2.7c-0.1-0.1-0.2-0.3-0.2-0.5s0.1-0.4,0.2-0.5l2.7-2.7
			c0.3-0.3,0.7-0.3,1,0c0.3,0.3,0.3,0.7,0,1L26.7,32l2.3,2.3c0.3,0.3,0.3,0.7,0,1C28.8,35.4,28.6,35.4,28.5,35.4z"/>
		<path class="st14" d="M35.5,35.4c-0.2,0-0.3-0.1-0.5-0.2c-0.3-0.3-0.3-0.7,0-1l2.3-2.3L35,29.7c-0.3-0.3-0.3-0.7,0-1
			c0.3-0.3,0.7-0.3,1,0l2.7,2.7c0.3,0.3,0.3,0.7,0,1L36,35.2C35.9,35.4,35.7,35.4,35.5,35.4z"/>
	</g>
	<path class="st14" d="M30.6,34c-0.2,0-0.3-0.1-0.5-0.2c-0.3-0.3-0.3-0.7,0-1l2.7-2.7c0.3-0.3,0.7-0.3,1,0c0.3,0.3,0.3,0.7,0,1
		l-2.7,2.7C31,34,30.8,34,30.6,34z"/>
</g>
<g>
	<path class="st1" d="M20.7,31.4c-0.3-0.3-0.4-0.6-0.4-1.1l0-8.6c0-0.4,0.2-0.8,0.4-1.1s0.7-0.4,1.1-0.4l8.6,0
		c0.8,0,1.5,0.7,1.5,1.5c0,0.8-0.7,1.5-1.5,1.5l-7.1,0l0,7.1c0,0.8-0.7,1.5-1.5,1.5C21.3,31.8,20.9,31.6,20.7,31.4z"/>
	<path class="st1" d="M32.6,43.3c-0.3-0.3-0.4-0.6-0.4-1.1c0-0.8,0.7-1.5,1.5-1.5l7.1,0l0-7.1c0-0.8,0.7-1.5,1.5-1.5
		c0.8,0,1.5,0.7,1.5,1.5l0,8.6c0,0.8-0.7,1.5-1.5,1.5l-8.6,0C33.3,43.8,32.9,43.6,32.6,43.3z"/>
</g>
</svg>
