<?xml version="1.0" encoding="UTF-8" standalone="no"?><svg id="fe611252-7164-4e02-a1f3-0faa59b0b7f2" data-name="Calque 1" xmlns="http://www.w3.org/2000/svg" viewBox="0 0 64 64"><defs><style>.b4b5b02b-0ddc-49e7-9640-9a3b3873c595,.e219e2c3-25d6-477f-a6e1-cdd6800c8df7{fill:#4e21e7;}.b4b5b02b-0ddc-49e7-9640-9a3b3873c595,.fa232f37-77ac-4baf-81f8-89a65ed6789f{isolation:isolate;}.b4b5b02b-0ddc-49e7-9640-9a3b3873c595{opacity:0.1;}.fa232f37-77ac-4baf-81f8-89a65ed6789f{opacity:0.3;}</style></defs><g id="acb7bb1c-46b4-40ee-9170-7ac86b54f514" data-name="ico-faq-2"><rect id="b695da77-2eaf-4012-92da-e3d43b9fd239" data-name="Conteneur Picto-3" class="b4b5b02b-0ddc-49e7-9640-9a3b3873c595" x="2" y="2" width="60" height="60" rx="5"/></g><path class="e219e2c3-25d6-477f-a6e1-cdd6800c8df7" d="M21.71,32.06l7.81,6.24a1.78,1.78,0,0,1,.66,1.39v7l3.64-1.18V39.69a1.79,1.79,0,0,1,.67-1.39l7.8-6.24A1.76,1.76,0,0,0,43,30.68V30H21v.72A1.76,1.76,0,0,0,21.71,32.06Z"/><g class="fa232f37-77ac-4baf-81f8-89a65ed6789f"><path class="e219e2c3-25d6-477f-a6e1-cdd6800c8df7" d="M32,24.76a3.65,3.65,0,1,0,3.65,3.65A3.66,3.66,0,0,0,32,24.76Z"/></g><g class="fa232f37-77ac-4baf-81f8-89a65ed6789f"><path class="e219e2c3-25d6-477f-a6e1-cdd6800c8df7" d="M24.36,19.67a2.55,2.55,0,1,0,2.54,2.55A2.55,2.55,0,0,0,24.36,19.67Z"/></g><path class="e219e2c3-25d6-477f-a6e1-cdd6800c8df7" d="M38.08,17.32a1.22,1.22,0,1,0,1.22,1.21A1.22,1.22,0,0,0,38.08,17.32Z"/></svg>