<?xml version="1.0" encoding="UTF-8" standalone="no"?>
<!DOCTYPE svg PUBLIC "-//W3C//DTD SVG 1.1//EN" "http://www.w3.org/Graphics/SVG/1.1/DTD/svg11.dtd">
<svg width="100%" height="100%" viewBox="0 0 153 141" version="1.1" xmlns="http://www.w3.org/2000/svg" xmlns:xlink="http://www.w3.org/1999/xlink" xml:space="preserve" xmlns:serif="http://www.serif.com/" style="fill-rule:evenodd;clip-rule:evenodd;stroke-linejoin:round;stroke-miterlimit:2;">
    <g transform="matrix(-1,7.65714e-16,-7.65714e-16,-1,3,8)">
        <path d="M3,1.5C3,0.672 2.328,0 1.5,0C0.672,0 0,0.672 0,1.5L0,6.5C0,7.328 0.672,8 1.5,8C2.328,8 3,7.328 3,6.5L3,1.5Z" style="fill:rgb(12,8,47);fill-opacity:0.1;"/>
    </g>
    <g transform="matrix(-1,7.65714e-16,-7.65714e-16,-1,18,8)">
        <path d="M3,1.5C3,0.672 2.328,0 1.5,0C0.672,0 0,0.672 0,1.5L0,6.5C0,7.328 0.672,8 1.5,8C2.328,8 3,7.328 3,6.5L3,1.5Z" style="fill:rgb(12,8,47);fill-opacity:0.1;"/>
    </g>
    <g transform="matrix(-1,7.65714e-16,-7.65714e-16,-1,33,8)">
        <path d="M3,1.5C3,0.672 2.328,0 1.5,0C0.672,0 0,0.672 0,1.5L0,6.5C0,7.328 0.672,8 1.5,8C2.328,8 3,7.328 3,6.5L3,1.5Z" style="fill:rgb(13,164,154);"/>
    </g>
    <g transform="matrix(-1,7.65714e-16,-7.65714e-16,-1,48,8)">
        <path d="M3,1.5C3,0.672 2.328,0 1.5,0C0.672,0 0,0.672 0,1.5L0,6.5C0,7.328 0.672,8 1.5,8C2.328,8 3,7.328 3,6.5L3,1.5Z" style="fill:rgb(12,8,47);fill-opacity:0.1;"/>
    </g>
    <g transform="matrix(-1,7.65714e-16,-7.65714e-16,-1,63,8)">
        <path d="M3,1.5C3,0.672 2.328,0 1.5,0C0.672,0 0,0.672 0,1.5L0,6.5C0,7.328 0.672,8 1.5,8C2.328,8 3,7.328 3,6.5L3,1.5Z" style="fill:rgb(12,8,47);fill-opacity:0.1;"/>
    </g>
    <g transform="matrix(-1,7.65714e-16,-7.65714e-16,-1,78,8)">
        <path d="M3,1.5C3,0.672 2.328,0 1.5,0C0.672,0 0,0.672 0,1.5L0,6.5C0,7.328 0.672,8 1.5,8C2.328,8 3,7.328 3,6.5L3,1.5Z" style="fill:rgb(12,8,47);fill-opacity:0.1;"/>
    </g>
    <g transform="matrix(-1,7.65714e-16,-7.65714e-16,-1,93,8)">
        <path d="M3,1.5C3,0.672 2.328,0 1.5,0C0.672,0 0,0.672 0,1.5L0,6.5C0,7.328 0.672,8 1.5,8C2.328,8 3,7.328 3,6.5L3,1.5Z" style="fill:rgb(12,8,47);fill-opacity:0.1;"/>
    </g>
    <g transform="matrix(-1,7.65714e-16,-7.65714e-16,-1,108,8)">
        <path d="M3,1.5C3,0.672 2.328,0 1.5,0C0.672,0 0,0.672 0,1.5L0,6.5C0,7.328 0.672,8 1.5,8C2.328,8 3,7.328 3,6.5L3,1.5Z" style="fill:rgb(12,8,47);fill-opacity:0.1;"/>
    </g>
    <g transform="matrix(-1,7.65714e-16,-7.65714e-16,-1,123,8)">
        <path d="M3,1.5C3,0.672 2.328,0 1.5,0C0.672,0 0,0.672 0,1.5L0,6.5C0,7.328 0.672,8 1.5,8C2.328,8 3,7.328 3,6.5L3,1.5Z" style="fill:rgb(12,8,47);fill-opacity:0.1;"/>
    </g>
    <g transform="matrix(-1,7.65714e-16,-7.65714e-16,-1,138,8)">
        <path d="M3,1.5C3,0.672 2.328,0 1.5,0C0.672,0 0,0.672 0,1.5L0,6.5C0,7.328 0.672,8 1.5,8C2.328,8 3,7.328 3,6.5L3,1.5Z" style="fill:rgb(12,8,47);fill-opacity:0.1;"/>
    </g>
    <g transform="matrix(-1,7.65714e-16,-7.65714e-16,-1,153,8)">
        <path d="M3,1.5C3,0.672 2.328,0 1.5,0C0.672,0 0,0.672 0,1.5L0,6.5C0,7.328 0.672,8 1.5,8C2.328,8 3,7.328 3,6.5L3,1.5Z" style="fill:rgb(12,8,47);fill-opacity:0.1;"/>
    </g>
    <g transform="matrix(-1,7.65714e-16,-7.65714e-16,-1,3,27)">
        <path d="M3,1.5C3,0.672 2.328,0 1.5,0C0.672,0 0,0.672 0,1.5L0,6.5C0,7.328 0.672,8 1.5,8C2.328,8 3,7.328 3,6.5L3,1.5Z" style="fill:rgb(78,33,231);fill-opacity:0.1;"/>
    </g>
    <g transform="matrix(-1,7.65714e-16,-7.65714e-16,-1,18,27)">
        <path d="M3,1.5C3,0.672 2.328,0 1.5,0C0.672,0 0,0.672 0,1.5L0,6.5C0,7.328 0.672,8 1.5,8C2.328,8 3,7.328 3,6.5L3,1.5Z" style="fill:rgb(12,8,47);fill-opacity:0.1;"/>
    </g>
    <g transform="matrix(-1,7.65714e-16,-7.65714e-16,-1,33,27)">
        <path d="M3,1.5C3,0.672 2.328,0 1.5,0C0.672,0 0,0.672 0,1.5L0,6.5C0,7.328 0.672,8 1.5,8C2.328,8 3,7.328 3,6.5L3,1.5Z" style="fill:rgb(12,8,47);fill-opacity:0.1;"/>
    </g>
    <g transform="matrix(-1,7.65714e-16,-7.65714e-16,-1,48,27)">
        <path d="M3,1.5C3,0.672 2.328,0 1.5,0C0.672,0 0,0.672 0,1.5L0,6.5C0,7.328 0.672,8 1.5,8C2.328,8 3,7.328 3,6.5L3,1.5Z" style="fill:rgb(12,8,47);fill-opacity:0.1;"/>
    </g>
    <g transform="matrix(-1,7.65714e-16,-7.65714e-16,-1,63,27)">
        <path d="M3,1.5C3,0.672 2.328,0 1.5,0C0.672,0 0,0.672 0,1.5L0,6.5C0,7.328 0.672,8 1.5,8C2.328,8 3,7.328 3,6.5L3,1.5Z" style="fill:rgb(12,8,47);fill-opacity:0.1;"/>
    </g>
    <g transform="matrix(-1,7.65714e-16,-7.65714e-16,-1,78,27)">
        <path d="M3,1.5C3,0.672 2.328,0 1.5,0C0.672,0 0,0.672 0,1.5L0,6.5C0,7.328 0.672,8 1.5,8C2.328,8 3,7.328 3,6.5L3,1.5Z" style="fill:rgb(12,8,47);fill-opacity:0.1;"/>
    </g>
    <g transform="matrix(-1,7.65714e-16,-7.65714e-16,-1,93,27)">
        <path d="M3,1.5C3,0.672 2.328,0 1.5,0C0.672,0 0,0.672 0,1.5L0,6.5C0,7.328 0.672,8 1.5,8C2.328,8 3,7.328 3,6.5L3,1.5Z" style="fill:rgb(12,8,47);fill-opacity:0.1;"/>
    </g>
    <g transform="matrix(-1,7.65714e-16,-7.65714e-16,-1,108,27)">
        <path d="M3,1.5C3,0.672 2.328,0 1.5,0C0.672,0 0,0.672 0,1.5L0,6.5C0,7.328 0.672,8 1.5,8C2.328,8 3,7.328 3,6.5L3,1.5Z" style="fill:rgb(13,164,154);"/>
    </g>
    <g transform="matrix(-1,7.65714e-16,-7.65714e-16,-1,123,27)">
        <path d="M3,1.5C3,0.672 2.328,0 1.5,0C0.672,0 0,0.672 0,1.5L0,6.5C0,7.328 0.672,8 1.5,8C2.328,8 3,7.328 3,6.5L3,1.5Z" style="fill:rgb(12,8,47);fill-opacity:0.1;"/>
    </g>
    <g transform="matrix(-1,7.65714e-16,-7.65714e-16,-1,138,27)">
        <path d="M3,1.5C3,0.672 2.328,0 1.5,0C0.672,0 0,0.672 0,1.5L0,6.5C0,7.328 0.672,8 1.5,8C2.328,8 3,7.328 3,6.5L3,1.5Z" style="fill:rgb(12,8,47);fill-opacity:0.1;"/>
    </g>
    <g transform="matrix(-1,7.65714e-16,-7.65714e-16,-1,153,27)">
        <path d="M3,1.5C3,0.672 2.328,0 1.5,0C0.672,0 0,0.672 0,1.5L0,6.5C0,7.328 0.672,8 1.5,8C2.328,8 3,7.328 3,6.5L3,1.5Z" style="fill:rgb(12,8,47);fill-opacity:0.1;"/>
    </g>
    <g transform="matrix(-1,7.65714e-16,-7.65714e-16,-1,3,46)">
        <path d="M3,1.5C3,0.672 2.328,0 1.5,0C0.672,0 0,0.672 0,1.5L0,6.5C0,7.328 0.672,8 1.5,8C2.328,8 3,7.328 3,6.5L3,1.5Z" style="fill:rgb(12,8,47);fill-opacity:0.1;"/>
    </g>
    <g transform="matrix(-1,7.65714e-16,-7.65714e-16,-1,18,46)">
        <path d="M3,1.5C3,0.672 2.328,0 1.5,0C0.672,0 0,0.672 0,1.5L0,6.5C0,7.328 0.672,8 1.5,8C2.328,8 3,7.328 3,6.5L3,1.5Z" style="fill:rgb(12,8,47);fill-opacity:0.1;"/>
    </g>
    <g transform="matrix(-1,7.65714e-16,-7.65714e-16,-1,33,46)">
        <path d="M3,1.5C3,0.672 2.328,0 1.5,0C0.672,0 0,0.672 0,1.5L0,6.5C0,7.328 0.672,8 1.5,8C2.328,8 3,7.328 3,6.5L3,1.5Z" style="fill:rgb(12,8,47);fill-opacity:0.1;"/>
    </g>
    <g transform="matrix(-1,7.65714e-16,-7.65714e-16,-1,48,46)">
        <path d="M3,1.5C3,0.672 2.328,0 1.5,0C0.672,0 0,0.672 0,1.5L0,6.5C0,7.328 0.672,8 1.5,8C2.328,8 3,7.328 3,6.5L3,1.5Z" style="fill:rgb(12,8,47);fill-opacity:0.1;"/>
    </g>
    <g transform="matrix(-1,7.65714e-16,-7.65714e-16,-1,63,46)">
        <path d="M3,1.5C3,0.672 2.328,0 1.5,0C0.672,0 0,0.672 0,1.5L0,6.5C0,7.328 0.672,8 1.5,8C2.328,8 3,7.328 3,6.5L3,1.5Z" style="fill:rgb(12,8,47);fill-opacity:0.1;"/>
    </g>
    <g transform="matrix(-1,7.65714e-16,-7.65714e-16,-1,78,46)">
        <path d="M3,1.5C3,0.672 2.328,0 1.5,0C0.672,0 0,0.672 0,1.5L0,6.5C0,7.328 0.672,8 1.5,8C2.328,8 3,7.328 3,6.5L3,1.5Z" style="fill:rgb(12,8,47);fill-opacity:0.1;"/>
    </g>
    <g transform="matrix(-1,7.65714e-16,-7.65714e-16,-1,93,46)">
        <path d="M3,1.5C3,0.672 2.328,0 1.5,0C0.672,0 0,0.672 0,1.5L0,6.5C0,7.328 0.672,8 1.5,8C2.328,8 3,7.328 3,6.5L3,1.5Z" style="fill:rgb(12,8,47);fill-opacity:0.1;"/>
    </g>
    <g transform="matrix(-1,7.65714e-16,-7.65714e-16,-1,108,46)">
        <path d="M3,1.5C3,0.672 2.328,0 1.5,0C0.672,0 0,0.672 0,1.5L0,6.5C0,7.328 0.672,8 1.5,8C2.328,8 3,7.328 3,6.5L3,1.5Z" style="fill:rgb(12,8,47);fill-opacity:0.1;"/>
    </g>
    <g transform="matrix(-1,7.65714e-16,-7.65714e-16,-1,123,46)">
        <path d="M3,1.5C3,0.672 2.328,0 1.5,0C0.672,0 0,0.672 0,1.5L0,6.5C0,7.328 0.672,8 1.5,8C2.328,8 3,7.328 3,6.5L3,1.5Z" style="fill:rgb(12,8,47);fill-opacity:0.1;"/>
    </g>
    <g transform="matrix(-1,7.65714e-16,-7.65714e-16,-1,138,46)">
        <path d="M3,1.5C3,0.672 2.328,0 1.5,0C0.672,0 0,0.672 0,1.5L0,6.5C0,7.328 0.672,8 1.5,8C2.328,8 3,7.328 3,6.5L3,1.5Z" style="fill:rgb(12,8,47);fill-opacity:0.1;"/>
    </g>
    <g transform="matrix(-1,7.65714e-16,-7.65714e-16,-1,153,46)">
        <path d="M3,1.5C3,0.672 2.328,0 1.5,0C0.672,0 0,0.672 0,1.5L0,6.5C0,7.328 0.672,8 1.5,8C2.328,8 3,7.328 3,6.5L3,1.5Z" style="fill:rgb(12,8,47);fill-opacity:0.1;"/>
    </g>
    <g transform="matrix(-1,7.65714e-16,-7.65714e-16,-1,3,65)">
        <path d="M3,1.5C3,0.672 2.328,0 1.5,0C0.672,0 0,0.672 0,1.5L0,6.5C0,7.328 0.672,8 1.5,8C2.328,8 3,7.328 3,6.5L3,1.5Z" style="fill:rgb(12,8,47);fill-opacity:0.1;"/>
    </g>
    <g transform="matrix(-1,7.65714e-16,-7.65714e-16,-1,18,65)">
        <path d="M3,1.5C3,0.672 2.328,0 1.5,0C0.672,0 0,0.672 0,1.5L0,6.5C0,7.328 0.672,8 1.5,8C2.328,8 3,7.328 3,6.5L3,1.5Z" style="fill:rgb(12,8,47);fill-opacity:0.1;"/>
    </g>
    <g transform="matrix(-1,7.65714e-16,-7.65714e-16,-1,33,65)">
        <path d="M3,1.5C3,0.672 2.328,0 1.5,0C0.672,0 0,0.672 0,1.5L0,6.5C0,7.328 0.672,8 1.5,8C2.328,8 3,7.328 3,6.5L3,1.5Z" style="fill:rgb(12,8,47);fill-opacity:0.1;"/>
    </g>
    <g transform="matrix(-1,7.65714e-16,-7.65714e-16,-1,48,65)">
        <path d="M3,1.5C3,0.672 2.328,0 1.5,0C0.672,0 0,0.672 0,1.5L0,6.5C0,7.328 0.672,8 1.5,8C2.328,8 3,7.328 3,6.5L3,1.5Z" style="fill:rgb(12,8,47);fill-opacity:0.1;"/>
    </g>
    <g transform="matrix(-1,7.65714e-16,-7.65714e-16,-1,63,65)">
        <path d="M3,1.5C3,0.672 2.328,0 1.5,0C0.672,0 0,0.672 0,1.5L0,6.5C0,7.328 0.672,8 1.5,8C2.328,8 3,7.328 3,6.5L3,1.5Z" style="fill:rgb(12,8,47);fill-opacity:0.1;"/>
    </g>
    <g transform="matrix(1,0,0,1,75,57)">
        <path d="M1.5,0C2.323,-0 3,0.677 3,1.5L3,6.5C3,7.323 2.323,8 1.5,8C0.677,8 0,7.323 0,6.5L0,1.5C-0,0.677 0.677,0 1.5,0Z" style="fill:rgb(13,164,154);fill-rule:nonzero;"/>
    </g>
    <g transform="matrix(-1,7.65714e-16,-7.65714e-16,-1,93,65)">
        <path d="M3,1.5C3,0.672 2.328,0 1.5,0C0.672,0 0,0.672 0,1.5L0,6.5C0,7.328 0.672,8 1.5,8C2.328,8 3,7.328 3,6.5L3,1.5Z" style="fill:rgb(12,8,47);fill-opacity:0.1;"/>
    </g>
    <g transform="matrix(-1,7.65714e-16,-7.65714e-16,-1,108,65)">
        <path d="M3,1.5C3,0.672 2.328,0 1.5,0C0.672,0 0,0.672 0,1.5L0,6.5C0,7.328 0.672,8 1.5,8C2.328,8 3,7.328 3,6.5L3,1.5Z" style="fill:rgb(12,8,47);fill-opacity:0.1;"/>
    </g>
    <g transform="matrix(-1,7.65714e-16,-7.65714e-16,-1,123,65)">
        <path d="M3,1.5C3,0.672 2.328,0 1.5,0C0.672,0 0,0.672 0,1.5L0,6.5C0,7.328 0.672,8 1.5,8C2.328,8 3,7.328 3,6.5L3,1.5Z" style="fill:rgb(12,8,47);fill-opacity:0.1;"/>
    </g>
    <g transform="matrix(-1,7.65714e-16,-7.65714e-16,-1,138,65)">
        <path d="M3,1.5C3,0.672 2.328,0 1.5,0C0.672,0 0,0.672 0,1.5L0,6.5C0,7.328 0.672,8 1.5,8C2.328,8 3,7.328 3,6.5L3,1.5Z" style="fill:rgb(12,8,47);fill-opacity:0.1;"/>
    </g>
    <g transform="matrix(-1,7.65714e-16,-7.65714e-16,-1,153,65)">
        <path d="M3,1.5C3,0.672 2.328,0 1.5,0C0.672,0 0,0.672 0,1.5L0,6.5C0,7.328 0.672,8 1.5,8C2.328,8 3,7.328 3,6.5L3,1.5Z" style="fill:rgb(12,8,47);fill-opacity:0.1;"/>
    </g>
    <g transform="matrix(-1,7.65714e-16,-7.65714e-16,-1,3,84)">
        <path d="M3,1.5C3,0.672 2.328,0 1.5,0C0.672,0 0,0.672 0,1.5L0,6.5C0,7.328 0.672,8 1.5,8C2.328,8 3,7.328 3,6.5L3,1.5Z" style="fill:rgb(12,8,47);fill-opacity:0.1;"/>
    </g>
    <g transform="matrix(-1,7.65714e-16,-7.65714e-16,-1,18,84)">
        <path d="M3,1.5C3,0.672 2.328,0 1.5,0C0.672,0 0,0.672 0,1.5L0,6.5C0,7.328 0.672,8 1.5,8C2.328,8 3,7.328 3,6.5L3,1.5Z" style="fill:rgb(12,8,47);fill-opacity:0.1;"/>
    </g>
    <g transform="matrix(-1,7.65714e-16,-7.65714e-16,-1,33,84)">
        <path d="M3,1.5C3,0.672 2.328,0 1.5,0C0.672,0 0,0.672 0,1.5L0,6.5C0,7.328 0.672,8 1.5,8C2.328,8 3,7.328 3,6.5L3,1.5Z" style="fill:rgb(13,164,154);"/>
    </g>
    <g transform="matrix(-1,7.65714e-16,-7.65714e-16,-1,48,84)">
        <path d="M3,1.5C3,0.672 2.328,0 1.5,0C0.672,0 0,0.672 0,1.5L0,6.5C0,7.328 0.672,8 1.5,8C2.328,8 3,7.328 3,6.5L3,1.5Z" style="fill:rgb(12,8,47);fill-opacity:0.1;"/>
    </g>
    <g transform="matrix(-1,7.65714e-16,-7.65714e-16,-1,63,84)">
        <path d="M3,1.5C3,0.672 2.328,0 1.5,0C0.672,0 0,0.672 0,1.5L0,6.5C0,7.328 0.672,8 1.5,8C2.328,8 3,7.328 3,6.5L3,1.5Z" style="fill:rgb(12,8,47);fill-opacity:0.1;"/>
    </g>
    <g transform="matrix(-1,7.65714e-16,-7.65714e-16,-1,78,84)">
        <path d="M3,1.5C3,0.672 2.328,0 1.5,0C0.672,0 0,0.672 0,1.5L0,6.5C0,7.328 0.672,8 1.5,8C2.328,8 3,7.328 3,6.5L3,1.5Z" style="fill:rgb(12,8,47);fill-opacity:0.1;"/>
    </g>
    <g transform="matrix(-1,7.65714e-16,-7.65714e-16,-1,93,84)">
        <path d="M3,1.5C3,0.672 2.328,0 1.5,0C0.672,0 0,0.672 0,1.5L0,6.5C0,7.328 0.672,8 1.5,8C2.328,8 3,7.328 3,6.5L3,1.5Z" style="fill:rgb(12,8,47);fill-opacity:0.1;"/>
    </g>
    <g transform="matrix(-1,7.65714e-16,-7.65714e-16,-1,108,84)">
        <path d="M3,1.5C3,0.672 2.328,0 1.5,0C0.672,0 0,0.672 0,1.5L0,6.5C0,7.328 0.672,8 1.5,8C2.328,8 3,7.328 3,6.5L3,1.5Z" style="fill:rgb(12,8,47);fill-opacity:0.1;"/>
    </g>
    <g transform="matrix(-1,7.65714e-16,-7.65714e-16,-1,123,84)">
        <path d="M3,1.5C3,0.672 2.328,0 1.5,0C0.672,0 0,0.672 0,1.5L0,6.5C0,7.328 0.672,8 1.5,8C2.328,8 3,7.328 3,6.5L3,1.5Z" style="fill:rgb(12,8,47);fill-opacity:0.1;"/>
    </g>
    <g transform="matrix(-1,7.65714e-16,-7.65714e-16,-1,138,84)">
        <path d="M3,1.5C3,0.672 2.328,0 1.5,0C0.672,0 0,0.672 0,1.5L0,6.5C0,7.328 0.672,8 1.5,8C2.328,8 3,7.328 3,6.5L3,1.5Z" style="fill:rgb(12,8,47);fill-opacity:0.1;"/>
    </g>
    <g transform="matrix(-1,7.65714e-16,-7.65714e-16,-1,153,84)">
        <path d="M3,1.5C3,0.672 2.328,0 1.5,0C0.672,0 0,0.672 0,1.5L0,6.5C0,7.328 0.672,8 1.5,8C2.328,8 3,7.328 3,6.5L3,1.5Z" style="fill:rgb(12,8,47);fill-opacity:0.1;"/>
    </g>
    <g transform="matrix(-1,7.65714e-16,-7.65714e-16,-1,3,103)">
        <path d="M3,1.5C3,0.672 2.328,0 1.5,0C0.672,0 0,0.672 0,1.5L0,6.5C0,7.328 0.672,8 1.5,8C2.328,8 3,7.328 3,6.5L3,1.5Z" style="fill:rgb(12,8,47);fill-opacity:0.1;"/>
    </g>
    <g transform="matrix(-1,7.65714e-16,-7.65714e-16,-1,18,103)">
        <path d="M3,1.5C3,0.672 2.328,0 1.5,0C0.672,0 0,0.672 0,1.5L0,6.5C0,7.328 0.672,8 1.5,8C2.328,8 3,7.328 3,6.5L3,1.5Z" style="fill:rgb(12,8,47);fill-opacity:0.1;"/>
    </g>
    <g transform="matrix(-1,7.65714e-16,-7.65714e-16,-1,33,103)">
        <path d="M3,1.5C3,0.672 2.328,0 1.5,0C0.672,0 0,0.672 0,1.5L0,6.5C0,7.328 0.672,8 1.5,8C2.328,8 3,7.328 3,6.5L3,1.5Z" style="fill:rgb(12,8,47);fill-opacity:0.1;"/>
    </g>
    <g transform="matrix(-1,7.65714e-16,-7.65714e-16,-1,48,103)">
        <path d="M3,1.5C3,0.672 2.328,0 1.5,0C0.672,0 0,0.672 0,1.5L0,6.5C0,7.328 0.672,8 1.5,8C2.328,8 3,7.328 3,6.5L3,1.5Z" style="fill:rgb(12,8,47);fill-opacity:0.1;"/>
    </g>
    <g transform="matrix(-1,7.65714e-16,-7.65714e-16,-1,63,103)">
        <path d="M3,1.5C3,0.672 2.328,0 1.5,0C0.672,0 0,0.672 0,1.5L0,6.5C0,7.328 0.672,8 1.5,8C2.328,8 3,7.328 3,6.5L3,1.5Z" style="fill:rgb(12,8,47);fill-opacity:0.1;"/>
    </g>
    <g transform="matrix(-1,7.65714e-16,-7.65714e-16,-1,78,103)">
        <path d="M3,1.5C3,0.672 2.328,0 1.5,0C0.672,0 0,0.672 0,1.5L0,6.5C0,7.328 0.672,8 1.5,8C2.328,8 3,7.328 3,6.5L3,1.5Z" style="fill:rgb(12,8,47);fill-opacity:0.1;"/>
    </g>
    <g transform="matrix(-1,7.65714e-16,-7.65714e-16,-1,93,103)">
        <path d="M3,1.5C3,0.672 2.328,0 1.5,0C0.672,0 0,0.672 0,1.5L0,6.5C0,7.328 0.672,8 1.5,8C2.328,8 3,7.328 3,6.5L3,1.5Z" style="fill:rgb(12,8,47);fill-opacity:0.1;"/>
    </g>
    <g transform="matrix(-1,7.65714e-16,-7.65714e-16,-1,108,103)">
        <path d="M3,1.5C3,0.672 2.328,0 1.5,0C0.672,0 0,0.672 0,1.5L0,6.5C0,7.328 0.672,8 1.5,8C2.328,8 3,7.328 3,6.5L3,1.5Z" style="fill:rgb(12,8,47);fill-opacity:0.1;"/>
    </g>
    <g transform="matrix(-1,7.65714e-16,-7.65714e-16,-1,123,103)">
        <path d="M3,1.5C3,0.672 2.328,0 1.5,0C0.672,0 0,0.672 0,1.5L0,6.5C0,7.328 0.672,8 1.5,8C2.328,8 3,7.328 3,6.5L3,1.5Z" style="fill:rgb(13,164,154);"/>
    </g>
    <g transform="matrix(-1,7.65714e-16,-7.65714e-16,-1,138,103)">
        <path d="M3,1.5C3,0.672 2.328,0 1.5,0C0.672,0 0,0.672 0,1.5L0,6.5C0,7.328 0.672,8 1.5,8C2.328,8 3,7.328 3,6.5L3,1.5Z" style="fill:rgb(12,8,47);fill-opacity:0.1;"/>
    </g>
    <g transform="matrix(-1,7.65714e-16,-7.65714e-16,-1,153,103)">
        <path d="M3,1.5C3,0.672 2.328,0 1.5,0C0.672,0 0,0.672 0,1.5L0,6.5C0,7.328 0.672,8 1.5,8C2.328,8 3,7.328 3,6.5L3,1.5Z" style="fill:rgb(12,8,47);fill-opacity:0.1;"/>
    </g>
    <g transform="matrix(-1,7.65714e-16,-7.65714e-16,-1,3,122)">
        <path d="M3,1.5C3,0.672 2.328,0 1.5,0C0.672,0 0,0.672 0,1.5L0,6.5C0,7.328 0.672,8 1.5,8C2.328,8 3,7.328 3,6.5L3,1.5Z" style="fill:rgb(12,8,47);fill-opacity:0.1;"/>
    </g>
    <g transform="matrix(-1,7.65714e-16,-7.65714e-16,-1,18,122)">
        <path d="M3,1.5C3,0.672 2.328,0 1.5,0C0.672,0 0,0.672 0,1.5L0,6.5C0,7.328 0.672,8 1.5,8C2.328,8 3,7.328 3,6.5L3,1.5Z" style="fill:rgb(12,8,47);fill-opacity:0.1;"/>
    </g>
    <g transform="matrix(-1,7.65714e-16,-7.65714e-16,-1,33,122)">
        <path d="M3,1.5C3,0.672 2.328,0 1.5,0C0.672,0 0,0.672 0,1.5L0,6.5C0,7.328 0.672,8 1.5,8C2.328,8 3,7.328 3,6.5L3,1.5Z" style="fill:rgb(12,8,47);fill-opacity:0.1;"/>
    </g>
    <g transform="matrix(-1,7.65714e-16,-7.65714e-16,-1,48,122)">
        <path d="M3,1.5C3,0.672 2.328,0 1.5,0C0.672,0 0,0.672 0,1.5L0,6.5C0,7.328 0.672,8 1.5,8C2.328,8 3,7.328 3,6.5L3,1.5Z" style="fill:rgb(12,8,47);fill-opacity:0.1;"/>
    </g>
    <g transform="matrix(-1,7.65714e-16,-7.65714e-16,-1,63,122)">
        <path d="M3,1.5C3,0.672 2.328,0 1.5,0C0.672,0 0,0.672 0,1.5L0,6.5C0,7.328 0.672,8 1.5,8C2.328,8 3,7.328 3,6.5L3,1.5Z" style="fill:rgb(13,164,154);"/>
    </g>
    <g transform="matrix(-1,7.65714e-16,-7.65714e-16,-1,78,122)">
        <path d="M3,1.5C3,0.672 2.328,0 1.5,0C0.672,0 0,0.672 0,1.5L0,6.5C0,7.328 0.672,8 1.5,8C2.328,8 3,7.328 3,6.5L3,1.5Z" style="fill:rgb(12,8,47);fill-opacity:0.1;"/>
    </g>
    <g transform="matrix(-1,7.65714e-16,-7.65714e-16,-1,93,122)">
        <path d="M3,1.5C3,0.672 2.328,0 1.5,0C0.672,0 0,0.672 0,1.5L0,6.5C0,7.328 0.672,8 1.5,8C2.328,8 3,7.328 3,6.5L3,1.5Z" style="fill:rgb(12,8,47);fill-opacity:0.1;"/>
    </g>
    <g transform="matrix(-1,7.65714e-16,-7.65714e-16,-1,108,122)">
        <path d="M3,1.5C3,0.672 2.328,0 1.5,0C0.672,0 0,0.672 0,1.5L0,6.5C0,7.328 0.672,8 1.5,8C2.328,8 3,7.328 3,6.5L3,1.5Z" style="fill:rgb(12,8,47);fill-opacity:0.1;"/>
    </g>
    <g transform="matrix(-1,7.65714e-16,-7.65714e-16,-1,123,122)">
        <path d="M3,1.5C3,0.672 2.328,0 1.5,0C0.672,0 0,0.672 0,1.5L0,6.5C0,7.328 0.672,8 1.5,8C2.328,8 3,7.328 3,6.5L3,1.5Z" style="fill:rgb(12,8,47);fill-opacity:0.1;"/>
    </g>
    <g transform="matrix(-1,7.65714e-16,-7.65714e-16,-1,138,122)">
        <path d="M3,1.5C3,0.672 2.328,0 1.5,0C0.672,0 0,0.672 0,1.5L0,6.5C0,7.328 0.672,8 1.5,8C2.328,8 3,7.328 3,6.5L3,1.5Z" style="fill:rgb(12,8,47);fill-opacity:0.1;"/>
    </g>
    <g transform="matrix(-1,7.65714e-16,-7.65714e-16,-1,153,122)">
        <path d="M3,1.5C3,0.672 2.328,0 1.5,0C0.672,0 0,0.672 0,1.5L0,6.5C0,7.328 0.672,8 1.5,8C2.328,8 3,7.328 3,6.5L3,1.5Z" style="fill:rgb(12,8,47);fill-opacity:0.1;"/>
    </g>
    <g transform="matrix(-1,7.65714e-16,-7.65714e-16,-1,3,141)">
        <path d="M3,1.5C3,0.672 2.328,0 1.5,0C0.672,0 0,0.672 0,1.5L0,6.5C0,7.328 0.672,8 1.5,8C2.328,8 3,7.328 3,6.5L3,1.5Z" style="fill:rgb(12,8,47);fill-opacity:0.1;"/>
    </g>
    <g transform="matrix(-1,7.65714e-16,-7.65714e-16,-1,18,141)">
        <path d="M3,1.5C3,0.672 2.328,0 1.5,0C0.672,0 0,0.672 0,1.5L0,6.5C0,7.328 0.672,8 1.5,8C2.328,8 3,7.328 3,6.5L3,1.5Z" style="fill:rgb(12,8,47);fill-opacity:0.1;"/>
    </g>
    <g transform="matrix(-1,7.65714e-16,-7.65714e-16,-1,33,141)">
        <path d="M3,1.5C3,0.672 2.328,0 1.5,0C0.672,0 0,0.672 0,1.5L0,6.5C0,7.328 0.672,8 1.5,8C2.328,8 3,7.328 3,6.5L3,1.5Z" style="fill:rgb(12,8,47);fill-opacity:0.1;"/>
    </g>
    <g transform="matrix(-1,7.65714e-16,-7.65714e-16,-1,48,141)">
        <path d="M3,1.5C3,0.672 2.328,0 1.5,0C0.672,0 0,0.672 0,1.5L0,6.5C0,7.328 0.672,8 1.5,8C2.328,8 3,7.328 3,6.5L3,1.5Z" style="fill:rgb(12,8,47);fill-opacity:0.1;"/>
    </g>
    <g transform="matrix(-1,7.65714e-16,-7.65714e-16,-1,63,141)">
        <path d="M3,1.5C3,0.672 2.328,0 1.5,0C0.672,0 0,0.672 0,1.5L0,6.5C0,7.328 0.672,8 1.5,8C2.328,8 3,7.328 3,6.5L3,1.5Z" style="fill:rgb(12,8,47);fill-opacity:0.1;"/>
    </g>
    <g transform="matrix(-1,7.65714e-16,-7.65714e-16,-1,78,141)">
        <path d="M3,1.5C3,0.672 2.328,0 1.5,0C0.672,0 0,0.672 0,1.5L0,6.5C0,7.328 0.672,8 1.5,8C2.328,8 3,7.328 3,6.5L3,1.5Z" style="fill:rgb(12,8,47);fill-opacity:0.1;"/>
    </g>
    <g transform="matrix(-1,7.65714e-16,-7.65714e-16,-1,93,141)">
        <path d="M3,1.5C3,0.672 2.328,0 1.5,0C0.672,0 0,0.672 0,1.5L0,6.5C0,7.328 0.672,8 1.5,8C2.328,8 3,7.328 3,6.5L3,1.5Z" style="fill:rgb(12,8,47);fill-opacity:0.1;"/>
    </g>
    <g transform="matrix(-1,7.65714e-16,-7.65714e-16,-1,108,141)">
        <path d="M3,1.5C3,0.672 2.328,0 1.5,0C0.672,0 0,0.672 0,1.5L0,6.5C0,7.328 0.672,8 1.5,8C2.328,8 3,7.328 3,6.5L3,1.5Z" style="fill:rgb(12,8,47);fill-opacity:0.1;"/>
    </g>
    <g transform="matrix(-1,7.65714e-16,-7.65714e-16,-1,123,141)">
        <path d="M3,1.5C3,0.672 2.328,0 1.5,0C0.672,0 0,0.672 0,1.5L0,6.5C0,7.328 0.672,8 1.5,8C2.328,8 3,7.328 3,6.5L3,1.5Z" style="fill:rgb(12,8,47);fill-opacity:0.1;"/>
    </g>
    <g transform="matrix(-1,7.65714e-16,-7.65714e-16,-1,138,141)">
        <path d="M3,1.5C3,0.672 2.328,0 1.5,0C0.672,0 0,0.672 0,1.5L0,6.5C0,7.328 0.672,8 1.5,8C2.328,8 3,7.328 3,6.5L3,1.5Z" style="fill:rgb(12,8,47);fill-opacity:0.1;"/>
    </g>
    <g transform="matrix(-1,7.65714e-16,-7.65714e-16,-1,153,141)">
        <path d="M3,1.5C3,0.672 2.328,0 1.5,0C0.672,0 0,0.672 0,1.5L0,6.5C0,7.328 0.672,8 1.5,8C2.328,8 3,7.328 3,6.5L3,1.5Z" style="fill:rgb(12,8,47);fill-opacity:0.1;"/>
    </g>
</svg>
