<svg xmlns="http://www.w3.org/2000/svg" width="153" height="141" viewBox="0 0 153 141"><rect width="3" height="8" rx="1.5" transform="translate(3 8) rotate(-180)" fill="#0c082f" opacity="0.1"/><rect width="3" height="8" rx="1.5" transform="translate(18 8) rotate(-180)" fill="#0c082f" opacity="0.1"/><rect width="3" height="8" rx="1.5" transform="translate(33 8) rotate(-180)" fill="#ee485f"/><rect width="3" height="8" rx="1.5" transform="translate(48 8) rotate(-180)" fill="#0c082f" opacity="0.1"/><rect width="3" height="8" rx="1.5" transform="translate(63 8) rotate(-180)" fill="#0c082f" opacity="0.1"/><rect width="3" height="8" rx="1.5" transform="translate(78 8) rotate(-180)" fill="#0c082f" opacity="0.1"/><rect width="3" height="8" rx="1.5" transform="translate(93 8) rotate(-180)" fill="#0c082f" opacity="0.1"/><rect width="3" height="8" rx="1.5" transform="translate(108 8) rotate(-180)" fill="#0c082f" opacity="0.1"/><rect width="3" height="8" rx="1.5" transform="translate(123 8) rotate(-180)" fill="#0c082f" opacity="0.1"/><rect width="3" height="8" rx="1.5" transform="translate(138 8) rotate(-180)" fill="#0c082f" opacity="0.1"/><rect width="3" height="8" rx="1.5" transform="translate(153 8) rotate(-180)" fill="#0c082f" opacity="0.1"/><rect width="3" height="8" rx="1.5" transform="translate(3 27) rotate(-180)" fill="#4e21e7" opacity="0.1"/><rect width="3" height="8" rx="1.5" transform="translate(18 27) rotate(-180)" fill="#0c082f" opacity="0.1"/><rect width="3" height="8" rx="1.5" transform="translate(33 27) rotate(-180)" fill="#0c082f" opacity="0.1"/><rect width="3" height="8" rx="1.5" transform="translate(48 27) rotate(-180)" fill="#0c082f" opacity="0.1"/><rect width="3" height="8" rx="1.5" transform="translate(63 27) rotate(-180)" fill="#0c082f" opacity="0.1"/><rect width="3" height="8" rx="1.5" transform="translate(78 27) rotate(-180)" fill="#0c082f" opacity="0.1"/><rect width="3" height="8" rx="1.5" transform="translate(93 27) rotate(-180)" fill="#0c082f" opacity="0.1"/><rect width="3" height="8" rx="1.5" transform="translate(108 27) rotate(-180)" fill="#ee485f"/><rect width="3" height="8" rx="1.5" transform="translate(123 27) rotate(-180)" fill="#0c082f" opacity="0.1"/><rect width="3" height="8" rx="1.5" transform="translate(138 27) rotate(-180)" fill="#0c082f" opacity="0.1"/><rect width="3" height="8" rx="1.5" transform="translate(153 27) rotate(-180)" fill="#0c082f" opacity="0.1"/><rect width="3" height="8" rx="1.5" transform="translate(3 46) rotate(-180)" fill="#0c082f" opacity="0.1"/><rect width="3" height="8" rx="1.5" transform="translate(18 46) rotate(-180)" fill="#0c082f" opacity="0.1"/><rect width="3" height="8" rx="1.5" transform="translate(33 46) rotate(-180)" fill="#0c082f" opacity="0.1"/><rect width="3" height="8" rx="1.5" transform="translate(48 46) rotate(-180)" fill="#0c082f" opacity="0.1"/><rect width="3" height="8" rx="1.5" transform="translate(63 46) rotate(-180)" fill="#0c082f" opacity="0.1"/><rect width="3" height="8" rx="1.5" transform="translate(78 46) rotate(-180)" fill="#0c082f" opacity="0.1"/><rect width="3" height="8" rx="1.5" transform="translate(93 46) rotate(-180)" fill="#0c082f" opacity="0.1"/><rect width="3" height="8" rx="1.5" transform="translate(108 46) rotate(-180)" fill="#0c082f" opacity="0.1"/><rect width="3" height="8" rx="1.5" transform="translate(123 46) rotate(-180)" fill="#0c082f" opacity="0.1"/><rect width="3" height="8" rx="1.5" transform="translate(138 46) rotate(-180)" fill="#0c082f" opacity="0.1"/><rect width="3" height="8" rx="1.5" transform="translate(153 46) rotate(-180)" fill="#0c082f" opacity="0.1"/><rect width="3" height="8" rx="1.5" transform="translate(3 65) rotate(-180)" fill="#0c082f" opacity="0.1"/><rect width="3" height="8" rx="1.5" transform="translate(18 65) rotate(-180)" fill="#0c082f" opacity="0.1"/><rect width="3" height="8" rx="1.5" transform="translate(33 65) rotate(-180)" fill="#0c082f" opacity="0.1"/><rect width="3" height="8" rx="1.5" transform="translate(48 65) rotate(-180)" fill="#0c082f" opacity="0.1"/><rect width="3" height="8" rx="1.5" transform="translate(63 65) rotate(-180)" fill="#0c082f" opacity="0.1"/><path d="M1.5,0A1.5,1.5,0,0,1,3,1.5v5a1.5,1.5,0,0,1-3,0v-5A1.5,1.5,0,0,1,1.5,0Z" transform="translate(75 57)" fill="#ee485f"/><rect width="3" height="8" rx="1.5" transform="translate(93 65) rotate(-180)" fill="#0c082f" opacity="0.1"/><rect width="3" height="8" rx="1.5" transform="translate(108 65) rotate(-180)" fill="#0c082f" opacity="0.1"/><rect width="3" height="8" rx="1.5" transform="translate(123 65) rotate(-180)" fill="#0c082f" opacity="0.1"/><rect width="3" height="8" rx="1.5" transform="translate(138 65) rotate(-180)" fill="#0c082f" opacity="0.1"/><rect width="3" height="8" rx="1.5" transform="translate(153 65) rotate(-180)" fill="#0c082f" opacity="0.1"/><rect width="3" height="8" rx="1.5" transform="translate(3 84) rotate(-180)" fill="#0c082f" opacity="0.1"/><rect width="3" height="8" rx="1.5" transform="translate(18 84) rotate(-180)" fill="#0c082f" opacity="0.1"/><rect width="3" height="8" rx="1.5" transform="translate(33 84) rotate(-180)" fill="#ee485f"/><rect width="3" height="8" rx="1.5" transform="translate(48 84) rotate(-180)" fill="#0c082f" opacity="0.1"/><rect width="3" height="8" rx="1.5" transform="translate(63 84) rotate(-180)" fill="#0c082f" opacity="0.1"/><rect width="3" height="8" rx="1.5" transform="translate(78 84) rotate(-180)" fill="#0c082f" opacity="0.1"/><rect width="3" height="8" rx="1.5" transform="translate(93 84) rotate(-180)" fill="#0c082f" opacity="0.1"/><rect width="3" height="8" rx="1.5" transform="translate(108 84) rotate(-180)" fill="#0c082f" opacity="0.1"/><rect width="3" height="8" rx="1.5" transform="translate(123 84) rotate(-180)" fill="#0c082f" opacity="0.1"/><rect width="3" height="8" rx="1.5" transform="translate(138 84) rotate(-180)" fill="#0c082f" opacity="0.1"/><rect width="3" height="8" rx="1.5" transform="translate(153 84) rotate(-180)" fill="#0c082f" opacity="0.1"/><rect width="3" height="8" rx="1.5" transform="translate(3 103) rotate(-180)" fill="#0c082f" opacity="0.1"/><rect width="3" height="8" rx="1.5" transform="translate(18 103) rotate(-180)" fill="#0c082f" opacity="0.1"/><rect width="3" height="8" rx="1.5" transform="translate(33 103) rotate(-180)" fill="#0c082f" opacity="0.1"/><rect width="3" height="8" rx="1.5" transform="translate(48 103) rotate(-180)" fill="#0c082f" opacity="0.1"/><rect width="3" height="8" rx="1.5" transform="translate(63 103) rotate(-180)" fill="#0c082f" opacity="0.1"/><rect width="3" height="8" rx="1.5" transform="translate(78 103) rotate(-180)" fill="#0c082f" opacity="0.1"/><rect width="3" height="8" rx="1.5" transform="translate(93 103) rotate(-180)" fill="#0c082f" opacity="0.1"/><rect width="3" height="8" rx="1.5" transform="translate(108 103) rotate(-180)" fill="#0c082f" opacity="0.1"/><rect width="3" height="8" rx="1.5" transform="translate(123 103) rotate(-180)" fill="#ee485f"/><rect width="3" height="8" rx="1.5" transform="translate(138 103) rotate(-180)" fill="#0c082f" opacity="0.1"/><rect width="3" height="8" rx="1.5" transform="translate(153 103) rotate(-180)" fill="#0c082f" opacity="0.1"/><rect width="3" height="8" rx="1.5" transform="translate(3 122) rotate(-180)" fill="#0c082f" opacity="0.1"/><rect width="3" height="8" rx="1.5" transform="translate(18 122) rotate(-180)" fill="#0c082f" opacity="0.1"/><rect width="3" height="8" rx="1.5" transform="translate(33 122) rotate(-180)" fill="#0c082f" opacity="0.1"/><rect width="3" height="8" rx="1.5" transform="translate(48 122) rotate(-180)" fill="#0c082f" opacity="0.1"/><rect width="3" height="8" rx="1.5" transform="translate(63 122) rotate(-180)" fill="#ee485f"/><rect width="3" height="8" rx="1.5" transform="translate(78 122) rotate(-180)" fill="#0c082f" opacity="0.1"/><rect width="3" height="8" rx="1.5" transform="translate(93 122) rotate(-180)" fill="#0c082f" opacity="0.1"/><rect width="3" height="8" rx="1.5" transform="translate(108 122) rotate(-180)" fill="#0c082f" opacity="0.1"/><rect width="3" height="8" rx="1.5" transform="translate(123 122) rotate(-180)" fill="#0c082f" opacity="0.1"/><rect width="3" height="8" rx="1.5" transform="translate(138 122) rotate(-180)" fill="#0c082f" opacity="0.1"/><rect width="3" height="8" rx="1.5" transform="translate(153 122) rotate(-180)" fill="#0c082f" opacity="0.1"/><rect width="3" height="8" rx="1.5" transform="translate(3 141) rotate(-180)" fill="#0c082f" opacity="0.1"/><rect width="3" height="8" rx="1.5" transform="translate(18 141) rotate(-180)" fill="#0c082f" opacity="0.1"/><rect width="3" height="8" rx="1.5" transform="translate(33 141) rotate(-180)" fill="#0c082f" opacity="0.1"/><rect width="3" height="8" rx="1.5" transform="translate(48 141) rotate(-180)" fill="#0c082f" opacity="0.1"/><rect width="3" height="8" rx="1.5" transform="translate(63 141) rotate(-180)" fill="#0c082f" opacity="0.1"/><rect width="3" height="8" rx="1.5" transform="translate(78 141) rotate(-180)" fill="#0c082f" opacity="0.1"/><rect width="3" height="8" rx="1.5" transform="translate(93 141) rotate(-180)" fill="#0c082f" opacity="0.1"/><rect width="3" height="8" rx="1.5" transform="translate(108 141) rotate(-180)" fill="#0c082f" opacity="0.1"/><rect width="3" height="8" rx="1.5" transform="translate(123 141) rotate(-180)" fill="#0c082f" opacity="0.1"/><rect width="3" height="8" rx="1.5" transform="translate(138 141) rotate(-180)" fill="#0c082f" opacity="0.1"/><rect width="3" height="8" rx="1.5" transform="translate(153 141) rotate(-180)" fill="#0c082f" opacity="0.1"/></svg>