<?xml version="1.0" encoding="UTF-8" standalone="no"?><svg viewBox="0 0 1680 978" xmlns="http://www.w3.org/2000/svg" fill-rule="evenodd" clip-rule="evenodd" stroke-linejoin="round" stroke-miterlimit="2"><path fill="url(#_Radial1)" d="M0 0h1680v977H0z"/><g opacity=".5"><g opacity=".3"><path d="M829.397-429.475a356.011 356.011 0 0134.269-10.549c160.382-40.6 328.706 37.892 400.697 186.85a355.49 355.49 0 0124.495 67.3c40.599 160.383-37.891 328.705-186.848 400.696a355.49 355.49 0 01-67.3 24.495c-160.383 40.6-328.707-37.89-400.698-186.848a355.49 355.49 0 01-24.495-67.3c-40.6-160.383 37.892-328.707 186.849-400.698a355.977 355.977 0 0133.031-13.946zm239.24 657.305a354.871 354.871 0 0032.94-13.905c148.531-71.786 226.797-239.63 186.312-399.555a354.516 354.516 0 00-24.427-67.11c-71.784-148.533-239.627-226.8-399.552-186.317a354.516 354.516 0 00-67.11 24.426C648.266-342.846 570-175 610.483-15.076a354.516 354.516 0 0024.426 67.11c71.786 148.532 239.63 226.798 399.554 186.314a354.875 354.875 0 0034.172-10.518zM484.891 486.886l.342.94a219.626 219.626 0 00-53.383 28.22l-.585-.811a220.63 220.63 0 0153.626-28.349zm0 0a221.367 221.367 0 0149.423-11.804 219.027 219.027 0 0149.205-.292l-.105.996a218.026 218.026 0 00-48.986.29 220.358 220.358 0 00-49.195 11.75l-.342-.94zm-61.618 34.396l.622.784a217.283 217.283 0 00-15.041 13.1l-.69-.724a219.459 219.459 0 0115.11-13.16zm189.826-41.26a221.392 221.392 0 0155.69 22.202l-.494.87a220.374 220.374 0 00-55.438-22.101l.242-.97zm-242.24 101.352l.86.51a221.317 221.317 0 00-13.48 26.702l-.922-.389a222.28 222.28 0 0113.541-26.823zm314.905-68.495a218.25 218.25 0 018.104 5.893l-.607.795a219.95 219.95 0 00-8.07-5.865l.573-.823zm-345.49 193.209l.998-.056c.186 3.305.449 6.647.788 9.944l-.995.102a217.86 217.86 0 01-.79-9.99zm3.74 29.81l.982-.193a222.042 222.042 0 0019.283 56.49l-.894.447a223.051 223.051 0 01-19.368-56.745h-.003zM757.2 595.327a223.537 223.537 0 0111.556 27.74l-.947.322a222.485 222.485 0 00-11.505-27.615l.896-.447zM379.459 817.963a218.633 218.633 0 0072.976 66.767l-.492.872a219.634 219.634 0 01-73.308-67.073l.824-.566zM779.17 681.975l.999-.054c.362 6.643.419 13.385.172 20.038l-1-.037c.248-6.622.19-13.333-.17-19.947h-.001zm-.426 29.904l.997.084a221.004 221.004 0 01-30.356 94.621l-.86-.512a220.005 220.005 0 0030.22-94.193zM461.232 889.432a221.55 221.55 0 0018.19 8.188l-.37.93a223.306 223.306 0 01-18.272-8.227l.452-.891zm270.281-58.757l.782.623a219.087 219.087 0 01-43.427 41.328l-.584-.812a218.09 218.09 0 0043.23-41.14zm-194.146 81.23a218.638 218.638 0 0029.89 1.09l.032.998a219.64 219.64 0 01-30.027-1.096l.105-.993zM671.572 882.7l.507.862a226.046 226.046 0 01-8.753 4.882l-.466-.885c2.93-1.546 5.86-3.181 8.712-4.859zM595.219 789.558a105.562 105.562 0 01-8.132 2.598 102.696 102.696 0 01-56.534-.568 104.289 104.289 0 01-17.206-6.838l.45-.898a102.07 102.07 0 0035.158 10.403 101.7 101.7 0 0037.865-3.066 103.686 103.686 0 0019.31-7.443 101.658 101.658 0 0031.17-24.467 102.44 102.44 0 0023.825-53.132c.891-6.646 1.115-13.368.68-20.062a103.108 103.108 0 00-10.87-39.718 101.492 101.492 0 00-24.477-31.168 102.439 102.439 0 00-53.126-23.838 101.412 101.412 0 00-20.063-.679 103.253 103.253 0 00-39.742 10.89 101.539 101.539 0 00-31.205 24.521 102.907 102.907 0 00-11.288 16.06l-.87-.492a103.209 103.209 0 0125.799-30.046 101.799 101.799 0 0117.113-10.933 104.14 104.14 0 0140.132-10.988c13.44-.88 26.92.896 39.68 5.223a103.518 103.518 0 0148.033 33.907 103.297 103.297 0 0110.912 17.088 104.34 104.34 0 0110.979 40.104 102.771 102.771 0 01-5.234 39.683 103.374 103.374 0 01-33.906 48.033 102.333 102.333 0 01-28.45 15.836l-.003-.01z" fill="#334eff" fill-rule="nonzero"/><path d="M685.963-823.544a784.503 784.503 0 0147.851-15.693 778.72 778.72 0 0148.124-12.416l.219.976a775.406 775.406 0 00-48.058 12.399 783.454 783.454 0 00-47.794 15.673l-.342-.94zm-2.792 1.021l.342.94a782.349 782.349 0 00-18.666 7.146l-.37-.93a794.26 794.26 0 0118.694-7.156zm-73.576 31.462l.44.898a773.288 773.288 0 00-26.651 13.712l-.475-.88a783.83 783.83 0 0126.689-13.725l-.003-.005zm201.752-66.583a768.155 768.155 0 0159.419-8.496l.102.995a767.685 767.685 0 00-59.34 8.485l-.18-.984zm79.353-10.29c3.313-.254 6.67-.489 9.983-.7l.064 1c-3.31.21-6.665.445-9.971.699l-.076-.998zM498.182-724.216l.585.81a700.212 700.212 0 00-8.061 5.903l-.596-.803a978.43 978.43 0 018.075-5.9l-.003-.01zM474.2-706.17l.616.786a766.1 766.1 0 00-45.695 38.806l-.676-.736a771.282 771.282 0 0145.759-38.847l-.004-.01zm526.48-162.266c9.929.674 19.997 1.554 29.896 2.613l-.105.997a759.376 759.376 0 00-29.864-2.609l.072-1zM406.755-646.563l.705.709a770.833 770.833 0 00-34.327 36.438 771.1 771.1 0 00-31.755 38.446l-.79-.61a773.22 773.22 0 0131.795-38.497 768.705 768.705 0 0134.372-36.486zm683.218-210.53a767.455 767.455 0 0119.629 3.932l-.218.981a784.373 784.373 0 00-19.598-3.934l.187-.98zm29.396 6.091a773.55 773.55 0 0148.435 12.7 780.196 780.196 0 0147.425 15.775l-.35.94a772.495 772.495 0 00-47.363-15.751 774.252 774.252 0 00-48.364-12.682l.217-.982zM334.524-563.626l.799.6a770.766 770.766 0 00-11.807 16.129l-.815-.58a786.689 786.689 0 0111.823-16.15zm-44.723 66.354l.857.515a776.89 776.89 0 00-14.944 25.988l-.876-.481a784.4 784.4 0 0114.963-26.022zm953.374-314.322a776.197 776.197 0 0154.536 25.077l-.453.891a778.362 778.362 0 00-54.46-25.046l.377-.922zm72.262 34.367a814.313 814.313 0 018.776 4.814l-.481.871a812.02 812.02 0 00-8.764-4.808l.469-.877zM232.443-380.686l.931.365a756.122 756.122 0 00-3.583 9.33l-.936-.353c1.17-3.107 2.378-6.25 3.588-9.342zm-10.398 28.154l.945.33a775.336 775.336 0 00-17.462 57.347l-.967-.253a774.744 774.744 0 0117.482-57.42l.002-.004zm1186.173-365.645a775.621 775.621 0 0123.768 18.343l-.631.78a774.42 774.42 0 00-23.728-18.322l.591-.801zM197.503-265.927l.977.215a773.592 773.592 0 00-9.19 49.013 767.188 767.188 0 00-6 49.694l-.996-.087a769.091 769.091 0 016.009-49.756 772.6 772.6 0 019.2-49.08zM1477.256-660.42a757.66 757.66 0 0114.395 13.907l-.7.708a751.958 751.958 0 00-14.377-13.887l.682-.728zm21.456 20.998a768.77 768.77 0 0133.758 36.7 771.866 771.866 0 0131.493 39.072l-.803.603a769.993 769.993 0 00-31.443-39.023 766.828 766.828 0 00-33.719-36.652l.714-.7zM181.486-157.12l.998.075a767.736 767.736 0 00-1.225 19.949l-.999-.049c.319-6.634.734-13.356 1.228-19.979l-.002.004zm-1.761 79.997l1-.03c.301 9.942.805 20.014 1.498 29.936l-.998.07a757.63 757.63 0 01-1.5-29.976zm1401.817-462.204a764.358 764.358 0 0132.232 50.636l-.86.503a771.919 771.919 0 00-32.187-50.571l.815-.568zm42.085 68.057c1.591 2.911 3.2 5.87 4.758 8.804l-.883.469a659.232 659.232 0 00-4.753-8.79l.878-.483zM194.695 51.944l.98-.2c.66 3.246 1.35 6.533 2.053 9.773l-.978.212a745.713 745.713 0 01-2.055-9.785zm6.547 29.287l.971-.238a777.946 777.946 0 0016.462 57.643l-.95.312a779.482 779.482 0 01-16.483-57.717zm1468.265-452.554a757.75 757.75 0 012.863 7.749 789.662 789.662 0 017.166 20.565l-.95.316a787.65 787.65 0 00-7.156-20.54 755.855 755.855 0 00-2.859-7.738l.936-.352zM228.565 166.961a781.823 781.823 0 0018.992 46.561 774.754 774.754 0 0021.669 44.656l-.886.466a773.317 773.317 0 01-21.695-44.715 783.815 783.815 0 01-19.017-46.62l.937-.348zm1466.741-452.082l.974-.248a776.293 776.293 0 014.58 19.483l-.976.216a729.232 729.232 0 00-4.578-19.45zm6.677 29.222l.98-.203c3.396 16.35 6.3 33.009 8.616 49.52a769.574 769.574 0 015.311 49.502l-1.004.077a763.015 763.015 0 00-13.903-98.896zM273.93 266.985a788.935 788.935 0 009.756 17.446l-.867.5a787.835 787.835 0 01-9.769-17.469l.88-.477zm41.718 68.165a776.247 776.247 0 0017.445 24.375l-.802.598a766.764 766.764 0 01-17.468-24.406l.825-.567zM1717.53-127.078l.999-.034a769.053 769.053 0 01-.265 60.03l-.994-.042c.867-19.896.955-40.063.26-59.954zm-1.395 79.906l.996.074c-.233 3.309-.489 6.669-.766 9.973l-.989-.087c.267-3.3.527-6.651.76-9.96zM397.915 435.493c2.312 2.373 4.672 4.77 7.014 7.11l-.705.714a795.409 795.409 0 01-7.024-7.127l.716-.697zm21.323 21.068a769.859 769.859 0 0045.042 39.56l-.628.783a772.97 772.97 0 01-45.1-39.614l.686-.73zm1281.4-395.006l.983.217a779.145 779.145 0 01-6.927 29.21l-.966-.254a799.81 799.81 0 006.913-29.163l-.003-.01zM487.92 514.547a772.922 772.922 0 0040.983 28.662 776.365 776.365 0 0042.671 25.886l-.49.87a773.832 773.832 0 01-42.726-25.92 774.258 774.258 0 01-41.036-28.695l.598-.803zm1188.605-366.382l.948.325a814.615 814.615 0 01-6.73 18.849l-.936-.351a781.889 781.889 0 006.718-18.823zm-10.255 28.166l.93.364a775.676 775.676 0 01-19.525 46.056 780.903 780.903 0 01-22.458 44.696l-.886-.476a768.97 768.97 0 0022.434-44.645 778.993 778.993 0 0019.505-45.995zM580.315 573.96a743.405 743.405 0 0017.664 9.352l-.456.89a764.15 764.15 0 01-17.683-9.367l.475-.875zm72.011 34.65a777.09 777.09 0 0027.868 11.045l-.35.936a777.91 777.91 0 01-27.906-11.063l.388-.918zm957.195-315.582l.855.509a774.186 774.186 0 01-32.666 50.359l-.82-.585a774.976 774.976 0 0032.618-50.289l.013.006zm-44.36 66.471l.79.596a571.938 571.938 0 01-6.023 7.981l-.795-.604c2.01-2.637 4.034-5.32 6.014-7.979l.013.006zM775.803 648.525c3.23.75 6.51 1.494 9.747 2.2l-.212.98c-3.24-.714-6.53-1.464-9.76-2.204l.225-.976zm29.325 6.215a768.738 768.738 0 0059.275 8.99l-.11.997a774.996 774.996 0 01-59.349-8.994l.184-.993zm688.275-212.084l.702.703a770.332 770.332 0 01-21.59 20.851l-.684-.74a767.826 767.826 0 0021.563-20.81l.009-.004zm-599.153 223.82a768.663 768.663 0 0049.764 1.97 765.449 765.449 0 0050.101-1.305l.06 1a766.677 766.677 0 01-50.171 1.297 763.243 763.243 0 01-49.827-1.966l.073-.995zm532.062-163.984l.625.783a746.226 746.226 0 01-15.86 12.21l-.597-.793a854.058 854.058 0 0015.828-12.21l.004.01zm-23.865 18.135l.589.808a768.785 768.785 0 01-41.166 28.008 770.712 770.712 0 01-43.312 25.502l-.48-.879a768.983 768.983 0 0043.256-25.47 767.2 767.2 0 0041.105-27.976l.008.007zm-398.365 145.855a755.14 755.14 0 0019.917-1.694l.099.997c-6.61.65-13.32 1.219-19.94 1.702l-.076-1.005zm79.301-9.91a775.029 775.029 0 0029.398-5.836l.213.975a777.028 777.028 0 01-29.434 5.85l-.177-.989zm208.103-68.677l.447.902a780.171 780.171 0 01-54.772 24.553l-.374-.928a778.191 778.191 0 0054.692-24.535l.007.008zm-73.333 31.756l.35.937c-2.019.756-4.07 1.514-6.098 2.252-1.1.4-2.216.806-3.319 1.197l-.342-.94c1.102-.39 2.217-.796 3.315-1.196 2.023-.746 4.072-1.503 6.087-2.258l.007.008zM658.233-899.736l.342.94a865.992 865.992 0 00-57.85 23.455l-.41-.915a868.569 868.569 0 0157.918-23.48zm0 0a865.674 865.674 0 0166.726-21.267l.266.967a863.216 863.216 0 00-66.65 21.24l-.342-.94zm76.389-23.858a855.82 855.82 0 0144.94-10.479 851.323 851.323 0 0145.026-7.96 845.41 845.41 0 01267.201 2.885l-.172.988a843.912 843.912 0 00-266.89-2.877 849.616 849.616 0 00-44.968 7.95 850.504 850.504 0 00-44.887 10.467l-.25-.974zm-422.36 259.086l.75.662a865.28 865.28 0 00-6.575 7.525l-.757-.653a897.049 897.049 0 016.583-7.534zm-50.122 62.374l.809.59a853.938 853.938 0 00-145.355 326.221l-.979-.207A855.167 855.167 0 01262.14-602.134zm898.121-322.387c3.207.829 6.468 1.69 9.674 2.545l-.265.967a797.525 797.525 0 00-9.665-2.549l.256-.963zM114.604-265.73l.981.196a851.06 851.06 0 00-10.82 69.098l-.993-.114a852.073 852.073 0 0110.832-69.18zm1373.462-493.024a852.86 852.86 0 0152.36 46.496l-.695.72a847.16 847.16 0 00-52.298-46.44l.633-.776zm59.513 53.487a845.039 845.039 0 01157.84 215.135 848.076 848.076 0 0119.862 41.356 871.193 871.193 0 0117.8 42.825l-.934.358a858.56 858.56 0 00-37.616-84.08 843.674 843.674 0 00-157.65-214.882l.698-.712zM139.055 159.204l.953-.306a874.105 874.105 0 003.115 9.508l-.95.317a903.526 903.526 0 01-3.118-9.519zm28.892 74.604a859.686 859.686 0 0019.275 41.996 853.797 853.797 0 0021.297 40.489 843.829 843.829 0 00165.577 209.076l-.677.736a844.68 844.68 0 01-165.768-209.326 854.762 854.762 0 01-40.625-82.579l.92-.392zm1596.648-573.134l.962-.283c.935 3.183 1.866 6.414 2.771 9.603l-.965.271a1094.79 1094.79 0 00-2.768-9.59zM381.5 532.082a851.011 851.011 0 0053.97 44.484l-.606.795a853.344 853.344 0 01-54.03-44.537l.666-.742zM1789.482 26.663l.991.15a852.964 852.964 0 01-13.376 68.741l-.968-.233a854.694 854.694 0 0013.353-68.658zm-15.726 78.365l.971.242a854.93 854.93 0 01-157.37 321.067l-.788-.618a854.245 854.245 0 00157.187-320.69zM758.982 727.862c3.229.74 6.512 1.483 9.749 2.188l-.212.982a984.607 984.607 0 01-9.762-2.194l.225-.976zm78.638 14.276a843.676 843.676 0 00266.619-6.948 859.628 859.628 0 0044.722-9.606 861.296 861.296 0 0044.58-12.128l.29.958a863.329 863.329 0 01-44.634 12.138 861.5 861.5 0 01-44.774 9.624 844.766 844.766 0 01-266.939 6.958l.136-.996zm733.49-263.287l.727.683a746.661 746.661 0 01-6.862 7.286l-.721-.695a826.412 826.412 0 006.846-7.27l.01-.004zm-368.016 231.67a861.46 861.46 0 0036.7-12.431 854.408 854.408 0 0029.147-11.215l.375.927a856.38 856.38 0 01-29.18 11.227 863.429 863.429 0 01-36.742 12.448l-.3-.956zM477.187-1397.182l.342.94a1405.06 1405.06 0 00-91.714 37.094l-.408-.915a1407.655 1407.655 0 0191.78-37.12zm0 0a1415.84 1415.84 0 0128.32-9.967l.322.946a1408.026 1408.026 0 00-28.3 9.96l-.342-.94zm66.375-22.302A1395.164 1395.164 0 01626-1442.158a1385.144 1385.144 0 0182.737-17.374l.178.984a1383.957 1383.957 0 00-82.679 17.36 1393.995 1393.995 0 00-82.378 22.659l-.295-.955zm-194.446 76.252l.436.906a1400.386 1400.386 0 00-26.884 13.296l-.452-.89a1395.826 1395.826 0 0126.9-13.312zm-35.805 17.877l.452.891a1381.296 1381.296 0 00-74.552 41.56 1375.51 1375.51 0 00-71.165 45.66l-.566-.824a1376.74 1376.74 0 0171.217-45.693 1381.714 1381.714 0 0174.604-41.59l.01-.004zm405.292-135.897a1348.645 1348.645 0 0129.633-4.72l.147.99a1370.942 1370.942 0 00-29.611 4.72l-.169-.99zm69.305-10.015a1378.365 1378.365 0 0185.005-7.4 1374.31 1374.31 0 0184.683-2.089l-.008 1.001c-28.104-.172-56.57.53-84.618 2.091a1373.315 1373.315 0 00-84.943 7.399l-.12-1.002zM134.816-1214.95l.59.808a1379.33 1379.33 0 00-24.026 17.945l-.609-.794a1355.133 1355.133 0 0124.045-17.959zm-31.973 24.06l.613.79a1374.33 1374.33 0 00-65.66 54.29 1377.89 1377.89 0 00-61.815 57.926l-.706-.708a1375.718 1375.718 0 0161.862-57.966 1373.665 1373.665 0 0165.706-54.332zm864.748-289.77c9.956.134 20.05.381 30 .735l-.03.998c-9.95-.35-20.033-.6-29.989-.732l.019-1.002zm69.965 2.735a1381.567 1381.567 0 0184.795 8.134 1383.04 1383.04 0 0183.804 13.301l-.186.982a1382.534 1382.534 0 00-83.746-13.29 1376.056 1376.056 0 00-84.73-8.13l.063-.997zM-52.65-1049.933l.727.687a1376.352 1376.352 0 00-20.374 22.004l-.741-.67a1399.038 1399.038 0 0120.388-22.021zm-27.077 29.46l.746.666a1384.148 1384.148 0 00-54.668 65.186 1387.848 1387.848 0 00-50.41 68.237l-.822-.57a1388.073 1388.073 0 0150.446-68.285 1386.679 1386.679 0 0154.708-65.234zm1295.696-434.11c9.77 1.932 19.653 4 29.374 6.148l-.21.974a1393.021 1393.021 0 00-29.35-6.144l.186-.978zm68.325 15.333a1395.128 1395.128 0 0181.84 23.26 1391.066 1391.066 0 0180.136 28.192l-.353.93a1395.002 1395.002 0 00-80.085-28.17 1394.414 1394.414 0 00-81.782-23.243l.244-.969zm-1491.47 585.524l.837.546a1390.613 1390.613 0 00-16.078 25.316l-.85-.527a1376.67 1376.67 0 0116.089-25.34l.002.005zm-21.33 33.855l.853.52a1392.54 1392.54 0 00-42.014 73.87 1396.463 1396.463 0 00-37.392 76.259l-.911-.413a1394.537 1394.537 0 0137.418-76.315 1391.135 1391.135 0 0142.044-73.926l.001.005zm1684.095-564.28c9.267 3.65 18.616 7.465 27.798 11.32l-.387.923a1367.261 1367.261 0 00-27.775-11.314l.364-.93zm64.461 27.348a1399.794 1399.794 0 0176.27 37.512 1391.925 1391.925 0 0173.867 42.139l-.53.855a1390.45 1390.45 0 00-73.813-42.108 1392.332 1392.332 0 00-76.208-37.489l.414-.91zM-323.954-632.955l.923.386a1386.256 1386.256 0 00-11.277 27.785l-.931-.367c3.641-9.263 7.44-18.62 11.285-27.804zm-14.918 37.129l.933.36a1392.145 1392.145 0 00-28.07 80.117 1389.798 1389.798 0 00-23.14 81.81l-.97-.242a1388.841 1388.841 0 0123.156-81.87 1393.105 1393.105 0 0128.091-80.175zm2017.576-676.082a1461.046 1461.046 0 0125.31 16.123l-.546.837a1404.9 1404.9 0 00-25.295-16.11l.531-.85zm58.503 38.463a1386.742 1386.742 0 0168.227 50.529 1388.69 1388.69 0 0165.169 54.789l-.666.744a1386.706 1386.706 0 00-65.122-54.75 1391.326 1391.326 0 00-68.172-50.493l.564-.819zm-2136.465 838.62l.977.214a1387.52 1387.52 0 00-6.108 29.36l-.981-.194a1378.621 1378.621 0 016.112-29.38zm-8.008 39.203l.983.186a1380.69 1380.69 0 00-13.186 83.761 1378.478 1378.478 0 00-8.018 84.754l-.998-.063a1378.984 1378.984 0 018.026-84.812 1383.334 1383.334 0 0113.192-83.824l.001-.002zm2285.3-765.801a1416.037 1416.037 0 0121.99 20.417l-.685.724a1414.447 1414.447 0 00-21.982-20.4l.677-.741zm50.618 48.377a1375.813 1375.813 0 0157.883 61.931 1378.094 1378.094 0 0154.248 65.776l-.79.607a1375.176 1375.176 0 00-54.208-65.723 1381.464 1381.464 0 00-57.844-61.886l.711-.705zM-430.436-147.03l.999.035c-.34 9.946-.574 20.033-.695 29.983l-1-.013c.122-9.956.357-20.051.696-30.005zm-.781 40.004l1 .004c-.14 28.1.6 56.57 2.2 84.618 1.609 28.251 4.135 56.831 7.5 84.935l-.992.116a1376.75 1376.75 0 01-7.507-84.994c-1.6-28.07-2.34-56.56-2.201-84.679zm2478.09-830.38a1369.159 1369.159 0 0117.924 24.068l-.808.589a1367.062 1367.062 0 00-17.906-24.052l.79-.605zm41.005 56.755a1374.806 1374.806 0 0145.6 71.283 1381.862 1381.862 0 0141.498 74.66l-.886.46a1379.896 1379.896 0 00-41.467-74.606 1372.833 1372.833 0 00-45.57-71.23l.825-.567zM-416.169 102.314l.99-.147c1.468 9.83 3.07 19.793 4.754 29.599l-.983.176a1361.405 1361.405 0 01-4.76-29.628zm6.494 39.49l.983-.177a1383.85 1383.85 0 0017.464 82.652 1394.134 1394.134 0 0022.762 82.352l-.957.295a1396.097 1396.097 0 01-22.779-82.41 1385.846 1385.846 0 01-17.473-82.711zM2179.538-725.8c4.5 8.887 8.968 17.945 13.278 26.922l-.905.436a1406.718 1406.718 0 00-13.269-26.893l.896-.465zm30.06 63.233a1404.682 1404.682 0 0136.417 90.204 1398.728 1398.728 0 0123.11 69.019l-.957.295a1408.241 1408.241 0 00-23.093-68.972 1402.66 1402.66 0 00-36.394-90.138l.916-.408zM-357.04 344.964l.946-.323c3.032 8.868 6.19 17.839 9.402 26.663l.592 1.625-.94.342-.592-1.625a1448.536 1448.536 0 01-9.408-26.682zm14.413 37.364a1403.4 1403.4 0 0032.333 79.123 1389.519 1389.519 0 0036.649 76.063l-.887.461a1391.509 1391.509 0 01-36.676-76.116 1405.686 1405.686 0 01-32.355-79.18l.936-.35zm2613.695-875.803l.96-.285a1419.164 1419.164 0 018.276 28.849l-.97.257a1416.328 1416.328 0 00-8.266-28.82zm18.31 67.53l.968-.235a1376.054 1376.054 0 0130.074 167.272l-.99.115a1383.492 1383.492 0 00-12.367-83.623 1384.94 1384.94 0 00-17.685-83.529zM-254.683 572.722a1383.934 1383.934 0 0014.89 26.038l-.863.505a1365.453 1365.453 0 01-14.9-26.055l.873-.488zm19.98 34.635a1377.659 1377.659 0 0045.944 71.87 1376.574 1376.574 0 0049.903 68.323l-.788.617a1375.958 1375.958 0 01-49.944-68.382 1376.1 1376.1 0 01-45.973-71.914l.858-.514zm2555.255-856.225l.994-.106c1.08 9.897 2.066 19.946 2.932 29.868l-1 .088c-.872-9.91-1.858-19.958-2.935-29.846l.01-.004zm5.806 69.72l1.001-.057a1378.83 1378.83 0 012.25 85.242 1375.507 1375.507 0 01-3.029 84.714l-.992-.064a1376.301 1376.301 0 003.021-84.648c.123-28.288-.635-56.947-2.26-85.184l.009-.004zm-2440.19 957.88c6.34 7.664 12.855 15.37 19.36 22.889l-.756.658a1364.4 1364.4 0 01-19.376-22.915l.772-.632zm25.932 30.436a1376.322 1376.322 0 0058.125 62.233 1382.481 1382.481 0 0061.576 58.243l-.663.752a1382.5 1382.5 0 01-61.623-58.29 1377.506 1377.506 0 01-58.168-62.28l.753-.658zM2324.877.662l.995.074c-.728 9.927-1.589 19.989-2.536 29.9l-.993-.096c.941-9.899 1.802-19.96 2.534-29.878zm-6.936 69.62l.993.129a1385.61 1385.61 0 01-13.218 84.113 1383.135 1383.135 0 01-18.314 82.893l-.962-.246a1392.117 1392.117 0 0018.293-82.832 1379.89 1379.89 0 0013.208-84.056zM62.06 955.78a1409.328 1409.328 0 0023.19 19.016l-.63.771a1388.715 1388.715 0 01-23.204-19.02l.645-.767zm31.012 25.236a1391.285 1391.285 0 0068.32 50.647 1387.434 1387.434 0 0071.155 46.253l-.517.859a1385.256 1385.256 0 01-139.576-96.97l.618-.79zm2190.876-734.17l.965.256a1442.905 1442.905 0 01-7.892 28.955l-.963-.277a1401.897 1401.897 0 007.89-28.933zm-19.384 67.235l.951.303a1395.06 1395.06 0 01-28.087 80.278 1400.075 1400.075 0 01-32.93 78.347l-.906-.415a1392.492 1392.492 0 0032.896-78.293 1388.088 1388.088 0 0028.076-80.22zM267.02 1098.178a1390.87 1390.87 0 0026.232 14.545l-.477.876c-8.76-4.729-17.594-9.633-26.248-14.55l.493-.871zm35.044 19.266a1395.164 1395.164 0 0076.212 37.516 1387.476 1387.476 0 0078.38 32.801l-.358.929a1396.772 1396.772 0 01-78.433-32.814 1395.228 1395.228 0 01-76.274-37.558l.473-.874zm1897.342-635.77l.897.418c-4.195 9.03-8.555 18.13-12.955 27.063l-.895-.44c4.39-8.93 8.742-18.027 12.95-27.05l.003.009zm-31.125 62.664l.883.466a1395.585 1395.585 0 01-41.976 73.872 1399.572 1399.572 0 01-46.486 71.246l-.825-.572a1387.81 1387.81 0 0046.452-71.191 1399.912 1399.912 0 0041.952-73.82zM494.197 1201.511c9.39 3.286 18.952 6.521 28.41 9.602l-.309.953a1442.95 1442.95 0 01-28.429-9.606l.328-.95zm37.922 12.674a1384.375 1384.375 0 0081.619 23.225 1381.727 1381.727 0 0083.083 18.213l-.185.982a1382.404 1382.404 0 01-83.141-18.223 1391.47 1391.47 0 01-81.677-23.247l.301-.95zm1542.009-516.656l.816.576a1424.402 1424.402 0 01-17.599 24.305l-.813-.598a1335.32 1335.32 0 0017.605-24.286l-.01.003zm-41.859 56.068l.78.62a1378.586 1378.586 0 01-113.131 126.811l-.703-.702a1377.76 1377.76 0 0058.587-61.74 1376.693 1376.693 0 0054.467-64.99zM736.23 1262.403c9.833 1.55 19.816 3.004 29.67 4.334l-.132.995a1398.744 1398.744 0 01-29.699-4.344l.16-.985zm39.58 5.633a1384.44 1384.44 0 0084.356 8.129 1373.158 1373.158 0 0085.116 2.893l-.003 1.001a1375.256 1375.256 0 01-85.18-2.902 1378.837 1378.837 0 01-84.415-8.128l.127-.993zm1136.284-380.701l.696.715a1394.894 1394.894 0 01-21.71 20.725l-.681-.73a1367.324 1367.324 0 0021.695-20.71zm-51.302 47.576l.656.75a1378.428 1378.428 0 01-65.273 54.012 1379.215 1379.215 0 01-68.977 50.21l-.567-.826a1369.252 1369.252 0 00134.16-104.146zm-875.522 343.682c9.948-.258 20.029-.639 29.967-1.117l.046 1.005c-9.944.48-20.035.854-29.99 1.114l-.023-1.002zm39.958-1.635a1377.313 1377.313 0 0084.274-7.304 1378.088 1378.088 0 0084.382-12.622l.18.989a1380.115 1380.115 0 01-84.446 12.623 1379.285 1379.285 0 01-84.334 7.315l-.056-1.001zm693.129-232.303l.547.832a1456.076 1456.076 0 01-25.098 16.447l-.542-.846c8.382-5.36 16.83-10.893 25.093-16.433zm-59.089 37.469l.514.856a1370.435 1370.435 0 01-73.833 41.196 1387.332 1387.332 0 01-77.07 36.98l-.408-.916a1385.366 1385.366 0 0077.018-36.95 1376.273 1376.273 0 0073.78-41.166zm-426.156 167.197a1405.038 1405.038 0 0029.274-6.526l.226.971a1344.439 1344.439 0 01-29.292 6.533l-.208-.978zm38.989-8.838c24.9-6.03 49.989-12.853 74.572-20.278a1411.847 1411.847 0 0074.182-24.68c4.53-1.65 9.105-3.346 13.608-5.038l.351.936a1405.61 1405.61 0 01-13.617 5.041 1414.29 1414.29 0 01-74.239 24.701 1403.084 1403.084 0 01-74.622 20.286l-.235-.968zm227.22-76.231l.399.919c-9.126 3.96-18.436 7.88-27.653 11.65l-.38-.926c9.22-3.76 18.512-7.674 27.638-11.634l-.003-.01z" fill="#334eff" fill-rule="nonzero"/><g><path d="M2154.548 112.69l-3193.29-563.066.174-.985L2154.72 111.7l-.172.989z" fill="#334eff" fill-rule="nonzero"/></g><g><path d="M3211.055-498.679L-743.313 198.582l-.174-.985 3954.365-697.26.177.984z" fill="#334eff" fill-rule="nonzero"/></g><g><path d="M-433.407 698.459l-.5-.866 3127.102-1805.431.506.864L-433.407 698.459z" fill="#334eff" fill-rule="nonzero"/></g><g><path d="M499.98 829.43l-.904-.438 910.696-1884.589.903.435L499.98 829.429z" fill="#334eff" fill-rule="nonzero"/></g></g><circle cx="8" cy="8" r="8" fill="#fff0ed" transform="translate(1388 275)"/></g><defs><radialGradient id="_Radial1" cx="0" cy="0" r="1" gradientUnits="userSpaceOnUse" gradientTransform="matrix(596.844 -620.926 1080.98 352.236 155.954 976.666)"><stop offset="0" stop-color="#3c6e99"/><stop offset="1" stop-color="#08103f"/></radialGradient></defs></svg>