<?xml version="1.0" encoding="UTF-8" standalone="no"?><svg xmlns="http://www.w3.org/2000/svg" width="1680.001" height="950.001"><defs><radialGradient id="a" cx="1" cy="0" r=".711" gradientTransform="matrix(-.401 .916 -.496 -.217 1.316 -.556)" gradientUnits="objectBoundingBox"><stop offset="0" stop-color="#3c8499"/><stop offset="1" stop-color="#002039"/></radialGradient><clipPath id="b"><path transform="translate(.5 99.865)" fill="url(#a)" d="M0 0h1680v950H0z"/></clipPath></defs><path transform="translate(.001)" fill="url(#a)" d="M0 0h1680v950H0z"/><g clip-path="url(#b)" transform="translate(-.5 -99.864)"><g opacity=".4" style="mix-blend-mode:exclusion;isolation:isolate"><g transform="rotate(165.02 1133.353 810.557)"><circle cx="269.322" cy="269.322" r="269.322" fill="none" stroke="#0da49a" stroke-miterlimit="10" transform="translate(1564.689 793.006)"/><circle cx="190.716" cy="190.716" r="190.716" transform="translate(541.892 871.613)" fill="none" stroke="#0da49a" stroke-miterlimit="10"/><circle cx="248.827" cy="248.827" r="248.827" transform="translate(3023.506 813.501)" fill="none" stroke="#0da49a" stroke-miterlimit="10"/><path d="M3025.131 1648.944a158.1 158.1 0 11158.1-158.1 159.917 159.917 0 01-1.129 18.993" fill="none" stroke="#0da49a" stroke-miterlimit="10"/><circle cx="270.946" cy="270.946" r="270.946" transform="translate(0 791.383)" fill="none" stroke="#0da49a" stroke-miterlimit="10" stroke-dasharray="50 10 90"/><circle cx="169.197" cy="169.197" r="169.197" transform="translate(1174.18 1365.367)" fill="none" stroke="#0da49a" stroke-miterlimit="10" stroke-dasharray="100 30 60 20 10"/><path d="M1292.206 1473.397a79.053 79.053 0 11-6.4 114.356" fill="none" stroke="#0da49a" stroke-miterlimit="10"/><circle cx="30.311" cy="30.311" r="30.311" transform="translate(2123.992 297.481)" fill="none" stroke="#0da49a" stroke-miterlimit="10"/><path d="M1992.423 362.519a65.083 65.083 0 11-65.083 65.083 65.083 65.083 0 0165.083-65.083z" fill="none" stroke="#0da49a"/><circle cx="188.94" cy="188.94" r="188.94" transform="translate(1805.308 239.474)" fill="none" stroke="#0da49a" stroke-miterlimit="10" stroke-dasharray="30 3 100 19"/><circle cx="592.25" cy="592.25" r="592.25" transform="translate(1241.762 470.079)" fill="none" stroke="#0da49a" stroke-miterlimit="10" stroke-dasharray="100 30 60 20 10"/><circle cx="654.686" cy="654.686" r="654.686" transform="translate(1179.325 407.642)" fill="none" stroke="#0da49a" stroke-miterlimit="10" stroke-dasharray="70 10 360"/><circle cx="1062.329" cy="1062.329" r="1062.329" transform="translate(771.683)" fill="none" stroke="#0da49a" stroke-miterlimit="10" stroke-dasharray="30 40 170 10"/></g><path fill="none" stroke="#0da49a" stroke-miterlimit="10" d="M1892.946 1150.93L-519.303 504.97M1709.9 633.248L-1370.709 903.25M1505.755 228.931L-1014.407 1404.58M798.581 65.757L-26.398 1450.642" stroke-width="1.00012"/></g></g></svg>