<?xml version="1.0" encoding="UTF-8" standalone="no"?><svg xmlns="http://www.w3.org/2000/svg" xmlns:xlink="http://www.w3.org/1999/xlink" width="1680" height="948" viewBox="0 0 1680 948"><defs><radialGradient id="a" cx="0.777" cy="1.051" r="0.544" gradientTransform="matrix(0.655, 0.756, -0.652, 0.565, 0.954, -0.129)" gradientUnits="objectBoundingBox"><stop offset="0" stop-color="#3c8499"/><stop offset="1" stop-color="#002039"/></radialGradient><clipPath id="b"><rect width="1680" height="947" fill="#fff"/></clipPath></defs><g transform="translate(0 -6508)"><rect width="1680" height="948" transform="translate(0 6508)" fill="url(#a)"/><g transform="translate(0 6508)" opacity="0.5" clip-path="url(#b)"><g transform="translate(-1908.157 -328.667) rotate(-20)" opacity="0.3"><g transform="translate(225.276 -187.74)"><g transform="translate(2031.919 1029.805)"><circle cx="349.744" cy="349.744" r="349.744" fill="none" stroke="#0da49a" stroke-miterlimit="10" stroke-width="1"/></g><circle cx="247.665" cy="247.665" r="247.665" transform="translate(703.705 1131.884)" fill="none" stroke="#0da49a" stroke-miterlimit="10" stroke-width="1"/><circle cx="323.129" cy="323.129" r="323.129" transform="translate(3926.352 1056.42)" fill="none" stroke="#0da49a" stroke-miterlimit="10" stroke-width="1"/><path d="M3959.858,1863.468a205.168,205.168,0,0,1-205.3-205.305c0-113.386,91.918-205.305,205.3-205.305s205.305,91.919,205.305,205.305a207.6,207.6,0,0,1-1.466,24.664" transform="translate(-31.396 277.866)" fill="none" stroke="#0da49a" stroke-miterlimit="10" stroke-width="1"/><circle cx="351.853" cy="351.853" r="351.853" transform="translate(0 1027.697)" fill="none" stroke="#0da49a" stroke-miterlimit="10" stroke-width="1" stroke-dasharray="50 10 90"/><circle cx="219.721" cy="219.721" r="219.721" transform="translate(1524.801 1773.078)" fill="none" stroke="#0da49a" stroke-miterlimit="10" stroke-width="1" stroke-dasharray="100 30 60 20 10"/><path d="M1816.4,1627.263a102.659,102.659,0,1,1-8.315,148.5" transform="translate(-138.325 286.103)" fill="none" stroke="#0da49a" stroke-miterlimit="10" stroke-width="1"/><circle cx="39.363" cy="39.363" r="39.363" transform="translate(2758.235 386.311)" fill="none" stroke="#0da49a" stroke-miterlimit="10" stroke-width="1"/><circle cx="84.518" cy="84.518" r="84.518" transform="translate(2502.86 470.77)" fill="none" stroke="#0da49a" stroke-miterlimit="10" stroke-width="1"/><circle cx="245.36" cy="245.36" r="245.36" transform="translate(2344.389 310.983)" fill="none" stroke="#0da49a" stroke-miterlimit="10" stroke-width="1" stroke-dasharray="30 3 100 19"/><circle cx="769.1" cy="769.1" r="769.1" transform="translate(1612.563 610.449)" fill="none" stroke="#0da49a" stroke-miterlimit="10" stroke-width="1" stroke-dasharray="100 30 60 20 10"/><circle cx="850.181" cy="850.181" r="850.181" transform="translate(1531.482 529.368)" fill="none" stroke="#0da49a" stroke-miterlimit="10" stroke-width="1" stroke-dasharray="70 10 360"/><circle cx="1379.549" cy="1379.549" r="1379.549" transform="translate(1002.115)" fill="none" stroke="#0da49a" stroke-miterlimit="10" stroke-width="1" stroke-dasharray="30 40 170 10"/></g><line x2="2808.134" y2="1621.277" transform="translate(858.863 182.556)" fill="none" stroke="#0da49a" stroke-miterlimit="10" stroke-width="1"/><line x2="3954.363" y2="697.261" transform="translate(914.355 893.361)" fill="none" stroke="#0da49a" stroke-miterlimit="10" stroke-width="1"/><line y1="627.02" x2="3556.008" transform="translate(1034.431 842.065)" fill="none" stroke="#0da49a" stroke-miterlimit="10" stroke-width="1"/><line y1="1459.46" x2="1500.336" transform="translate(1866.47 452.066)" fill="none" stroke="#0da49a" stroke-miterlimit="10" stroke-width="1"/></g><circle cx="8" cy="8" r="8" transform="translate(1388 275)" fill="#fff0ed"/><path d="M7.58,3.184a12.149,12.149,0,0,1,2.6,1.67,12.682,12.682,0,0,1,2.077,2.2,10.04,10.04,0,0,1,1.35,2.453,6.158,6.158,0,0,1,.415,2.434,3.558,3.558,0,0,1-.649,1.95,3.227,3.227,0,0,1-1.556,1.127,5.074,5.074,0,0,1-2.24.214,8.7,8.7,0,0,1-2.694-.788,12.124,12.124,0,0,1-2.646-1.688,12.671,12.671,0,0,1-2.106-2.235A9.963,9.963,0,0,1,.785,8.034,6.048,6.048,0,0,1,.4,5.586a3.5,3.5,0,0,1,.691-1.933,3.259,3.259,0,0,1,1.585-1.09,5.175,5.175,0,0,1,2.24-.179A8.8,8.8,0,0,1,7.58,3.184Z" transform="translate(676.764 1410.226)" fill="#0da49a"/></g></g></svg>