<?xml version="1.0" encoding="UTF-8" standalone="no"?><svg xmlns="http://www.w3.org/2000/svg" xmlns:xlink="http://www.w3.org/1999/xlink" width="1680.001" height="950.001" viewBox="0 0 1680.001 950.001">
  <defs>
    <radialGradient id="radial-gradient" cx="1" cy="0" r="0.711" gradientTransform="matrix(-0.401, 0.916, -0.496, -0.217, 1.316, -0.556)" gradientUnits="objectBoundingBox">
      <stop offset="0" stop-color="#3c8499"/>
      <stop offset="1" stop-color="#002039"/>
    </radialGradient>
    <clipPath id="clip-path">
      <rect id="Rectangle_937" data-name="Rectangle 937" width="1680" height="950" transform="translate(0.5 99.865)" fill="url(#radial-gradient)"/>
    </clipPath>
  </defs>
  <g id="bkg_free" transform="translate(-0.5 -99.864)">
    <g id="FOnd" transform="translate(-346.832 -360.407)">
      <rect id="Rectangle_932" data-name="Rectangle 932" width="1680" height="950" transform="translate(347.333 460.271)" fill="url(#radial-gradient)"/>
    </g>
    <g id="Ilus" clip-path="url(#clip-path)">
      <g id="Motif" transform="matrix(-0.966, 0.259, -0.259, -0.966, 2607.099, 1060.314)" opacity="0.4" style="mix-blend-mode: exclusion;isolation: isolate">
        <g id="Circles" transform="translate(225.276 -187.74)">
          <g id="Groupe_1301" data-name="Groupe 1301" transform="translate(1564.689 793.006)">
            <circle id="Ellipse_133" data-name="Ellipse 133" cx="269.322" cy="269.322" r="269.322" fill="none" stroke="#0da49a" stroke-miterlimit="10" stroke-width="1"/>
          </g>
          <circle id="Ellipse_134" data-name="Ellipse 134" cx="190.716" cy="190.716" r="190.716" transform="translate(541.892 871.613)" fill="none" stroke="#0da49a" stroke-miterlimit="10" stroke-width="1"/>
          <circle id="Ellipse_135" data-name="Ellipse 135" cx="248.827" cy="248.827" r="248.827" transform="translate(3023.506 813.501)" fill="none" stroke="#0da49a" stroke-miterlimit="10" stroke-width="1"/>
          <path id="Tracé_439" data-name="Tracé 439" d="M3912.649,1769.05a158.1,158.1,0,1,1,158.1-158.1,159.917,159.917,0,0,1-1.129,18.993" transform="translate(-887.518 -120.106)" fill="none" stroke="#0da49a" stroke-miterlimit="10" stroke-width="1"/>
          <circle id="Ellipse_136" data-name="Ellipse 136" cx="270.946" cy="270.946" r="270.946" transform="translate(0 791.383)" fill="none" stroke="#0da49a" stroke-miterlimit="10" stroke-width="1" stroke-dasharray="50 10 90"/>
          <circle id="Ellipse_137" data-name="Ellipse 137" cx="169.197" cy="169.197" r="169.197" transform="translate(1174.18 1365.367)" fill="none" stroke="#0da49a" stroke-miterlimit="10" stroke-width="1" stroke-dasharray="100 30 60 20 10"/>
          <path id="Tracé_440" data-name="Tracé 440" d="M1814.483,1621.639a79.053,79.053,0,1,1-6.4,114.356" transform="translate(-522.277 -148.242)" fill="none" stroke="#0da49a" stroke-miterlimit="10" stroke-width="1"/>
          <circle id="Ellipse_138" data-name="Ellipse 138" cx="30.311" cy="30.311" r="30.311" transform="translate(2123.992 297.481)" fill="none" stroke="#0da49a" stroke-miterlimit="10" stroke-width="1"/>
          <path id="Tracé_548" data-name="Tracé 548" d="M65.083,0A65.083,65.083,0,1,1,0,65.083,65.083,65.083,0,0,1,65.083,0Z" transform="translate(1927.34 362.519)" fill="none" stroke="#0da49a" stroke-width="1"/>
          <circle id="Ellipse_140" data-name="Ellipse 140" cx="188.94" cy="188.94" r="188.94" transform="translate(1805.308 239.474)" fill="none" stroke="#0da49a" stroke-miterlimit="10" stroke-width="1" stroke-dasharray="30 3 100 19"/>
          <circle id="Ellipse_141" data-name="Ellipse 141" cx="592.25" cy="592.25" r="592.25" transform="translate(1241.762 470.079)" fill="none" stroke="#0da49a" stroke-miterlimit="10" stroke-width="1" stroke-dasharray="100 30 60 20 10"/>
          <circle id="Ellipse_142" data-name="Ellipse 142" cx="654.686" cy="654.686" r="654.686" transform="translate(1179.325 407.642)" fill="none" stroke="#0da49a" stroke-miterlimit="10" stroke-width="1" stroke-dasharray="70 10 360"/>
          <circle id="Ellipse_143" data-name="Ellipse 143" cx="1062.329" cy="1062.329" r="1062.329" transform="translate(771.683)" fill="none" stroke="#0da49a" stroke-miterlimit="10" stroke-width="1" stroke-dasharray="30 40 170 10"/>
        </g>
        <line id="Ligne_182" data-name="Ligne 182" x2="2162.417" y2="1248.472" transform="translate(713.172 97.408)" fill="none" stroke="#0da49a" stroke-miterlimit="10" stroke-width="1"/>
        <line id="Ligne_183" data-name="Ligne 183" x2="3045.077" y2="536.929" transform="translate(755.905 644.767)" fill="none" stroke="#0da49a" stroke-miterlimit="10" stroke-width="1"/>
        <line id="Ligne_184" data-name="Ligne 184" y1="482.84" x2="2738.321" transform="translate(848.369 605.266)" fill="none" stroke="#0da49a" stroke-miterlimit="10" stroke-width="1"/>
        <line id="Ligne_185" data-name="Ligne 185" y1="1123.864" x2="1155.341" transform="translate(1489.085 304.946)" fill="none" stroke="#0da49a" stroke-miterlimit="10" stroke-width="1"/>
      </g>
    </g>
  </g>
</svg>
