<?xml version="1.0" encoding="UTF-8" standalone="no"?><svg xmlns="http://www.w3.org/2000/svg" width="1278" height="180"><defs><clipPath id="a"><rect data-name="Rectangle 859" width="1278" height="180" rx="10" transform="translate(201 2148)" fill="#0c082f"/></clipPath></defs><rect data-name="Rectangle 753" width="1278" height="180" rx="10" fill="#002039"/><g data-name="Groupe 43" transform="translate(-201 -2148)" clip-path="url(#a)"><g data-name="Groupe 1131" transform="translate(-110.631 1471.649)" opacity=".5"><g transform="rotate(9 3299.059 1257.55)"><circle data-name="Ellipse 86" cx="372.779" cy="372.779" r="372.779" transform="translate(786.149 786.149)" fill="none" stroke="#0da49a" stroke-miterlimit="10" opacity=".5"/><circle data-name="Ellipse 87" cx="152.2" cy="152.2" r="152.2" transform="translate(1006.727 1006.727)" fill="none" stroke="#0da49a" stroke-miterlimit="10"/><g data-name="Groupe 1095"><circle data-name="Ellipse 88" cx="557.479" cy="557.479" r="557.479" transform="translate(601.448 601.448)" fill="none" stroke="#0da49a" stroke-miterlimit="10" stroke-dasharray="40 10 80"/></g><circle data-name="Ellipse 91" cx="1158.927" cy="1158.927" r="1158.927" fill="none" stroke="#0da49a" stroke-miterlimit="10" stroke-dasharray="0 10 460"/><circle data-name="Ellipse 92" cx="412.638" cy="412.638" r="412.638" transform="translate(746.289 746.289)" fill="none" stroke="#fff0ed" stroke-miterlimit="10" stroke-dasharray="40 10 80"/></g><circle data-name="Ellipse 93" cx="14.638" cy="14.638" r="14.638" transform="translate(272.168 282.132)" fill="#0da49a" stroke="#0da49a" stroke-miterlimit="10"/><circle data-name="Ellipse 94" cx="14.638" cy="14.638" r="14.638" transform="translate(422.504 370.253)" fill="#0da49a" stroke="#0da49a" stroke-miterlimit="10"/><circle data-name="Ellipse 95" cx="12.224" cy="12.224" r="12.224" transform="translate(815.702 208.88)" fill="#0da49a" stroke="#0da49a" stroke-miterlimit="10"/><circle data-name="Ellipse 96" cx="14.638" cy="14.638" r="14.638" transform="translate(1510.957 627.555)" fill="#0da49a"/><circle data-name="Ellipse 97" cx="7.082" cy="7.082" r="7.082" transform="translate(1381.249 1140.2)" fill="#0da49a"/><circle data-name="Ellipse 98" cx="9.349" cy="9.349" r="9.349" transform="translate(2175.437 957.683)" fill="#0da49a"/><circle data-name="Ellipse 99" cx="7.082" cy="7.082" r="7.082" transform="translate(2249.485 1296.944)" fill="none" stroke="#0da49a" stroke-miterlimit="10"/><circle data-name="Ellipse 100" cx="14.569" cy="14.569" r="14.569" transform="translate(458.869 889.677)" fill="#0da49a" stroke="#0da49a" stroke-miterlimit="10"/></g></g><g data-name="Groupe 983" transform="translate(-1256.275 -394.69)" fill="none" stroke="#0da49a" stroke-miterlimit="10"><circle data-name="Ellipse 65" cx="22.609" cy="22.609" r="22.609" transform="translate(1345.591 464.659)"/><rect data-name="Rectangle 856" width="42.486" height="6.521" rx="3.26" transform="translate(1312.476 484.007)"/><rect data-name="Rectangle 857" width="30.437" height="6.521" rx="3.26" transform="translate(1312.476 464.477)"/><rect data-name="Rectangle 858" width="30.437" height="6.521" rx="3.26" transform="translate(1312.476 503.245)"/></g></svg>