<?xml version="1.0" encoding="utf-8"?><svg xmlns="http://www.w3.org/2000/svg" width="60" height="60" viewBox="0 0 60 60"><rect width="60" height="60" rx="5" fill="#4e21e7" opacity="0.1"/><path d="M8.159,1.308a1,1,0,0,1,1.682,0L17.01,12.459A1,1,0,0,1,16.168,14H1.832A1,1,0,0,1,.99,12.459Z" transform="translate(43 21) rotate(90)" fill="#4e21e7"/><path d="M8.143,1.429a1,1,0,0,1,1.715,0l7.234,12.056A1,1,0,0,1,16.234,15H1.766a1,1,0,0,1-.857-1.514Z" transform="translate(32 21) rotate(90)" fill="#4e21e7" opacity="0.3"/></svg>