<?xml version="1.0" encoding="UTF-8" standalone="no"?><svg xmlns="http://www.w3.org/2000/svg" width="60" height="60" viewBox="0 0 60 60"><rect width="60" height="60" rx="5" fill="#0da49a" opacity="0.1"/><path d="M865.857,222.943a12.014,12.014,0,0,1-12-12V199.1a2.16,2.16,0,0,1,2.158-2.158H875.7a2.16,2.16,0,0,1,2.158,2.158v11.842A12.013,12.013,0,0,1,865.857,222.943Zm-9.842-24a.158.158,0,0,0-.158.158v11.842a10,10,0,0,0,20,0V199.1a.158.158,0,0,0-.158-.158Z" transform="translate(-835.857 -179.943)" fill="#0da49a" opacity="0.3"/><path d="M865.857,200.943h-6.981a1.2,1.2,0,0,0-1.2,1.2v8.8a8,8,0,0,0,8,8C865.676,213.235,865.857,201.929,865.857,200.943Z" transform="translate(-835.857 -179.943)" fill="#0da49a"/></svg>