<?xml version="1.0" encoding="UTF-8" standalone="no"?><svg xmlns="http://www.w3.org/2000/svg" width="80" height="80" viewBox="0 0 80 80"><rect width="80" height="80" rx="5" fill="#ee485f" opacity="0.1"/><path d="M4,0h8.333a4,4,0,0,1,4,4v8.333a4,4,0,0,1-4,4H4a4,4,0,0,1-4-4V4A4,4,0,0,1,4,0Z" transform="translate(20.433 31.727)" fill="#ee485f"/><path d="M1116.692,357.425h-8.168a2,2,0,0,1,0-4h8.168a2,2,0,0,1,0,4Z" transform="translate(-1065.636 -311.449)" fill="#ee485f" opacity="0.3"/><path d="M1124.858,351.3h-16.333a2,2,0,0,1,0-4h16.333a2,2,0,0,1,0,4Z" transform="translate(-1065.635 -313.491)" fill="#ee485f" opacity="0.3"/></svg>