<?xml version="1.0" encoding="UTF-8" standalone="no"?><svg xmlns="http://www.w3.org/2000/svg" width="80" height="80" viewBox="0 0 80 80"><rect width="80" height="80" rx="5" fill="#4e21e7" opacity="0.1"/><path d="M1231.365,358.107a5.7,5.7,0,0,1-5.323,0l-8.72-4.609v5.8c0,3.143,5.095,5.691,11.381,5.691s11.381-2.548,11.381-5.691v-5.8Z" transform="translate(-1188.065 -312.306)" fill="#4e21e7"/><path d="M1233.012,343.263a5.7,5.7,0,0,0-5.323,0l-14.3,7.56a1.9,1.9,0,0,0,0,3.356l14.3,7.56a5.7,5.7,0,0,0,5.323,0l14.3-7.56a1.9,1.9,0,0,0,0-3.356" transform="translate(-1189.713 -315.937)" fill="#4e21e7" opacity="0.3"/><path d="M10.168,4H2A2,2,0,0,1,2,0h8.168a2,2,0,0,1,0,4Z" transform="matrix(0.875, -0.485, 0.485, 0.875, 41.738, 35.098)" fill="#4e21e7"/></svg>