<?xml version="1.0" encoding="UTF-8"?><svg id="Calque_1" xmlns="http://www.w3.org/2000/svg" viewBox="0 0 64 64"><defs><style>.cls-1,.cls-2,.cls-3{fill:#ee485f;}.cls-2{opacity:.3;}.cls-2,.cls-3{isolation:isolate;}.cls-3{opacity:.1;}</style></defs><g id="Others"><g><rect id="Conteneur_Picto-19" class="cls-3" x="2" y="2" width="60" height="60" rx="5" ry="5"/><g><g><path class="cls-2" d="M31.35,28.57h-1.96c-.27,0-.49,.22-.49,.49v5.87c0,.27,.22,.49,.49,.49h1.96c.27,0,.49-.22,.49-.49v-5.87c0-.27-.22-.49-.49-.49Z"/><path class="cls-2" d="M27.44,31.5h-1.96c-.27,0-.49,.22-.49,.49v2.93c0,.27,.22,.49,.49,.49h1.96c.27,0,.49-.22,.49-.49v-2.93c0-.27-.22-.49-.49-.49Z"/><path class="cls-1" d="M35.27,25.63h-1.96c-.27,0-.49,.22-.49,.49v8.8c0,.27,.22,.49,.49,.49h1.96c.27,0,.49-.22,.49-.49v-8.8c0-.27-.22-.49-.49-.49Z"/></g><path class="cls-2" d="M45.41,43.92l-4.66-4.66c2.1-2.31,3.39-5.36,3.4-8.73,0-7.18-5.82-13-13-13s-13,5.82-13,13,5.82,13,13,13c2.73,0,5.26-.85,7.35-2.29l4.8,4.8c.29,.29,.68,.44,1.06,.44s.77-.15,1.06-.44c.59-.59,.59-1.54,0-2.12Zm-25.27-13.39c0-6.08,4.92-11,11-11,6.07,0,10.99,4.93,11,11,0,6.08-4.92,11-11,11s-11-4.92-11-11Z"/></g></g></g></svg>