<?xml version="1.0" encoding="UTF-8" standalone="no"?><svg xmlns="http://www.w3.org/2000/svg" width="80" height="80" viewBox="0 0 80 80"><rect width="80" height="80" rx="5" fill="#ee485f" opacity="0.1"/><path d="M994.115,362.363H979.892a2,2,0,0,1,0-4h14.223a2,2,0,0,1,0,4Z" transform="translate(-946.34 -309.03)" fill="#ee485f"/><path d="M975.005,362.363h-1.777a2,2,0,0,1,0-4h1.777a2,2,0,0,1,0,4Z" transform="translate(-948.561 -309.03)" fill="#ee485f" opacity="0.3"/><path d="M1003.006,354.363H979.9a2,2,0,0,1,0-4h23.111a2,2,0,0,1,0,4Z" transform="translate(-946.339 -311.696)" fill="#ee485f"/><path d="M975.005,354.363h-1.777a2,2,0,0,1,0-4h1.777a2,2,0,0,1,0,4Z" transform="translate(-948.561 -311.696)" fill="#ee485f" opacity="0.3"/><path d="M1003.006,346.363H979.9a2,2,0,0,1,0-4h23.111a2,2,0,0,1,0,4Z" transform="translate(-946.339 -314.363)" fill="#ee485f"/><path d="M975.005,346.363h-1.777a2,2,0,0,1,0-4h1.777a2,2,0,0,1,0,4Z" transform="translate(-948.561 -314.363)" fill="#ee485f" opacity="0.3"/></svg>