<?xml version="1.0" encoding="UTF-8" standalone="no"?><svg xmlns="http://www.w3.org/2000/svg" width="60" height="60" viewBox="0 0 60 60"><rect width="60" height="60" rx="5" fill="#ee485f" opacity="0.1"/><path d="M561.9,157.081h-16a2,2,0,0,1-2-2v-16a2,2,0,0,1,2-2h16a2,2,0,0,1,2,2v16A2,2,0,0,1,561.9,157.081Zm-16-18h0v16h16v-16Z" transform="translate(-526.901 -114.081)" fill="#ee485f" opacity="0.3"/><path d="M2,0H18a2,2,0,0,1,2,2V18a2,2,0,0,1-2,2H2a2,2,0,0,1-2-2V2A2,2,0,0,1,2,0Z" transform="translate(22.999 17)" fill="#ee485f"/></svg>