<?xml version="1.0" encoding="UTF-8" standalone="no"?><svg xmlns="http://www.w3.org/2000/svg" width="60" height="59.625" viewBox="0 0 60 59.625"><rect width="60" height="59.625" rx="5" fill="#4e21e7" opacity="0.1"/><path d="M990.059,361.344H979.392a1.491,1.491,0,1,1,0-2.981h10.667a1.491,1.491,0,1,1,0,2.981Z" transform="translate(-954.228 -321.594)" fill="#4e21e7"/><path d="M974.061,361.344h-1.333a1.491,1.491,0,1,1,0-2.981h1.333a1.491,1.491,0,1,1,0,2.981Z" transform="translate(-954.228 -321.594)" fill="#4e21e7" opacity="0.3"/><path d="M996.728,353.344H979.4a1.491,1.491,0,1,1,0-2.981h17.333a1.491,1.491,0,1,1,0,2.981Z" transform="translate(-954.228 -321.544)" fill="#4e21e7"/><path d="M974.061,353.344h-1.333a1.491,1.491,0,1,1,0-2.981h1.333a1.491,1.491,0,1,1,0,2.981Z" transform="translate(-954.228 -321.544)" fill="#4e21e7" opacity="0.3"/><path d="M996.728,345.344H979.4a1.491,1.491,0,1,1,0-2.981h17.333a1.491,1.491,0,1,1,0,2.981Z" transform="translate(-954.228 -321.494)" fill="#4e21e7"/><path d="M974.061,345.344h-1.333a1.491,1.491,0,1,1,0-2.981h1.333a1.491,1.491,0,1,1,0,2.981Z" transform="translate(-954.228 -321.494)" fill="#4e21e7" opacity="0.3"/></svg>