<?xml version="1.0" encoding="UTF-8" standalone="no"?><svg xmlns="http://www.w3.org/2000/svg" width="60" height="59.625" viewBox="0 0 60 59.625"><rect width="60" height="59.625" rx="5" fill="#4e21e7" opacity="0.1"/><path d="M866.482,360.636h-1.248a1.491,1.491,0,1,1,0-2.981h1.248a1.491,1.491,0,1,1,0,2.981Z" transform="translate(-835.858 -322.166)" fill="#4e21e7" opacity="0.3"/><path d="M860.234,360.636h-7.481a1.491,1.491,0,1,1,0-2.981h7.481a1.491,1.491,0,1,1,0,2.981Z" transform="translate(-835.858 -322.166)" fill="#4e21e7"/><path d="M878.962,353.153H871.48a1.491,1.491,0,1,1,0-2.981h7.482a1.491,1.491,0,1,1,0,2.981Z" transform="translate(-835.858 -322.119)" fill="#4e21e7"/><path d="M866.48,353.153H859a1.491,1.491,0,1,1,0-2.981h7.482a1.491,1.491,0,1,1,0,2.981Z" transform="translate(-835.858 -322.119)" fill="#4e21e7"/><path d="M854,353.153h-1.246a1.491,1.491,0,1,1,0-2.981H854a1.491,1.491,0,1,1,0,2.981Z" transform="translate(-835.858 -322.119)" fill="#4e21e7" opacity="0.3"/><path d="M878.964,345.671h-7.482a1.491,1.491,0,1,1,0-2.981h7.482a1.491,1.491,0,1,1,0,2.981Z" transform="translate(-835.858 -322.073)" fill="#4e21e7"/><path d="M866.483,345.671h-1.247a1.491,1.491,0,1,1,0-2.981h1.247a1.491,1.491,0,1,1,0,2.981Z" transform="translate(-835.858 -322.073)" fill="#4e21e7" opacity="0.3"/><path d="M860.234,345.671h-7.481a1.491,1.491,0,1,1,0-2.981h7.481a1.491,1.491,0,1,1,0,2.981Z" transform="translate(-835.858 -322.073)" fill="#4e21e7"/></svg>