<?xml version="1.0" encoding="UTF-8" standalone="no"?><svg xmlns="http://www.w3.org/2000/svg" xmlns:xlink="http://www.w3.org/1999/xlink" width="1680" height="1050" viewBox="0 0 1680 1050"><defs><clipPath id="a"><rect width="1680" height="1050" transform="translate(0 2733)" fill="#0c082f"/></clipPath></defs><g transform="translate(0 -2733)" opacity="0.3" clip-path="url(#a)"><g transform="translate(-823.896 1617.362)"><g transform="translate(225.276 -187.74)"><g transform="translate(1940.279 983.36)"><circle cx="333.971" cy="333.971" r="333.971" transform="translate(0)" fill="none" stroke="#4e21e7" stroke-miterlimit="10" stroke-width="1"/></g><circle cx="236.495" cy="236.495" r="236.495" transform="translate(671.968 1080.836)" fill="none" stroke="#4e21e7" stroke-miterlimit="10" stroke-width="1"/><circle cx="308.556" cy="308.556" r="308.556" transform="translate(3749.271 1008.775)" fill="none" stroke="#4e21e7" stroke-miterlimit="10" stroke-width="1"/><path d="M3950.6,1844.949A195.915,195.915,0,0,1,3754.553,1648.9c0-108.273,87.772-196.046,196.046-196.046s196.046,87.773,196.046,196.046a198.2,198.2,0,0,1-1.4,23.552" transform="translate(-199.313 199.809)" fill="none" stroke="#4e21e7" stroke-miterlimit="10" stroke-width="1"/><circle cx="335.984" cy="335.984" r="335.984" transform="translate(0 981.347)" fill="none" stroke="#4e21e7" stroke-miterlimit="10" stroke-width="1" stroke-dasharray="50 10 90"/><circle cx="209.812" cy="209.812" r="209.812" transform="translate(1456.031 1693.111)" fill="none" stroke="#4e21e7" stroke-miterlimit="10" stroke-width="1" stroke-dasharray="100 30 60 20 10"/><path d="M1816.02,1626.159a98.029,98.029,0,1,1-7.94,141.806" transform="translate(-213.632 200.912)" fill="none" stroke="#4e21e7" stroke-miterlimit="10" stroke-width="1"/><circle cx="37.587" cy="37.587" r="37.587" transform="translate(2633.837 368.888)" fill="none" stroke="#4e21e7" stroke-miterlimit="10" stroke-width="1"/><circle cx="80.706" cy="80.706" r="80.706" transform="translate(2389.979 449.538)" fill="none" stroke="#4e21e7" stroke-miterlimit="10" stroke-width="1"/><circle cx="234.294" cy="234.294" r="234.294" transform="translate(2238.656 296.958)" fill="none" stroke="#4e21e7" stroke-miterlimit="10" stroke-width="1" stroke-dasharray="30 3 100 19"/><circle cx="734.413" cy="734.413" r="734.413" transform="translate(1539.836 582.917)" fill="none" stroke="#4e21e7" stroke-miterlimit="10" stroke-width="1" stroke-dasharray="100 30 60 20 10"/><circle cx="811.838" cy="811.838" r="811.838" transform="translate(1462.411 505.493)" fill="none" stroke="#4e21e7" stroke-miterlimit="10" stroke-width="1" stroke-dasharray="70 10 360"/><circle cx="1317.331" cy="1317.331" r="1317.331" transform="translate(956.918)" fill="none" stroke="#4e21e7" stroke-miterlimit="10" stroke-width="1" stroke-dasharray="30 40 170 10"/></g><line x2="2681.485" y2="1548.156" transform="translate(830.287 165.855)" fill="none" stroke="#4e21e7" stroke-miterlimit="10" stroke-width="1"/><line x2="3776.019" y2="665.814" transform="translate(883.276 844.602)" fill="none" stroke="#4e21e7" stroke-miterlimit="10" stroke-width="1"/><line y1="598.741" x2="3395.629" transform="translate(997.937 795.62)" fill="none" stroke="#4e21e7" stroke-miterlimit="10" stroke-width="1"/><line y1="1393.637" x2="1432.669" transform="translate(1792.451 423.21)" fill="none" stroke="#4e21e7" stroke-miterlimit="10" stroke-width="1"/><circle cx="9.535" cy="9.535" r="9.535" transform="translate(2250.167 1353.295)" fill="#4e21e7"/><circle cx="7.035" cy="7.035" r="7.035" transform="translate(1020.167 1334.224)" fill="#4e21e7"/><circle cx="9.535" cy="9.535" r="9.535" transform="translate(1461.167 1942.224)" fill="#4e21e7"/></g></g></svg>